<?xml version="1.0" encoding="utf-8"?>
<!-- Generator: Adobe Illustrator 17.1.0, SVG Export Plug-In . SVG Version: 6.00 Build 0)  -->
<!DOCTYPE svg PUBLIC "-//W3C//DTD SVG 1.1//EN" "http://www.w3.org/Graphics/SVG/1.1/DTD/svg11.dtd">
<svg version="1.1" id="Layer_1" xmlns="http://www.w3.org/2000/svg" xmlns:xlink="http://www.w3.org/1999/xlink" x="0px" y="0px"
	 viewBox="0 0 800 801" enable-background="new 0 0 800 801" xml:space="preserve">
<g id="Layer_2">
	<path d="M-475.8-186L-259,1478.1l1682.9-219.3L1207.1-405.3L-475.8-186z M519.8-112.6c1.9-6.5,2.6-12.2,1.7-19
		c-0.3-2.6-1.1-5.5-0.8-8.1c0.3-2.9,2.3-6.2,3.8-8.7c1.8-3,4.1-5.8,6.1-8.7c1.4-2,2.3-3.5,5-3.8c5.1-0.3,8.9,3.7,9.7,8.4
		c0.5,2.8,0.9,5.8,3.3,7.6c1.7,1.2,5.9,2.2,7.5,0.2c1.4-1.9-0.7-4.6,1.6-5.9c2.7-1.4,6.9,0.7,9.4,1.4c4.6,1.3,13.6,1.7,15.6,6.9
		c2.4,6.2,1.2,16.4-2.2,22.2c-1.4,2.5-3.6,4.4-6,5.8c-1.7,1.1-4.4,1.5-5.5,3.1c2.3,0.7,3.8,1.2,3.7,3.8c0,2.2-1.3,2.7-2.5,4.5
		c-1.5,2.2-3,4.7-4.8,6.8c-1.1,1.5-2,4.1-3.4,5.3c-1.6,1.3-2.7-1-4.2,0.7c-1.5,1.5-1.3,6.1-1.6,8c-1.7,10.8-6.6,20.2-10.9,30.3
		c-1.4,3.4-2,6.9-3.2,10.4c-1.3,3.7-2.6,7.2-3.4,10.9c-0.7,3.2-2.4,5.6-3.3,8.6c-0.8,2.3-0.6,5.4-0.7,7.9c0,0,0,0.1,0,0.2
		c-0.2,5.6-1.6,11-3,16.5c-1.6,5.6-2.2,9.7-1.7,15.6c0.4,4.8,0.8,9.9,1.9,14.5c2.1,8.4,5.3,16.4,6.9,24.7c1.6,7.6,1.4,15.5,1.7,23.2
		c0.2,4.3,0.9,8.7,1.4,12.9c0.4,3.4,0.9,6.9,1.3,10.3c0.4,2.8,0.8,5.8,1.1,8.6c0.4,3.2,0.5,4.9,3.1,6.9c2.3,1.9,4.7,3.5,6.9,5.6
		c4.4,4.5,9.1,9.2,11.1,15.2c1.5,4.3,1.7,9.2,2.3,13.8c0.5,3.8,1.7,7.8-0.1,11.3c-1.7,3.4-4.7,5.5-7.2,8.2
		c-3.4,3.5-7.2,6.7-9.9,10.7c-2.2,3.2-2.6,6.7-3.5,10.3c-0.7,2.9-1.7,5.6-3.3,8.1c-3.5,5.7-11.5,10.6-11.7,18
		c-0.1,2.7,1.3,5,2.6,7.1c1.5,2.4,2.5,5.1,3.8,7.6c1,2,3.5,4.7,3.8,7c0.3,2.6-3,5.4-4.3,7.5c-2.1,3.3-4,6.5-6.3,9.5
		c-5.6,7.1-8.8,15.2-12.3,23.5c-2,4.7-4.1,9.3-6.5,13.8c-5.5,10.1-12.2,19.9-17.7,30.1c-4.5,8.3-8.3,17-12.3,25.4
		c-3.7,7.5-8.8,14.3-10.9,22.4c-0.9,3.5-2.3,6.9-1.9,10.6c0.4,3.9,2.4,7.6,0.5,11c-1,1.8-1.2,2.8-0.8,5c0.7,3.8,3.7,5.2,4.8,8.3
		c2.4,6.3-5.3,3.5-6.8,6.8c-1.9,4.1,6,4.5,7.7,5.3c-1.5,2-5.6,1.1-7.4,3.4c-1.7,2.4,1.1,3.5,3,4.8c5.5,3.7,9.1,8.1,9.3,14.9
		c0.1,3.6-0.1,7.2-0.3,10.9c-0.1,2.1,0,4.3-0.4,6c0,0-0.8,0.6-0.8,1.1c-0.1,0.5,0.3,1.2,0.2,1.7c-0.2,8.8,0.5,18-1.7,26.6
		c-1.2,4.4-2.6,8.8-3.7,13.2c-0.9,3.5-2.1,6.2-4.5,8.8c-2.1,2.3-4.3,3.7-7.2,4.9c-3.1,1.4-5.8,3.2-9.3,3.6
		c-3.7,0.5-7.1,1.6-10.7,3.1c-2.4,1-4.6,4.6-7.4,3.9c-2.9-0.7-2-3.3-2.4-5.5c-0.4-2.2-0.2-1.9-2.4-1.9c-1.3,0.1-2.5,0.4-3.6,0.7
		c-3.9,0.9-7.8,2-11.3,3.9c-3.5,1.9-6.4,4.7-9.8,6.8c-2.3,1.4-4.2,2.6-3.2,5.7c0.8,2.2,2.7,3.3,2.2,5.8c-1.3,6.9-7.2,12.7-11.8,17.7
		c-6.6,7.2-5.3-5.2-10.4-3.1c-5.7,2.3,6.2,8.6-0.3,10.4c-3.6,1-2.5-0.8-4.1-2.7c-2-2.4-4.8,0.1-5.9,2c-1.5,2.5-2.1,3.4-5.3,3.5
		c-2.4,0.1-4.7-1.1-6.7-2.4c-1.5-1-2.3-2.2-3.2-3.7c-0.9-1.6-2.9-3.6-3.6-5.2c-1.3-3.4,1.9-3,2.7-5.3c1-3.1-2.1-3.1-3.9-2.5
		c-2,0.6-5.5,2.4-7,0.2c-1.1-1.7,0.1-6,0.2-7.7c0.4-4,0.9-7.8,1.1-11.7c0.1-3.5,1-6.9,1.2-10.3c0.2-4.6,0-9-0.3-13.6
		c-0.9-10.9,1.6-22,1.4-32.8c-0.1-2.3-0.8-7.1,0-9.1c1-2.3,5.8-3.2,8.2-3.8c2.2-0.8,4.2-1.4,1.3-2.9c-2.5-1.5-12.7-1.6-9.5-6.3
		c0.8-1.2,3-2.4,3.3-4.4c0.3-3.2-1.9-1.1-3.7-2.2c-3.8-2.7,7.6-4.4,9-5c0.8-5.2-7.7-1-9-4.4c-1.1-2.6,1.1-6.6,1.5-9.1
		c0.4-2.8,0.3-3.5,3.5-4.7c1.5-0.6,5.5-1.2,4-3.6c-1.2-2-4.9-1-6.8-1.2c-2.5-0.1-3-1.7-0.9-3.1c1.7-1.2,4-1,2.7-3.8
		c-0.5-1.4-2.3-2.9-3.6-4c-2-1.5-2.3-1.9-1.8-4.6c0.5-2.5,0.7-4.7,0.3-7.3c-1.2-6.1-1.5-11.4,2.8-16.6c2.5-3.1,5.8-4.6,2.1-8.6
		c-2.4-2.6-6.8-3-4.4-8c1.5-3.3,3.2-6.8,2.5-10.9c2.4-0.2,1.8,2.2,3.2,3.1c1.7,1.2,3.4-0.6,4.2-2.1c0.7-1.4,1.1-3.9,0-5.3
		c-0.9-1.2-2.6-1.5-3.1-2.8c-0.4-0.9,0.2-3.2,0.3-4.1c0.4-3.3,2-6.2,3.4-9c0.6-1.2,0.8-2,1.8-3c0.6-0.6,2.3-0.8,2.6-1.3
		c2.4-2.6-1.7-1.8-3.1-2.5c-2.2-5.2,10.6-2.1,8.8-6.2c-1.3-0.9-3.2-0.4-3.8-2.4c-0.5-1.6,0.9-3.4,2.3-3.8c1.3-0.4,4.1,1.1,4.1-1
		c-0.1-1.4-2.4-2-3.5-1.9c-1.5-4.1,5.1-1.2,6.5-1.6c0.2-2.1-2-1.2-3-2.4c-0.7-0.9-0.4-2.8-0.4-3.9c0.9,0.6,7.3,3,6.9-0.1
		c-0.3-2.1-4-1.2-4.9-2.8c-1.4-2.7,2.5-0.8,3.9-1.7c2.7-1.8-1.9-1.4-2.5-2.4c-1.1-2.1,2.7-2.6,3.6-3.6c1.9-2.2-0.8-2.4-1.5-4.4
		c-0.8-2.1,0.5-3.2,1.6-4.9c1.8-2.9,0.9-10.6,5.4-10.3c0.2,0.9,1,2.9,1.7,3.3c1.5,0.8,2.9-0.1,2.9-1.7c0-2.8-3.9-3.9-2.3-7.3
		c0.7-1.3,1.9-2.1,2.5-3.6c0.4-1.3,0.5-2.4,1.2-3.4c1.4-2.1,6.1-3.3,4-6.4c-1-1.4-4.1-1.1-4.6-2.2c-0.9-2.2,3.3-2.1,4.4-2.3
		c2.1-0.3,3.5-0.2,4.7-1.8c1.2-1.6,1.8-4.3,2.6-6.2c2.2-5.6,4.9-11.1,6.8-16.9c1-3.1,1.6-6.5,2.7-9.5c1.3-3.5,3.8-5.9,5.5-9.1
		c1.5-3.1,2.3-6.6,3.6-9.6c2.4-5.7,4.3-11.6,6.5-17.3c1.8-4.4,3.5-8.4,4.3-13.1c0.4-2.2,0.4-4.3,1.1-6.4c2.2-8,6.4-15.7,9.8-23.3
		c2.5-5.5,4.4-11.3,6.5-17c1.3-3.7,1.9-7.7,3.1-11.5c1.1-3.4,2.9-6.4,4.3-9.7c0.7-1.8,3.3-5.8,3-7.7c-0.3-2.2-3.5-1.6-3-3.6
		c0.5-2,4.2-2.6,5.3-4.4c1.2-2.1,0.3-5.1,2.7-6.7c0.8-0.6,1.9-0.1,2.7-0.6c1-0.6,1.2-1.8,1.7-2.9c3.5-8.3,8.2-16.1,12.2-24.2
		c3.8-7.8,6.1-16.8,8.1-25.2c2-8.1,2.4-16.3,3.9-24.4c1.1-6.2,4.9-12.9,4.6-19.2c-0.4-5.7-4.8-8.5-7.3-13.5
		c-1.6-3.2-1.3-6.2,0.2-9.3c1.5-2.7,3-3.4,5.2-5.3c3.7-3.1,5.7-8.6,7.7-12.9c4.2-9.3,7.5-18.9,11.5-28.3
		C515.1-98.2,517.7-105.2,519.8-112.6z M304.6,968.4c-0.8,2.1-1.1,4.4-1.5,6.7c-1,5.1-2,10.4-3.4,15.5c-1.1,3.7-3,7.3-4.6,10.9
		c-1.6,3.6-2.6,7.6-4.5,10.9c-2.3,4.3-8.2,7.2-11.8,10.4c-3.1,2.9-5.6,5.9-7,9.9c-1.3,3.9-2.5,7.3-4.8,10.9
		c-3,4.6-5.3,10.2-9.1,14.1c-13.9,13.7-24.6,30.1-36,45.7c-2.2,3.1-4.5,6.8-6.4,10.2c-1.6,3.1-3.3,6.3-5.8,8.7
		c-2.7,2.4-3.3,4.8-4.6,8.2c-1.3,3.7-2.4,7.1-4.5,10.5c-1.6,2.5-3.2,5.1-4.4,7.7c-0.8,1.8-1.7,4.8-3.4,5.9c-2.1,1.2-4-0.8-6.3,0
		c-3.1,1.1-3.6,4-4.1,6.5c-0.5,3.3-0.9,6.4-2.2,9.6c-1.4,3.1-3.2,5.9-4.5,9.1c-0.5,1.1-0.6,4.5-1.6,5.3c-2.3,1.7-2.9-2.5-3.6-4
		c-2.8-4.9-4.4,4.8-6,6.7c-3.6,4.6-6.8,8.6-9,14c-2.4,6-6.1,12.1-10.4,16.8c-2.4,2.6-5,4.9-7.6,7.2c-2.4,2.1-4.3,4.8-7.1,6.1
		c-3.1,1.4-4.8,1.8-7.3,4.3c-2.6,2.8-5.6,6-7.7,9.3c-7.2,11.4-10.9,24.6-19.6,34.9c-2.6,3.1-5.4,7.4-9.3,3.4
		c-3.1-3.2-8.4-7.8-10.2-11.8c-1-2.2-0.4-4.3,0.4-6.4c1.1-3.3,1.8-4,5.1-4.4c4.8-0.6,10.1,0,13.8-3.4c2-1.9,4-3.8,5.2-6.3
		c1.2-2.4,2.3-5.2,3.8-7.7c2.6-4.3,6.7-8.5,6.8-13.6c0-4.6-6.8-9.8-10.8-11.5c-3.8-1.5-9.1-3.4-12.7-0.4c-2.4,2-2.2,5.8-5.3,7.1
		c-3.7,1.7-9.3,0.3-8.6,6.2c0.3,2.4,0.6,3.9-1.5,4.9c-2.1,1.1-3.6,0.7-4,3.5c-0.2,1.5,0,5.3,0.8,6.8c0.8,1.8,2.7,2.2,3.3,4.3
		c1.1,3.9-1,5.9-3.3,8.6c-1.1,1.4-1.6,2.8-2.6,4.3c-0.3,0.4-1.1,0.7-1.4,1.1c-0.4,0.5-0.8,1.9-1.2,2.4c-1.2,2.2-2.7,4.3-3.8,6.5
		c-2.2,4.4-4.9,5.8-9,8.3c-5.7,3.4-11.6,6.3-16.9,10.5c-3.7,2.9-7,6.2-10.7,9.2c-4.2,3.4-8,7.1-11.7,11c-3,3.2-5.9,6.7-9.4,9
		c-2.1,1.4-4.7,2.4-6.3,4.4c-1.6,2.1-1.7,4.3-4.2,1.1c-1.7-2.2-2.3-4-5.5-3.4c0.1,7.3-4.7,9.4-9.2,14.1c-1.6,1.7-3,4-5.3,4.7
		c-3.8,1.1-4.5-3.3-6.9-5c-2.1-1.5-5.1,0.8-6.9,2.6c-2.3,2.3-4.4,4.7-6.9,6.9c-2.7,2.5-5.3,4.7-6.6,8.2c-1.3,3.8-2.2,7.5-4,11.1
		c-2.3,4.4-9.1,19.9-15.7,18.3c-2.1-0.6-2.8-2.9-5-3.7c-2.6-0.9-5.6,0.1-7.9-1.7c-2-1.5-0.5-3.8-1.7-5.7c-2-3-2.9,1-3.9,2.4
		c-1.3,2.1-2.8,1.8-5.1,2.2c-7.3,1.3-12.7,3.8-17.7,9.4c-4.5,5-7.7,11-9.1,17.6c-1.3,6.1-4.7,9.3-9.3,13.2c-4.5,4-7.9,7-14.4,6.1
		c-2.9-0.5-6-0.7-7.2,2.6c-0.6,1.8-0.4,4.6-2.2,5.9c-4.5,3-8.4-4.1-11.6-4.9c-5.6-1.2-10.6,2.8-14.2,6.4c-1.8,1.8-3.8,3.5-5.6,5.1
		c-2.2,1.8-4.6,3.6-6.1,6c-1.7,2.9-3.1,5.8-5.3,8.3c-2.2,2.6-9.1,7-12.6,5c-1.4-0.8-1.9-7-4.4-5.2c-2.2,1.6,0.1,6.6-3.7,7.7
		c-3.6,1.1-6.9-4.8-8.9-6.8c-3-2.9-6.9-4.3-9.7-7.3c-2.9-3.1-5.1-7.4-7.3-11c-2.1-3.1-4.5-6.8-6.1-10.1c-1.3-3-2.4-8.2-1.8-11.4
		c0.4-3.2,3.7-3.9,4.8-6.5c1.4-3.2,0.4-7.6,0.1-11.1c-0.3-3.3,1-5.4,3.1-8c2.1-2.4,4.3-4.8,6.4-7.2c1.8-2.2,4-7,7.4-4.9
		c1.9,1.1,3.7,6.9,5.2,2.1c0.7-2.3,0-4.7,0.5-6.9c1.5-5.7,7.3,0.3,9.6-4.3c1.5-3,0.3-2.9-2-4.3c-2.5-1.4-3.9-3.8-4.9-6.3
		c-0.3-0.8-1.5-2-1-3c0.4-0.9,1.8-0.7,2.3-1.5c3.6-5-5.3-7.6-6.4-11.3c-0.6-2.1,1.6-5.3,2.6-7c1.4-2.3,2.2-4,2.9-6.7
		c0.5-2.4,2.6-5,2.4-7.4c-0.2-2.7-3.3-5.6-4.3-8.1c-0.9-2.1-0.7-6-1.9-7.6c-1.3-1.5-5.3-2.1-7-3.1c-2.1-1.3-3.9-3-4.9-5.3
		c-1.4-3.2-0.4-3.4,1.9-5.7c2.9-2.9,0.3-3.4-2-5.8c-2.1-2.1-3.5-5.3-5-7.9c-1.2-2.1-2.8-4.1-2.6-6.8c0.4-2.8,3.3-5,5.1-7
		c1.7-1.8,2.6-4.1,4.3-5.7c2.3-2.6,3-0.4,5.9-0.3c3.5,0.1,5.3-3.8,6.5-6.4c1.7-3.5,3.1-5.8,5.8-8.7c1.8-1.9,1.2-3,1-5.4
		c-0.7-5.7,6-2,8.5-5.8c3.4-5.1,5.8-12.2,10.8-16.1c3.9-3,10.5-1.6,14.7,0.2c5.9,2.7,11.4,2.6,18,2.3c2.5-0.1,5,0.2,6.8-2
		c1-1.2,1.7-3,2.7-4.2c1.1-1.4,2.6-2.3,3.7-3.6c2.4-3,4.1-6.4,5.3-10.1c0.8-2.3,2-4.7,2.6-7.1c0.7-3-0.6-3.7-2-6.1
		c-2.9-5.4-0.4-12.2,1.8-17.3c2.3-5.4,0.2-11.1,3.3-16.3c3-5,11.6-2.2,16.3-4.9c4.6-2.6,9-7.4,9.9-12.8c0.6-3.6-1.6-12.3,2.9-13.8
		c4-1.4,10.9,4.1,14.4,5.6c2.5,1,5.6,0.6,7.8-1c2.2-1.7,2.5-4.1-0.5-5.4c-2.7-1.1-5.9-0.2-8.6-1.1c-2.4-0.8-4.5-2.2-6.6-3.6
		c-4.5-2.9-10.7-2.5-15.9-1.9c-2.7,0.2-5.3,0.8-8.1,0.6c-2-0.2-5.5-0.1-7.3-1.3c-4.3-3.2-0.5-10-0.1-13.8c0.2-2.4,0.2-5.1-0.6-7.5
		c-1.4-4.2-4-7.4-4-12.1c0-4.3,2.3-8,5.4-10.9c5.4-5,8-10.5,9.2-17.7c1.2-6.4,1.6-13,2.4-19.4c0.3-2.2,1.1-4.2,1.6-6.5
		c0.8-4.8-1.8-9.8-4.4-13.5c-1-1.5-2.8-3.2-3.5-5c-1.1-2.7,0.1-5.4,1.5-7.8c1.7-2.9,3.2-6.2,3.6-9.6c0.3-3.2,2.1-6.7,1.5-9.8
		c-0.7-3.3-4.4-4.4-7-5.9c-2.6-1.5-4.6-4.1-7.5-4.9c-2.3-0.7-5.1-0.5-6.9-2.5c-1.1-1.2-2.1-4.2-2.9-5.6c-0.3-0.6-1.1-2-1.1-2.7
		c0-1.6,0.8-1.2,1.5-2.4c1.7-2.7-0.7-4.7-1.7-7.5c-1.6-4.7-1.8-9.9-1.5-14.8c0.1-2.5-0.1-5-0.1-7.6c-0.1-3.8,0-8.3,0.6-12
		c1.2-8,7.9-13.8,11.8-20.2c2.4-3.9,0.9-6.4,1.4-10.4c0.4-3.1,2.2-4.4,4.6-6.3c3.1-2.3,6.7-8.9,11-7c1.5,0.8,3.5,4.1,5.7,2.3
		c3.3-3-2.1-5.1-2.3-6.8c-0.4-2.5,4.5-4.4,6.4-4.8c3.3-0.7,3.2,3.3,5.5,2.5c-0.1-1.7-1-4.1-0.4-5.8c0.8-2.4,3.3-2.2,5.4-2.5
		c3.6-0.7,2.7-2.4,5.1-4.4c2.4-2.1,4.3,1,5,3.3c0.5,1.7-1.4,6,0,7.1c2.4,1.9,5.1-3.4,5.8-4.7c0.6-1.2,1.3-2.1,1.8-3.4
		c0.4-0.8,0.6-2.6,1.3-3.2c2.4-2.6,6.9,2.2,8.9,3.5c2.1,1.5,4.9,2.8,5.4,5.3c0.2,1.5-1,6.1,2.3,4.4c1.5-0.8,2-4.2,4.6-2.5
		c2,1.3,0.7,4.4,4,3.7c-0.1-1.4-0.4-3-0.5-4.4c1.4-1.1,4.1-0.2,5.3-1.2c0.9-0.7,0.1-4.6,2.6-3.2c1.8,1.1,1.1,3.7,3.2,4.6
		s4.5-0.7,6.7,0.7c2,1.3,2.2,3.3,2.2,5.5c-0.1,1.7-0.8,5,2.5,3.3c2.8-1.4,0.1-4.8,3.3-5.8c2-0.6,5-0.4,7-0.4c2.6,0,4.1,0.4,6,2.7
		c1.3,1.4,2.6,4.2,4.6,4.9c2,0.7,3.8-0.1,4.2-1.8c0.3-1.1-0.6-2.7,0.4-3.8c2.4-2.7,5.2,0.2,6.2,2.3c0.8,1.8,1.4,5.1,4.1,4.2
		c3.3-1.2-0.3-6,1.2-7.6c1.3-1.4,6-0.3,7.5,0c2,0.3,4.2,2.3,5.7,1.2c1.6-1.3,0.7-3.7,1.2-5.3c0.6-2.1,2.5-3.8,4.7-4.3
		c4.3-1.2,1.9,3.1,4.2,2.9c0.2,0,0.6-0.1,0.9-0.1c-0.4-2.2,0-3.4,2.1-4.2c3.1-1.4,5.2-1,6.6-4.6c0.7-1.8,0.2-2,2-3
		c3-1.8,7.5-2.2,11-2.6c3.2-0.4,7.6,0.2,10.5,1.9c2.5,1.5,2.8,4,5.6,4.9c2.4,0.8,6.5,1.2,8.6-0.3c0.8-0.5,1.2-1.6,1.9-2.1
		c1.2-0.8,3-0.6,4.4-1.1c3.9-1.4,5.8-4.2,7.8-7.5c2.9-4.7,7.1-7.5,12-9.4c2.5-0.9,5-1.6,7.3-2.8c2.6-1.2,4.5-3,7-4.5
		c5.3-3.5,11.7-4.1,18-4.9c4.3-0.6,7.8-0.4,11.8,1.1c3.4,1.4,7.8,0.8,11.4-0.5c3.6-1.3,7.2-3.6,10.3-5.7c2.9-2.1,5.3-4.4,8.3-6.4
		c2.6-1.7,5.3-3,7.7-4.8c1.6-1.3,4.4-4.8,6.6-4.8c1.8,0,3.9,3.1,5.4,3.7c5.5,2.6,5.8-3.5,9.9-5.4c2.2-1,3.1-1.4,5.1,0.1
		c1.7,1.2,2.8,2.9,4.9,3.5c2,0.5,4.5-0.7,5.8,1.3c1,1.4,0,5.2,1.2,6.2c1.1,0.9,4.8-0.4,6.1-0.1c2.5,0.4,5.1,1.9,6.5,3.7
		c4.3,5.3,3.8,12.7,5.6,19c1.4,5.1,1.7,10.9,2.3,16.1c0.7,5.4,1.9,10.6,2.6,15.9c0.5,4.1,1.2,8.1,1.1,12.2c0,2.8,0.1,6.4,1.4,8.8
		c3,5.7,8.7,9.8,13.2,14.3c1.4,1.4,3.2,3.5,3,5.7c-0.3,2.4-2.5,2.4-3.4,4.2c-1.7,3.4,2.7,2.3,4.6,2.4c1.9,0.1,5.9,1.3,6,3.8
		c0.2,2.6-4,2.3-3.6,5c0.5,2.7,5.1,3.3,6.9,5c3.3,3.3,4.5,9.3,7.1,13.1c3,4.2,6.5,6.4,10.3,9.7c3.7,3.3,7.9,7.6,12,10.1
		c2.9,1.7,9.5,1.9,9.9,6C307.8,963.2,305.5,965.9,304.6,968.4z M261.6,547.6c-1.9-0.1-13.1-1.4-12.4,2.5c0.5,2.9,7.6,0,7.3,6
		c0,3.4-4.5,8.8-5.9,12.1c-1.8,4.1-3.5,8.2-6.1,11.6c-2.9,3.9-7.2,4.4-10.2,7.5c-4.9,5,1.7,3.3,4.1,5.8c2.1,2.3-0.8,9.5-2.7,11.9
		c-2.9,3.7-3.5,0.6-6.7,0.4c-3.8-0.2-5.7,1.2-8.5,4.1c-2.6,2.8-2.5,1-0.2,4.2c1.6,2.3,4.7,1.8,3,5.9c-1,2.4-4.1,3.5-6.6,3.6
		c-5.7,0.4-8.2-7.5-11.7-11.7c-1.7-1.9-12.2-12.1-10.9-2.4c-5,1.3-9.2-8.4-11.3,1.6c-1.7,7.6,6.8,5.5,12.3,6c2.4,5.5-5,3.3-7.9,4.3
		c-4.4,1.4-3.8,2.9-3.2,7.5c1,7.3,4,17.2,1.7,24.2c-8.6,2.4-13.3-12.3-23.7-10c-13,2.9,3.4,13,8.5,15.3c6.1,2.7,18.4,6.3,11.4,15.1
		c-3.9,5-4.6,1.1-8.2-1.2c-4.2-2.7-7-0.9-3.7,3.1c1.3,1.5,3.7,1.7,4.9,3.2c1.6,2.3,0.2,1.9,0.1,4.6c-0.2,5.1,1.4,5.3,5.9,6
		c0.9,2.3-0.5,6.9-2.7,7.3c-1.5,0.2-6.3-3.8-8.2-4.5c-5.1-2.1-9.5-3.8-15.3-2.7c-0.5,8.2,12,10.9,18.5,13.1c6.6,2.3,13,4.8,19.5,7.3
		c4.4,1.7,10.4,4.9,15.4,4.6c-0.4,0.8-1.2,2.4-1.4,3.2c-0.5,4.3-1.3,9.8-5.8,9.7c-3-0.1-7.3-3.4-10-4.7c-8.6-4.1-17.9-7.3-27.1-10.1
		c-4.8-1.4-9.7-3.1-14.3-4.7c-6.7-2.4-2.4-4-6.2-8.1c-3.6-4-19.4-0.2-22.4,3.3c2.4,2.8,8.9,4.7,12.4,5.8c5.2,1.7,10.4,3.6,15.6,5.4
		c10.8,3.8,20.6,9.3,31.1,14c5.6,2.5,13,2.6,18.2,5.6c2.6,1.5,1.9,0.1,2.3,3.2c0.2,1.8-0.3,3-0.8,4.7c-2.3,7.6-10.5,10-17.3,6.3
		c-3.1-1.8-5.1-4.1-8.8-5.5c-3.8-1.4-7.7-2.2-11.4-3.8c-6.1-2.6-12-4.7-18.4-6.3c-11.2-2.9-23.2-2.4-33.7-6.9
		c-7.1-3-20.9-10.3-27.8-3c-6.9,7.3,3.7,14.8,10.5,10.7c1.4-0.9,0-3.1,3.1-2.8c1.3,0.2,2.8,3.2,4,4c3.1,2,6.6,0.9,10,2.1
		c-1.4,5.1-0.6,10.2,6.3,11.4c1.5,0.3,7-0.4,8.3-1.2c2.3-1.6,1.7-4.7,3.9-6c9.1-6.1,13.1,11.5,14,16.6c1.5,8.9,11.3,7.5,12.6,17.6
		c1.4,10.6-7.1,15.4-15.2,20.3c-4.7,2.9-9.4,4.6-14.1,7c-4.3,2.2-7.2,5-12.5,5.4c-4.9,0.4-6.4-1-10.7-2.8c-4.7-2-8.5-1.9-13.6-2.4
		c-5.1-0.7-17.9-11.6-19.4-1.2c-0.3,1.6,1.5,4,1.3,6c-0.1,1.7-1.2,2.9-1.7,4.4c-1.7,4.3-3,5.9-6.4,8.9c-9.1,7.8-19.3,10.1-31.1,11.6
		c-5.4,0.7-11,1.4-16.6,2.2c-3.9,0.5-10.1,0.1-13.4,2.2c-3,2-3.3,6.9-6.9,8.4c-3.8,1.5-9-1.4-11.3-4.2c-3.7-4.6-1.5-7.1-0.2-11.6
		c1.3-4,0.3-8,1.3-12.1c1.5-5.5,4.5-10.5,6.6-15.8c0.8-2,2.2-4.3,2.8-6c0.5-1.6,0.1-3.9,1.1-5.3c1.9-2.9,4.7-0.7,7-2.5
		c3.1-2.2,4-10,6.3-13.5c1.5-2.1,3.7-3,2.9-6c-0.7-2.7-3-1.2-3-4.3c0-3.4,5.5-8.9,6.4-12.5c3.4-1.5,2.8,1.9,5,2.5
		c9.7,2.6,2-16.3,1.9-20.3c0.1-8.7,10.7-14.5,15.3-21.7c5.2-8.3,7.9-19,9.6-28.1c0.5-2.6,10.7-19.6,1.1-17.6
		c-1.8-3.5-1.5-7.3,0.6-10.3c2.3-3.4,8.3-3.1,9.8-6c2.6-4.8-5-4.8-5.6-7.8c-0.6-2.7,3-6.3,4.4-8.6c3.5-6.2,3.4-13.3,9.6-17.6
		c3.7-2.7,11.6-6.8,11.5-12.1c0-6.6-9.7-2.3-12.2-8.9c-2-5,1.8-10.8-0.4-15.9c-1.7-3.7-6.8-5.9-3.6-10.2c1.1-1.6,3.7-1,4.2-3.4
		c0.7-3.1-2.6-3.3-2.8-4.3c-1.3-6.1,7.6-14.9,11.2-19.3c5.1-6.2,11.8-7.9,12.7-16.8c1.1-10.9-4-21.3-1.9-31.8
		c2-9.9,5.4-19.6,11.8-27.5c5.3-6.5,8.7-10.4,16.2-14.3c1.6-0.8,3.2-1.6,4.8-2.3c5.5-2.8,10.7-5.5,14.2-10.9
		c4.8-7.4,9.7-16.3,5.5-25.1c-1.2-2.6-4.3-6.2-7-7.6c-4.1-2.1-8.6,0.4-12.9,1.7c-7,2-20.2,6-27,2.6c-7.1-3.8-5-14.6-4.6-21.2
		c0.5-7.9,6.2-14.4,6.2-22.2c0.1-3.3-0.7-5.3-0.1-8.5c0.6-3.8,1.8-7.1,1.9-11c0.1-6.6-1.6-14.8-4.6-20.5c-3.6-6.7-5.8-9.6-5.4-17.2
		c1.1-17.5,15.2-30.5,22.7-46.1c3.5-7.3,3.6-11.4,11.5-15.2c3-1.3,8.6-2.7,6.1-6.9c-1.5-2.6-8.3-4-10.8-5.2
		c-2.4-5.2,7.8-6.8,10.7-8.3c4.5-2.2,7.4-4.9,10.4-9.4c6.3-9.5,7.9-18.5,19.1-23.7c8.4-3.9,17-8,25.9-10.6c10.1-2.9,21-2.5,30.5-7
		c12.7-6,19.5-18.1,20.3-32c0.3-5.7,1.6-13.4-0.6-18.7c-2.8-6.5-8.7-11.3-13.1-16.6c-5.9-7.1-3.1-14.9,0.3-22.8
		c2.9-6.4,10.5-12.7,10.6-20.1c0.1-7.5-5.6-11.4-8.1-17.5c-0.3-0.8-0.6-1.6-0.7-2.6c-0.8-4.1,0.9-6.2,1.1-10c0.2-3.8-1.6-7.5-1-11.2
		c3.7,1,7.8,10.1,10.3,13.2c4.8,6.2,10.1,10.1,18.7,10.2c8.1,0,17.7-0.7,22.1-7.8c2.4-3.9,3.8-8.9,4.6-13.9c0.7-4.7,1-9.5,1.2-13.8
		c0.2-4.6-1-9.3-1-13.8c0-4.8,1.1-9.3,1.6-13.9c0.8-7.6,3.4-14.5,2.2-21.8c-1.3-7.8,4.9-11.7,10.1-17.3c3.3-3.4,3.1-5.5,3.8-10
		c0.4-4,2.4-7.2,4.8-10.5c4-5.7,9.1-11.6,6.8-19c-5.8,5.3-7.2,13.3-14,17.9c-8.2,5.5-21.6,8.7-16.8,20.8c2,5.2,2.7,6.1,0.9,11.6
		c-1.6,5-2.2,9.9-2.5,15.4c-0.6,12.9-2.5,25.2-1.5,38.2c0.3,4.4,0.7,10.2,0,15.6c-0.7,5.5-2.7,10.3-7,12.8c-7.1,4-19.8,5.7-25.9-0.4
		c-3.3-3.3-5.3-7.3-7.9-11c-2.5-3.6-5.9-4.4-9-7c-4.1-3.4-6.1-12.9-5.6-19.6c0.1-1.2,0.3-2.3,0.5-3.3c1.3-4.3,2.6-6.6,0.5-11.2
		c-3-6.2-10.7-8.3-13.8-14.2c-2.4-4.6-0.4-10.4-2.6-15.2c-3.4-7.5-8-13.7-11-21.5c-2.4-6.7,1.5-14.5,1.5-21.4
		c0.8-12.5-12.7-4.8-15-12.8c-1.1-3.5,4.5-7.6,6.4-10.1c2.2-3.3,4-6.9,5.6-10.6c1.4-3.3,2.5-6.6,2.4-10.3c-0.1-5-2.2-5.5-6-7.4
		c-3.7-1.8-6.2-2.6-7.2-6.9c-0.6-2.7-1-7.8,0.1-10.2c1.3-2.7,5.6-4.5,7.6-6.2c4.3-3.7,1.8-5.3,2.8-10.2c0.4-2.1,1.6-2.7,1.7-5
		c0.1-1.9-0.8-4-0.8-6c0-4,1.7-7.3,3.1-11.2c3.1-8,6.5-14.9,10.9-22.5c1.6-2.6,4.3-5.7,4.9-8.7c0.7-4.4-1.8-9.9-4.1-13.2
		c-4.7-6.8-12.5-11-17-18c-6.4,8.4,6.4,13,11.1,16.8c7.1,5.7,1.6,15-1.7,21c-4.7,8.8-8,17.6-10.2,27.6c-1.8,7.7-1.7,16.7-6.2,23.3
		c-2.6,3.8-6.3,7-8.8,11c-2.4,4-1.6,7.4-0.5,11.9c0.8,3.6,1.9,10,4.6,12c2.8,2,7.6,0.9,10.9,1.6c-2.1,8-5.4,13.6-12.6,18.8
		c-4.4,3.3-6.7,5.5-5.6,11.7c1.4,6.8,5.3,7.7,11.1,9.4c4,1.2,8.9,2.9,6.6,8c-2.2,4.7-3,4.6-2.5,10.4c0.5,4.9,0.8,9.6,2,14.3
		c1.6,5.5,5.7,8.8,9.2,13.4c5.6,7.6,2.7,17,7.2,24.7c2.3,4.1,6.6,3.7,9.5,6.8c2.7,2.9,2.1,6.9,2,10.7c0,0.7-0.1,1.5-0.1,2.1
		c-0.7,8.5-4,16.5-3.4,25.6c0.6,8.6,4.8,16.2,8.2,23.8c3.1,6.9,5.4,14.1,3.8,22c-2,10.2-12.6,10.5-16,19.5
		c-5.6,14.6,13.8,28.4,19.6,39.3c3.5,6.4,0,16.8-1.8,23.2c-2.1,7.2-7.5,14.2-15.2,16.1c-18.1,4.4-37.9,2.7-54.3,11.3
		c-10.4,5.4-17.1,14.9-22.2,25.3c-4.9,9.8-9.1,10.6-18.9,14c-10.3,3.5-11.2,17.7-13.1,27c-1.6,7.8-4.6,17.2-7.9,24.5
		c-2.7,6.1-9.9,10.1-13,16.8c-4.7,10.4-5.1,21.2-1.9,32.3c2.7,9.5,10.3,15.3,10,26c-0.2,9.6-1,20.1-3.7,29.7
		c-1.4,5.1-3.6,9.9-5.3,14.8c-2.6,7.7-0.9,9.6,3.2,16.4c5.4,8.9,16.9,14.3,27.4,12.1c7.5-1.6,20.9-7.4,24.3,2.5
		c2.9,8.8-4,14.2-10.3,18.7c-1.7,1.2-3.3,2.2-5,3.1c-2.9,1.5-5.9,2.6-9.2,3.5c-10.7,3.1-18,6.2-24.6,15.5
		c-5.5,7.7-8.3,16.8-8.6,26.1c-0.2,5.6-0.5,11-0.1,16.5c0.4,5.2,2.1,10.4,1,15.6c-1,4.5-10,21-15.7,20.1c-4.1-0.8-5.7-5.9-10.5-3.9
		c-3.7,1.4-4.2,6.7-6,9.7c-6.2,10.4-11.9-0.9-15.6-6.3c-5.2-7.6-4.4-13.6-4.6-22.5c-0.2-8.2-2.6-16-1.8-23.9c0-0.6,0.1-1.2,0.3-1.7
		c1.3-7.6,4.5-17.5,0.8-25c-2.9-6-10.8-13.3-17.3-14.6c-9.3-1.8-23.3,2.3-32.1,5c-5.1,1.6-9.6,4.5-14.4,6.6
		c-3.9,1.7-10.1,3.8-13.2,7c-4.5,4.6-4,10.9-6.5,15.8c-0.7,1.7-1.9,3.1-3.7,4.2c-6.1,4.2-14.7,5.2-22.2,6.1
		c-9.6,1.2-14.8,0.1-20.2-8.2c-4.3-6.5-10.6-13.4-13.3-20.9c-2.9-8.5-3.4-20.4-3.7-29.2c-0.1-4.7-0.2-8.6,0.6-13.1
		c3.2-18.1,10.3-33.7,17.1-50.7c4.4-10.8,6.5-21.8,10-33.3c3.5-11.6,6.7-23.4,10.2-34.9c3.6-11.3,7.6-22.9,9.2-34.5
		c1.2-9.2,5.5-17,7.2-25.7c0.7-3.7-0.7-7.6-2.8-10.6c-2.7-4-3.4-5.1-4.1-10.3c-0.4-3.4-2.8-7.7-2.4-11c0.5-3.6,4.2-5,5.4-8.3
		c2.1-5.9-1.1-21.3-7.7-23.9c-2.1,3.9-1,9.6-0.9,14.3c0.2,4.9-1.6,9.8-1.8,14.4c-0.4,10.8,5.4,17.7,8.1,27.1
		c2.2,7.7-2.9,14.9-5.3,21.7c-3.4,9.1-4.9,18.4-7,27.9c-2.6,14.3-5.5,28-12.1,41.3c-4.9,9.8-10.9,18-12.6,28.9
		c-1.8,12-7.9,23.8-11.1,35.7c-2.2,7.5-3.9,15.5-5.4,23.3c-1.1,5.6-3.4,11.1-3.2,16.9c0.2,4.9,0.9,10.2,1.4,15.1
		c1.3,10.8,4.1,22.2,10.4,31.2c3.4,4.7,6.7,9.6,9.9,14.2c2.5,3.6,3.9,6.8,8.1,8.3c8.6,3,19.7-0.3,28.5-1.9c3.3-0.5,8.5-0.1,11.2-1.9
		c4-2.7,5.6-7.7,7.4-12.4c1.3-3.7,2.8-7.2,5.8-9.4c11.4-8.5,27.8-9.8,41.1-14c6.7-2.2,15.8-4.6,22.1-0.1c6.1,4.5,6.8,17.9,6,24.8
		c-0.2,1.8-0.4,3.5-0.5,5.4c-0.8,9.5-0.7,19-2.1,28.3c-1.4,10.2-2.8,20.3-1.7,30.9c0.7,6.4,3,12.8,4.4,19c1.4,6.1,4.6,11.2,7,16.7
		c2.7,6.3,1.7,13.2,0,19.6c-1.5,6.6-1.6,13.8-4.6,20.2c-3.1,6.7-8.1,12.5-11.8,19.1c-2.9,5.2-5.9,13.8-10.9,17.3
		c-0.1-0.1-0.1-0.2-0.3-0.3c-2.3-0.4-4.6-7.8-5.8-9.6c-2-3.1-4.6-7-7.2-9.4c-5.7-5.3-14.9-5.3-22-8.9c-7.6-3.9-17.7-10.3-26.7-9.2
		c-5.8,0.8-4.8,4.7-1.4,7.2c2.9,2.1,7.7,3.3,11.1,4.9c5.1,2.3,10.6,4.8,16,5.8c4.2,0.9,9.5,0.7,12.9,3c3.2,2.2,5.2,7.3,8.1,9.9
		c4,3.6,7.2,3.8,5.8,9.5c-2.4,9.6-9.4,18-12.8,27.1c-2.1,5.7-2.8,4.3-7.5,1.6c-4.3-2.7-8.8-4.9-13.3-7.7
		c-7.3-4.6-15.1-8.5-22.2-13.3c-2.5-1.7-6.2-5-9.6-3.3c-4.5,2.3-2.8,6.9-0.3,9.4c3.7,3.6,8.1,5.6,12.2,8.6
		c4.8,3.6,9.4,7.8,14.6,11.2c5.2,3.5,10.1,5.5,15.9,7.9c5.5,2.2,10.6,6,16.1,7.9c3.2,9-6,18.2-10.1,25c-2.3,3.8-3.1,10.6-7.1,13
		c-4.9,2.9-10.2-1.8-15.3-2c-19.8-0.8-7.1,30.4-21.5,33.8c-5.4,1.3-14.6-6.8-19-9.4c-6.7-4.1-14.4-11.6-22.4-11.5
		c-13.7,0.1,4.2,9.8,7.3,11.8c6.7,4.2,12.8,9.9,20.7,11.4c1.6,0.3,4.6-0.8,5.7,1.1c1.1,1.7-1.3,3.5-0.6,5.3c1.8,3.6,11,0.7,8.5,7.4
		c-1.5,3.9-7.5,2.4-10.4,4.1c-3.1,1.7-4.3,6.1-5.8,8.9c-1.9,3.2-3,8.7-5.3,11.4c-3.5,4.2-9.8,2.6-14.3,4.1c-3.6,1.3-6.4,5.5-9.3,7.9
		c-3.6,2.9-6.5,5.7-11,7.1c-4,1.2-7.1,0.9-10.3,4c-3.7,3.4-3.5,5.5-7.8,1.1c-2.9-3-4.6-4.7-8.9-1.1c-2.5,2-4.6,5.6-7.1,7.9
		c-2.5,2.2-5.8,4.6-9.8,4c-4.9-0.7-4.4-4.4-6.3-8.1c-3.9-7.7-11.7-8.8-19.1-11.2c-10.8-3.6-3.9-9.6-6.2-18.3c-1.2-4.8-4.5-4-6.8-8
		c-1.7-2.9-0.3-7.8,0.7-10.4c1.5-4.2,2.2-5.1-1.9-8.3c-3.5-2.7-6.3-2.5-10.7-1.7c-8.6,1.5-13.8-3.3-17-11.4
		c-1.4-3.5-2.2-7.3-3.7-10.8c-2.1-5.4-0.2-4.7,1.5-9.6c1.3-3.7-7.6-18.7-12.2-17.2c2.3,5,9.2,7.9,9.7,13.8c0.3,3.3-1.9,3.1-2.6,5.9
		c-0.5,2,0.4,2.7,1,4.7c1.4,4,2.9,8.2,4.5,12.1c1.8,4.7,2.6,10.4,6.7,13.8c3.9,3.2,8.1,1.5,12.8,1.1c3.6-0.2,8.4-0.4,9.4,3.9
		c1,4-3.6,7.4-2.2,12.1c1.4,4.2,5.7,4.1,7.6,7.8c2.1,3.9-0.5,8.2-0.4,12c0.3,8.9,11.7,10.4,18.4,13.5c4.9,2.3,5.5,2.4,7,7.6
		c1.1,3.8,2.3,7.2,6.6,8.5c3,1,8.9,0.5,12.2-0.6c4.8-1.7,4.2-5.2,7.8-8.6c2.8-2.5,6-3.1,9.2-0.2c2.2,1.9,2.4,1.1,0.6,3.8
		c-5.1,7.8-14.1,8.3-14.4,19.6c-0.2,6.2-2.3,16.3-8.8,19.5c-6.4,3.4-12.8-4.9-18.9-1.4c-6.4,3.8-4.6,11.9-6.5,17.8
		c-2.7,8.5-8,14-16.3,6.3c-2.1-1.9-3.8-7.7-7.1-7.6c-3.4,0.1-4.8,5.9-6,8.4c-1.3,2.6-2.5,8.4-6.1,7.9c-2.3-0.4-5.9-7.5-7.2-9.4
		c-4.3-6.3-7-12.9-14.1-16.7c-7.2-3.9-14.5-6.8-21.8-10.6c-3.1-1.6-10.5-3.1-5.6,2.1c2.9,3.1,10.1,2.7,13.8,4.5
		c3.7,1.8,5.2,4.5,7.8,7.9c2.6,3.6,5.7,6,9,8.7c3.5,3,7.6,5.9,9.8,10c2.1,3.8,0.9,10,3.6,13.1c9.7-0.2,12.7-18.3,23.9-11.5
		c4.2,2.5,5.7,5.3,11.6,3.2c4.4-1.5,6.5-5.3,8.2-9.4c1.8-4.4,1.2-9.4,3.3-13.7c1.3-2.6,7.4-7.2,10.7-5.2c3.2,1.9,0.7,10.4-0.2,13.4
		c-1.5,5.7-5.7,9.9-7.3,15.4c-2.9,9.4,8.5,10.1,6.1,19.3c-5.6,2.2-7.6-4.9-13.4-3.3c-5.2,1.4-9,5.6-11.4,10.4c-1.1,2.3-1,5.9-5,5.2
		c-1.3-0.2-3.1-6.3-5.5-3.5c-4,4.7,4.8,10,8.9,9.2c5.7-1.1,6.6-8.2,10.9-11.3c3.8-2.8,6.6-1.7,10.6-1.4c3.6,0.2,10.5-1.3,10.5,4.8
		c0,1.7-2.3,3.4-2.8,5.1c-0.5,1.6-0.5,4.5-0.5,6.2c0.3,8.9,2.3,18,3.5,26.9c1.2,8.9-3,15.6,6.9,19.7c5,2.1,5.3,3.4,8.4,7.4
		c2.5,3.2,5.9,3.8,4.5,9.3c-1.7,7-5.9,13.9-6.8,21.1c-3.1-2.8-4.9-6.8-9.2-9.5c-2.1-1.3-4-2.7-6.1-3.8c-1.6-0.9-4.7-1-5.9-1.9
		c-3.9-2.6-1.1-7.4-4.2-10.6c-1.7-1.7-5.3-1.1-6.4-2.9c-0.2-0.3-0.2-0.7-0.1-1.1c0.2-1.5,1.1-3.6,0.8-5.2c-3.3-13.3-12.6,3.9-15.1,7
		c-4.3,5.6-14.3,8.6-20.7,11.6c-8.1,3.9-15.5,4.8-22.5-1.3c-3.7-3.1-10.1-14.6-16.2-12c-3.3,1.4-3.3,7.3-6,9.3
		c-2.7,2-9.7,1.9-13.2,2.2c-5.4,0.5-24.1-4.3-27.6,1.2c-0.4,0.7-0.5,1.1-0.4,1.5l-4.8,0.6L-476.5-185.9l956-124.6
		c-0.8,9.5-3.2,18.5-5.7,27.6c-2.6,9.5-4.2,19.3-5.5,29.1c-1.3,9.7,0.1,19.6-1,29.1c-2.8,21.9-12.6,43.5-17.3,65
		c-2,9.5-2.4,19.3-4.8,28.7c-2.7,10.5-5.7,20.6-8.6,31.2c-2,7.6-10.4,20.8-7.9,28.7c1,3.2,4.6,5.4,2.9,9.6
		c-2.1,5.3-8.8,1.5-10.2,7.5c-1.9,7.8,1.5,16.4,0.4,24.4c-1.2,8.6-6.5,17.6-9.9,25.4c-1.9,4.5-5,8-8.5,11.2c-2,1.9-6.7,4.1-6.9,7.2
		c-0.6,6.3,7.5,2.2,7.9,6.1c0.2,1.5-7.7,6.3-9,8.3c-2.8,4.2-2.6,6.5,0.8,9.8c4,3.9,3.8,3.6,2.1,9c-2.9,9.2-4,18.9-7.9,28.3
		c-1.7,4.2-2.7,8.8-4.1,12.8c-1.6,5-4.5,8.6-6.7,13.1c-1.8,3.8-0.6,7.4-2.4,11c-1.8,3.5-4.8,6.3-7.1,9.6c-1.8,2.6-5.1,6.8-2.2,9.8
		c3,3,9-0.9,6.8,5.1c-1.6,4.4-6.1,2.4-9.1,4.9c-1.2,1-3.1,2.8-1.8,4.9c1,1.5,2.9,0.1,4.2,1c4.5,2.8,0.5,4.6-3.3,6
		c-4.5,1.5-5.2,2-7.2,6.6c-3.1,6.9-20.7,34.2-6.5,36.7c0.3,2.2-1,3.5-1.7,5.6c-0.4,1.4-0.2,3.4-0.6,5.4c-1.5,6.3-5.2,0.7-9.1,3
		c-2.6,1.5-2.7,7-4.3,9.6c-1.8,2.9-6.6,5.4-5.9,9.2c0.4,2.1,3.4,1.8,3.3,4.3c0,0.7-2.7,3.4-3.3,4c-2.1,3-4.2,6.9-5.6,10.4
		c-1.5,3.6-2.7,7.2-4.4,10.8c-1.8,3.7-5,6.6-4.1,10.9c0.6,2.6,2.8,1.1,1.7,4.5c-0.8,2.4-1.5,2-3.5,2.7c-2.9,1.1-11.2-0.1-5.6,4.1
		c1.6,1.2,10.5,3.3,3.9,5.1c-4.1,1.1-7.7-4.5-11.6-1.9c2.4,2.1,5.1,3.8,7.5,6c-1.7,3.4,0.6,5.7-1.6,9.2c-1.5,2.5-4.8,3.8-7,5.7
		c-6.7,6-2.7,15.3-5.1,23c-0.9,2.6-3.6,4.1-5.1,6.1c-4.9,6.2-3.2,9.4,4.4,9.8c0.1,4.3-7.2,2.3-7.9,6.4c1.9,0,3.7,0.1,5.6,0.4
		c0.3,4.5-7.4,1.9-7,6.3c1.5,0.4,3.1,0.6,4.6,0.5c1.1,5.6-10.4,5.1-13.7,6.4c-4.1,1.6-5.3,4.2-0.6,6.2c3.4,1.5,8-1,11.9,0.6
		c3.7,1.7,5.6,6.4,3.2,9.6c-1,1.3-3,0.8-4.3,2.4c-0.9,1.3-0.8,3.8-1.2,5.3c-3,9.4,2.4,14,5.4,22.9c1.4,4.4,2,8-0.1,11.6
		c-2.3,3.9-7.5,6.3-9,10.3c4.4,0.7,11.1,2.9,8.7,8.5c-2.1,5.1-4.1,8.8-8.2,12.5c-1.7,1.5-4.6,2.9-2.1,5c0.7,0.6,3.1-1,4.2-0.1
		c1.9,1.6-0.2,1.8,0.2,2.7c0.5,1,0.1,2,1,3.2c0.3,0.4,2.4,0.9,2.9,1.3c3.1,2.2,4.5,3.3,2.8,6.5c-1.9,3.2-6.9,3.7-10.3,4.2
		c-4.1,0.8-8.4,3.3-2.7,4.6c4,0.9,7.2-0.5,11,2.1c2.9,1.9,3.7,6.3-1.4,7c-4,0.6-6.4-4.2-10.9-0.6c-4.6,3.7-0.7,6,3.6,5.8
		c2.4-0.1,9.5-2.2,9.2,2.1c-0.3,3.4-7.1,1.9-8.9,4.4c1.9,1.4,11.6,0.8,4.5,4.9c-3.6,2-9.1-0.3-10.6,4.7c4.1,1.6,8.5-1.1,12.3,0.2
		c5.3,1.7,3.2,5.1-0.5,6.9c-5.3,2.5-5.1,2.2-6.4,7.8c-0.8,3.7-2.8,8.4-6.8,9.8c-3.1,1-8.5,0.4-11.5-0.3c-5.5-1.2-3.6-3.6-6.9-6.8
		c-4.8-4.8-4.7,1.6-6.1,4.2c-2.2,4.4-7.8,0.8-9.9,3.6c-2.5,3.6,16.2,4.5,18.9,4.5c4.3-0.1,25.2-3.3,25,3.7
		C275.6,547.3,268.1,548.1,261.6,547.6z M1261.3,338.7l-62.6,33.1l17,43.5l18.6,128.8l-5.1,13.5l4.6,35.1c1.6,2.3,2.1-1.7,2.6,4
		c0.2,2.1-1.1,2.9-2,4.6c-1.2,2.1,0.1,4.3,1.2,6.2c1.1,1.9,2.8,4.2,4.5,5.6c1.7,1.3,2,3.2,3.6,4.8c1.5,1.5,3.2,1.5,3.2,4
		c0,1.1-0.5,1.9-0.6,3c-0.1,1.3,0.4,3.1,0.6,4.4c0.3,2.4,0.9,5.1,2.2,7c0.9,1.4,2.3,2,1.8,4c-0.4,1.6-2.7,2.4-3.8,3.5
		c-1.9,1.9-3.8,2.3-6.4,3.1c-3.2,1-5.8,2.6-8.8,4.2c-4.6,2.4-10,2.5-14.5,5c-3.9,2.2-7.2,5.4-8.6,9.8l1.4,0.9
		c-0.3,0.3-0.6,0.6-1,0.8c-4.9,4.2-3.2,11.7-2.4,17.4c0.4,3.4,0.9,7.2,0.2,10.4c-0.5,2-1.4,3.9-3,5.4c-1.6,1.5-4.7,4.6-7,4.6
		c-2.2,0-2.5-3.5-3-5.4c-1.4-4.5-2.2-8.3-6.3-11.3c-2-1.4-4.2-2.5-6.2-4c-2.3-1.6-4.4-3.5-6.5-5.3c-2.9-2.5-5.1-5-8.8-4.7
		c-1-1.1-1.7-2.8-2.4-4c-1-1.5-2.2-3-3.7-4.1c-2.4-1.9-3.5-4.4-5.6-6.6c-2.4-2.5-5.6-3.6-8.5-5.3c-3-1.8-6.2-3-9.3-4.6
		c-2.6-1.2-4.7-2.8-7.6-3.1c-3.4-0.3-7.3,0.2-10.6-1c-2.4-1-4.4-3.6-6.5-5.3c-2.8-2.3-6.1-3.7-9.7-4.6c-3.3-1-6.7-0.9-9.9-2
		c-2.9-0.9-5.4-2.9-8.1-4.2c-3.5-1.6-7-3.2-10.6-4.6c-7.3-2.8-16.2-4-24.1-3.7c-4.7,0.1-9.3-0.4-14-0.3c-4.4,0.1-9.1-0.7-13.4-0.4
		c-2.9,0.3-5.8,0.6-8.5,1.8c-2.2,0.9-4.5,1.8-6.5,2.8c-5,2.6-5.1,5.8-4.9,11c0.1,2.9,0.6,8.2-3.6,8.1c-2.8-0.1-5.9-1-7.7-3.6
		c-1.7-2.6-0.7-4.6-4.6-4c-3.8,0.6-7.6,1.9-11.4,2c-2.3,0.1-4.4-0.6-6.6-0.8c-1.2-0.1-2.3-0.1-3.5,0.1c-0.9,0.1-1.9,0.2-2.8,0.4
		c-6.2,0.8-12.6,2.2-18.7,2.1c-3.3-0.1-5.8-0.4-8.7-2c-2.2-1.2-4.9-2.7-7.5-2.3c0.3,3.9,2.1,7.4,3.7,10.9c1.5,3.4,3.9,6.5,5.5,9.8
		c1.6,3,2.9,6.5,4.3,9.7c2.3,5.8,6.1,11.7,7,17.9c0.6,3.4-1.2,5.8-2.7,8.7l-0.3,0.4c-2-1.5-3.9-2.9-5-5.4c-1.8-3.7-4-7.3-5.9-10.8
		c-2.2-3.9-1-9.6-3.4-13.2c-2-3-2.6,1.1-2.5,3.1c0.2,2.7,1.3,5.1,2.2,7.5c2.3,5.7,5.5,10.6,5.9,16.9c0.4,6.1-4,3.5-7,7.3
		c-3.3,4.2,6,3.8,7.9,1.3c1-1.3,2-5.1,3.5-1.4c0.8,1.8,0.1,3.6-1.6,4.2c-0.8,0.3-1.9,0.2-2.7,0.6c-0.7,0.2-1.6,0.9-2.2,1.3
		c-1.8,0.6-4.1,0.7-5.9-0.1c-3.7-1.6-4.7-6.4-5.8-10.1c-1.2-4-2-7.9-3.6-11.8c-1.5-3.4-2.7-7-5.1-10.2c-1.3-1.8-2.4-2.7-2.8-4.8
		c-0.5-2.9-1-6.1-1.2-9c0-2,0.6-4.5,0.1-6.5c-0.8-2.7-2.9-2.3-3.4,0.4c-0.6,2.2,0.6,5.5,1.2,7.5c1.2,4,2.4,8.2,3.5,12.3
		c2.3,8.2,4.7,15.9,7.9,23.6c1.5,3.9,2.1,7.8,3.5,11.4c0.6,1.8,0.8,4,0.5,5.9c-0.2,1.8-0.7,1.9-1.9,3.5c-1,1.3-1.3,2.7-1.7,4.3
		c-0.4,1.5-0.2,3-2,3.3c-1.4,0.3-2.3-0.9-3.2-1.7c-1.9-1.7-3.5-3.9-6.4-3.6c-3.2,0.3-6.2,2.4-9,3.8c-3.9,2.1-7.1,5.7-11.6,2.6
		c-3.6-2.5-7.6-5.7-10.1-9.3c-3.4-4.5-0.1-7.4,3.5-10.3c2.3-1.7,3.4-2.8,2.3-5.7c-0.9-2.3-2.2-3.3-4.4-1.8c-1.7,1.2-2.1,3.5-3.3,4.9
		c-1.6,1.7-2.9,1.1-4.9,0.3c-3.8-1.5-4.9-4.5-7.7-7.2c-4.6-4.6-12.5-12.1-19.6-12.2c-1.1-2.1,0.1-4.8-2.8-5.9
		c-0.9-0.4-3.7-0.5-4.3-1.3c-0.5-1.1,1.5-2.6,2.2-3.1c1.4-0.9,3.4-1,4.8-2.1c1.2-0.9,2-2.5,3-3.6c0.9-0.8,1.6-1.4,2.5-1.8
		c-1,0.3-1.8,1-2.7,1.8c-1.1,1.1-1.8,2.8-3,3.6c-1.4,1-3.3,1.2-4.8,2.1c-0.8,0.5-2.9,1.9-2.2,3.1c0.5,0.9,3.4,1,4.3,1.3
		c2.9,1.1,1.7,3.7,2.8,5.9c-0.7,0-1.3-0.1-2,0.1c-0.3,3.9,7.4,4.9,9.6,6.3c4.2,2.5,7.9,8.8,9,13.5c0.4,2.2-0.5,3.7-0.4,5.8
		c0.1,2.3,0.8,4.5,1.1,6.6c0.3,2.4,1.1,6-0.1,8.2c-1.1,2.1-3.8,3.1-5.9,3.8c-2.4,0.8-3.6,1.3-5.3,3.1c-1.9,1.9-2.3,2-4-0.4
		c-2.5-3.3-1.3-7.5-3.5-10.9c-1.4-2.1-5.9-8.6-8.7-8.3c1.8,3,5.4,6.2,6,9.7c0.7,4.4-1.6,6.5-4.7,9c-1.3,1.1-2.5,2.7-4.3,2.7
		c-2.3,0.1-3.5-2.3-4.9-3.8c-2.2-2.5-7.4-6.7-11.1-5.5c-0.1,3.5,3.1,7.4,4.8,10.2c2.6,4.5,5.3,6.9,9.2,10c3,2.4,8.1,4.7,9.3,8.7
		c1.7,5.4-7.8,8.8-10.4,12.3c-1.1,1.5-1.9,7-3.2,7.4c-1.2,0.4-6.4-4.1-7.6-4.9c-4.5-3.4-9-6.2-13.8-8.8c1.3,2.6,3.5,5.4,5.5,7.2
		c2.2,1.9,6,2.9,7.3,5.4c1.6,3.2,1.3,7.1-2.7,6.2c-4.2-0.8-4.7-4.1-7.9,0.1c-3.1,4.1-5,8.6-5.3,13.7c-0.1,1,0.4,4-0.5,4.8
		c-1.3,1-3.2-1.2-3.5-1c-1.8,1.3-2.5,4.1-3.9,5.8c-1.9,2.2-3.6,10.2-6.2,10.7c-3.2,0.4-5.4-3.6-7.1,0.9c-1,2.7,1,6.6,1.3,9.3
		c0.4,3.3,0.4,6.9-3.5,8.5c-4.1,1.6-4.3-1.8-6.6-4.2c-2.5-2.6-6.7-3.3-9.8-1.1c-3.3,2.4-1.2,4.7,0.9,7.7c4.4,6,8.9,12.2,14.1,17.7
		c4.6,5.1,8,10.7,12.6,15.8c3.8,4.1,9.5,9.1,0.3,10.3c-3.4,0.4-6.7,0.5-9.6,2.2c-3.4,1.9-5.5,5.2-8.2,7.8c-2.5,2.2-6.7,3.8-8.4,6.7
		c-1.6,2.8-0.5,6.6,3.2,6.3c2.9-0.1,5.3-3.9,8.5-4.6c5.7-1.2,11.8-1.5,17.6-2.3c3.5-0.5,8.9-1.8,11.8,0.6c3.7,3.3,3.7,9.6,5.5,14
		c2.5,5.7,6.3,10.6,9.3,16.1c4.4,8.2,7.7,17.2,12.4,25.3c2.5,4.2,4.8,8.5,6.7,13c1.7,3.7,4.2,7,4.2,11.4c0.2,6.1-8.5,8.8-13.4,11.4
		c-8.1,4.3-16.6,6.4-24.7,10.9c-5.7,3.3-13,12.2-19.1,7.5c-2.5-2-4.2-4.5-6.7-6.3c-3.2-2.5-6.9-3.1-10.6-4.1
		c-2.9-0.8-11-2.3-9.8-6.9c0.9-3.4,6-2.3,8-1.2c3.2,1.7,4.1,4.9,8,5.1c2.9,0.2,6-0.7,7.2-3.5c3.5-8.5-5.7-10.4-9.1-15.5
		c-1.8-2.8-0.9-8.9-4.7-9.4c-3.1-0.4-4.6,3.4-6.7,5.1c-7.9,6.6-8.2-6.3-14.5-3.6c0.3,2.9,5,3.1,4.6,6.4c-3,1.2-3.9,2.2-5.9,4.7
		c-1.9,2.4-4.3,4.7-7.2,2.6c-1.3-0.9-3-6.2-5.6-3.2c-1.5,1.8,0.9,5.9,1.9,7.2c3.3,4.1,9.2,4.7,5.7,11.2c-3.6,7.1-7.2-0.9-12.2,0.6
		c0.1,1.8,0.5,3.7,0.6,5.5c-3.4,0.9-6.1-1-9.1-2.1c-4.6-1.7-9.1-3.4-13.6-4.8c-7.6-2.4-18.1-7.9-24.2-0.8c-5.8,6.6-13.3,8.1-22,9.2
		c-2.2,0.3-15,2.9-7.7,3.8c4.4,0.5,10.3-1.3,14.8-1.9c4-0.5,6.7-1,9,2.7c1.7,2.6,3.2,6.9,3.8,9.8c0.9,5.3-6.4,16.4-8.6,7.5
		c-7.4,0.6-15.3,3.6-22.3,5.8c-6.2,1.9-12.6,4.2-19,6c-5.5,1.4-11.2,1.9-16.8,2.5c-5,0.5-9.5,2.9-14.2,4.5
		c-10.7,3.6-21.7,6.3-32.5,9.7c-7.7,2.5-15.6,4-23.1,7.3c-7.2,3.2-13.2,7.4-21,9.6c-12.3,3.4-24.6,6.2-37.4,7.4
		c-4.6,0.4-9.3,0.4-13.7-1.5c-3.4-1.5-5.7-4.7-9.1-6.2c-4.7-2.3-9.2-1.3-14.4-1.6c-3.4-0.2-6.4,0.1-7.4-3.6
		c-0.4-1.5,0.3-3.3-0.3-4.9c-0.6-1.6-2-2.5-3-3.8c-1.9-2.9-1.6-5.1,0.3-8c1.9-2.9,5.5-6,8.5-7.6c2.9-1.6,6.4-0.8,8.3-3.6
		c1-1.3-0.2-2.4,1.7-3.7c1.2-0.9,3.4-1,4.6-0.4c0.8,0.4,0.3,2.1,1.3,2.7c0.8,0.4,2.8,0.4,3.7,0.4c1.9,0,3.8-0.6,5.6-0.7
		c4.2-0.2,9.1-0.5,13.4,0.4c3.3,0.6,6.2,2.3,9.5,2.9c1.7,0.3,4.7,0.7,6.4-0.1c1.2-0.6,1.3-2,2.1-2.4c3.8-2.4,5.3,2.8,9.1,1.3
		c-0.2-5.5-4.2-5.6-8.1-7.6c-3.1-1.6-4.8-9.7-6.8-9.8c-1.7-0.1-4.5,2.6-6.6,3c-4.8,0.9-9.9,0.9-14-1.3c-3.1-1.8-8.2-5.4-8-9.5
		c0.2-4.2,5.8-5.3,9-6.5c0.2-3.4-3.5-4.6-3.1-8c0.5-3.7,5-4.9,3.7-9.6c-2.4,0.1-7.5,5.3-9.5,1.6c-1.7-3.3,3.8-4,4.1-6.5
		c0.6-5.7-12.3-7.3-11.2,1.1c-5.6-0.6-11.6-9.1-15.4-12.8c-13.9-13.6-32.5-12.2-50.4-13.8c-4.9-0.4-10,0.1-14.7-1.4
		c-3.4-1.1-6.5-3.1-10.1-4.2c-3.4-1.1-6.3-3.3-9.6-4.3c-4.3-1.6-4.7,0.7-4.4,4.3c-2.6-0.7-2.5-3.6-2.8-6c-0.4-3.3-1.1-5.4-2.9-8.2
		c-3.6-5.2-6.7-10.4-9.9-16c-5.6-9.7-12.3-19.9-14.2-31.2c-0.9-5.9-1.5-11.8-2.3-17.7c-0.7-5.4-1.6-10.7-0.4-16.2
		c1.3-6.3,3.8-12.4,5.6-18.5c1.9-6.3,2.1-12.7,5-18.7c2.8-5.7,2.7-12.1,6-17.6c1.8-2.9,3-3.5,6.1-3.8c1.2-0.2,10.4,1.9,10.4,1.9
		c0.1-7.2-9.5-4.3-10.9-10.8c-0.4-2.2,0.1-5.4,1.5-7.2c2.7-3.6,4.9-3.7,7.9-1c2.3,2,4.2,4.7,7.9,3.2c3.5-1.5,1.2-2.8,0.3-5.7
		c-0.6-2.2-1.6-6.6,1-8.2c2.1-1.2,5.7,2.3,7.5,0.3c2.9-3-3.7-6.1-5.4-6.6c-4-1.3-4.8-1.5-2.6-6c2.8-6,7.9-11.5,12.1-16.6
		c1.2-1.5,3.9-7.4,5.9-7.1c2.6,0.4,1.9,7.3,5.8,3.9c2.4-2.1-0.7-6,3.8-3.7c4.4,2.3,4.5,5.1,10.5,2.8c-0.5-6.7-3.7-5.5-9.1-8
		c-5.6-2.5-2-6.5,1.3-9.7c3.9-3.9,9.3-7.3,14.3-4.6c3.8,2,6.5,6.3,11.3,3.5c4-2.3-0.3-2.2-2-5c-1.7-2.9,0.1-5.8,3.2-4.1
		c2.6,1.3,3.3,5.3,6.7,5c2.7-0.2,5.6-4,3.7-6.5c-1.8-2.5-8.1-1.2-7.5-6.1c0.4-2.7,1.7-2,3.7-1.9c2.5,0.1,6.8,1.3,8.8-0.9
		c0.8-1,1.1-3.5,0.5-4.6s-4.6-2.4-4.6-1.8c-0.9-3.3,1-6.8,0.3-10.5c-3.8,2.3-2.7,8-6.8,10.3c-4.3,2.4-7.4,2.1-9.6,7.3
		c-0.5,1-0.7,5.6-2.9,4.7c-1.4-0.7-0.6-4.6-0.4-5.5c1-4.3,4.7-8.2,1.5-12.5c-1.8,0.1-2.2,1.6-3.2,3.2c-1.8,2.9-2.5,6.1-4,9.1
		c-1.9,3.2-5.3,5.7-7.7,8.3c-3.4,3.6-8.2,10.7-13.9,9.9c-2.8-0.5-5.5-2.9-7.4-5.1c-2.3-2.8-1.5-4.5-1.7-7.8
		c-0.2-3.2-1.4-6.4-3.2-8.8c-1.6-2.2-5.2-4.2-4.9-7.3c5.2-1.6,9.4,3.8,10.6,8.1c1.2,4.7,0,10.2,6.1,11.5c8.3,1.8,9.6-5.6,7.8-12
		c-2.4-8.6-7.9-10.2-15.2-14.3c-3.2-1.9-6.9-3.1-10-5.1c-5.9-3.7-6.2-10-4.9-16.2c1.5-7.1,8.9-12.1,14.2-16.8
		c7-6.1,14-11.7,20.5-18.4c6.3-6.7,9.9-15.2,13.7-23.4c4.3-9.3,6.9-17.9,6.6-28c-0.1-4.6,0.1-7.8,1.9-12.2c1.6-3.6,4.3-6,6.1-9.3
		c1.3-2.6,1-6.3,3.5-8.2c3.2-2.2,6.3-0.7,9.2,0.1c6.8,2.2,17.5-0.5,24.7-1.9c7.6-1.5,15.5-7.3,20-13.8c1.1-1.7,2.5-7.8,4.2-8.4
		c2.3-0.8,5.5,4.9,6.5,6.6c2.2,3.3,2.7,6.6,3.8,10.3c0.6,2.2,5.6,10.6,9,6.5c2-2.3-2.4-9.3-3.7-11.2c-2.2-3.3-5.1-6.2-6.9-9.8
		c-1.6-3.2-2.6-7.8-2.5-11.5c0.3-6.7,4.2-13.8,6.1-20c2.4-7.8,3.5-15.8,6.8-23.3c3.2-7,6.1-13.2,5.1-21c-0.9-6.9-4.4-11.6-6.4-17.9
		c-1.6-4.8-2.7-10.7-3.4-16.6c2.5-0.6,5.1-3.3,7.2-4.4c3-1.7,5.6-2.9,8.3-5.3c5.8-5.2,12.8-9,20.7-7c6.7,1.5,13.3,5.1,19.7,7.8
		c2.7,1.1,5.6,2.3,8,3.9c0.7,0.4,1.3,0.9,1.9,1.6c-0.6-0.6-1.2-1.2-1.9-1.6c-2.4-1.6-5.3-2.8-8-3.9c-6.4-2.7-12.9-6.1-19.7-7.8
		c-7.9-1.9-15,1.8-20.7,7c-2.7,2.4-5.3,3.6-8.3,5.3c-2,1.1-4.8,3.9-7.2,4.4c-0.6-4.7-0.9-9.4-1-13.6c-0.3-8.7,3.3-18.7,7.1-26.6
		c2-4.1,5.5-7.1,8-10.9c2.9-4.6,4.7-10.2,6.7-15.3c1.9-4.8,4.2-9.4,6.3-14.2c1.5-3.4,1.4-7.5,3.2-10.9c2.1-3.9,5-7.1,6.8-11.4
		c3.9-8.9,6.2-18.7,12.4-26.5c3-3.8,24.1-12.4,15.2-17.5c-4.7-2.8-10.1-4-10.6-9.2c-0.1-1.1,0.1-2.3,0.5-3.8
		c0.6-2.5,3.2-4.4,4.4-6.7c1.8-3.5,0.2-5.6,0.6-9.2c0.9-9,10.3,0.8,13,3c5.7,4.9,10.4-2.4,14.2-5.8c0.5-0.6,1.1-1,1.7-1.4
		c8.7-7.1,19.1-13.4,23.2-24c1.2-3,1.2-6.5,2.4-9.5c1.1-2.7,3.7-4.7,6.2-6.3c2.3-1.6,4.3-3.7,5.9-6.1c1.4-2,1.9-5.4,3.4-7.2
		c2.9-3.5,9-0.4,12.5,1.9c4.5,2.9,5.7,7.2,9.5,10.4c1.6,1.5,4.2,2.7,5-0.3c0.7-2.7-1.9-2.6-3.1-4.4c-3.5-5,2.5-6.1,6.1-4.5
		c3.9,1.7,7.8,3.6,11.9,5.2c4,1.5,7.8,3.4,5.7,8.5c-2.6,6.5-12.1,6.3-16.9,10.3c-3.4,2.7-9.1,14.9-4,18.2c3.2,2.1,4.8-1.9,4.9-4.8
		c0.2-3.9-0.6-4.8,2.7-7.3c5-3.8,11.1-8.7,16.7-4.1c3,2.4,5.1,4.3,8.6,5.9c2.6,1.3,8.1,2.8,6.9,6.9c-0.8,3.1-2.7,2.3-2.3,6.3
		c0,0.4,0.1,0.7,0,1.1l-8-8l-7.9,10.2c0,0,11.4,8.7,13.3,10.4l7.8-2.3l0-0.2c1.3,0.2,2.8,0.1,4.2-0.2c0.6,4.6,1.1,9.1,2.7,13.5
		c0.9,2.4,2.1,4.8,3.2,7c1,1.8,1.6,4.8,3.6,5.7c2.5,1,5-1.4,6.6-3c2.2-2.3,4.2-4.6,6.7-6.6c5.1-4.3,10.4-8.5,15.8-12.4
		c1.8-1.3,3.7-3.1,5.8-3.6c2.6-0.7,3.9,0.5,6.2,1.5c2.3,1,4.5,2.1,6.9,2.8c1.8,0.6,3.5,2.1,5.4,1.6c2.2-0.4,2-2.2,2.6-4.2
		c0.6-2.5,1.4-2.5,3.2-0.4c3.4,3.7,4.8,8.5,8.5,11.9c0.8,0.7,1.7,1.7,2.7,2.4c-0.2,7,11.2,13.9,15.7,16.7c7.6,4.8,19,12,27.1,4.7
		c5.6-5.1,12.7-8,18.3-13.1c1.9-1.8,7-7.9,5.7-10.8c-1.2-2.4-3.7-1.1-5.7-1.3c-4-0.4-8-2.9-11.7-4.2c-4.3-1.5-6.6-3.2-8.8-6.9
		c-1.5-2.6-4.6-7.7-5-10.7c-0.4-2.8,1-2.8,2.3-4.9c0.9-1.4,1-3.3,1.6-4.9c1.3-3.7,4.4-8,1.7-11.9c-1.4-2.1-4.7-2.2-6.2-4.2
		c-3.7-5.1,4.7-14.1-5.6-14.3c-4.7-0.1-7.6,3.5-12,3.4c-3.5-0.1-6.7-2.9-9.4-4.9c-2.4-1.9-5.7-4.4-4.7-8.1c0.9-3.1,5.1-3.5,7.5-5
		c2.8-1.7,5.5-4.3,8-6.3c2.3-1.7,4-3.3,3.3-6.7c-1.3-6-10.3-7.2-8.7-15c0.7-3.1,3.1-5,6.6-3.9c4,1.3,4.4,3.9,9.1,2.8
		c2.3-0.5,5.6-1.7,7.4-3.1c2.4-1.8,3.1-4.9,5.1-7c2.3,1.1,1.9,4.4,5,3.6c2.2-0.6,2.7-3.5,3.2-5.3c1.1-4.5,3-10.3,8.5-5.7
		c2.3,1.9,2.1,4.9,3.6,7.1c1.5,2,4,2.8,5.3,4.8c1.5,2.1,2.3,4.5,0.6,6.5c-1.7,2-4.3,0.3-3.6,4.1c0.4,2.2,4,4.8,5.4,6.5
		c2.4,3.1,4.3,5.3,8.1,2.4c2.9-2.3,2.6-6,3.6-9.1c1-3.1,4.2-5.2,6.4-7.9c2-2.4,4.9-5.1,3.5-8.5c-1.3-3.4-4.8-2-6.4-4.8
		c-2.2-3.7,2-4,4-5.5c1.8-1.3,3-5.6,5.5-5.7c1.4,4.4,5.9-0.5,7.5-2.3c3.9-4.6,5.9-11,12.5-9.2c3.7,1,7.8,3.4,10.8,5.7
		c2.4,1.7,4.2,6.5,7.2,6.2c3.4-0.6,1.7-5.6,5.8-4.5c2.9,0.7,2.7,4.3,5.2,5.7c4.4,2.3,3.6-1.8,6.3-3.1c3.5-1.7,4.2,3.4,4.4,5.8
		c3.8,0.4,3.7-2.2,5.3-4.7c2.2-3.4,5.2-3.2,9.1-2.9c4.4,0.4,8.1,3,12.4,3.8c3.9,0.7,7.4-1.4,10.4,2.4c2.6,3.3-0.1,3.3-0.7,6.5
		c-1.2,6.6,6.8,6.8,11.3,7c10.5,0.4,32.5,2.1,31.2-14.1c-0.4-5.2-2.8-3.4-5.7-5.5c-2.4-1.9-1.1-5.4,1.4-7.4
		c4.4-3.3,14.9-3.3,18.9,0.9c2.8,2.9,4.9,6.6,7.7,9.5c3.6,3.6,6.5,7.3,8.5,12c1.3,2.8,2.6,6.2,0.3,8.7c-1.1,1.4-6.8,2.2-6.1,4.6
		c0.3,1,4.5,2.1,5.4,2.8c2.4,1.9,4.2,4.6,5.7,7.2c5.3,8.6,8.6,17.9,13.3,26.5c4.2,7.5,10.8,12.9,17.1,18.7c5.1,4.6,9.8,9.6,15.6,13
		c3.5,2.1,6.3,3.1,6.9-1.9c0.1-1.7-0.1-4.6-0.7-6.3c-0.8-2.1-1.2-1.5-2.5-2.8c-2.2-2.4-2.9-4.9,0.1-7.8c2.9-2.8,5.1-1.2,3.9-5.9
		c-0.9-3.5-3.4-5.1-5.4-8.1c-2-3-1.6-5.1-0.7-8.3c1.6-5.5,0.7-12.7,3.9-17.8c5.6-8.9,10.6,3.6,15.2-0.4c0,0,0,0,0.1,0l147,93.9
		l14.5,50.4L1261.3,338.7z"/>
</g>
</svg>
