<?xml version="1.0" encoding="utf-8"?>
<!-- Generator: Adobe Illustrator 17.1.0, SVG Export Plug-In . SVG Version: 6.00 Build 0)  -->
<!DOCTYPE svg PUBLIC "-//W3C//DTD SVG 1.1//EN" "http://www.w3.org/Graphics/SVG/1.1/DTD/svg11.dtd">
<svg version="1.1" id="katman_1" xmlns="http://www.w3.org/2000/svg" xmlns:xlink="http://www.w3.org/1999/xlink" x="0px" y="0px"
	 viewBox="-161 -194 800 801" enable-background="new -161 -194 800 801" xml:space="preserve">
<g>
	<path d="M636.6,412.1c-0.1-0.1-0.2-0.3-0.3-0.4c-4-4-9.8-6.3-13.9-10.3c-2.2-2.2-3.7-4.6-6.8-5.8c-2-0.8-9.1-1.4-10.6-3.5
		c1.5,2.2,8.6,2.7,10.6,3.5c3.1,1.2,4.6,3.6,6.8,5.8c4.1,4,9.9,6.3,13.9,10.3C636.4,411.8,636.5,411.9,636.6,412.1z"/>
	<path d="M649.9,435.1c-0.2-0.3-0.6-0.7-1.1-1.2c-1.5-1.4-3-3.1-4.8-4.1c-2.1-1.2-4.3-2.3-6.5-3.6c-2.7-1.6-5.8-2.1-8.5-3.6
		c0,0,0,0,0,0c2.7,1.5,5.8,2,8.5,3.6c2.1,1.3,4.3,2.3,6.5,3.6c1.8,1.1,3.3,2.7,4.8,4.1C649.4,434.4,649.7,434.8,649.9,435.1z"/>
	<path d="M610.6,380.1c0.3,0.2,0.8,0.7,1.3,1.3C611.4,380.8,610.9,380.3,610.6,380.1c-1.6-1.1-4.1-0.7-5.9-1c-1.1-0.2-3.3-0.9-4.1-2
		c0.8,1.1,3,1.8,4.1,2C606.5,379.4,609,379,610.6,380.1z"/>
	<path d="M560.8,294.1c0.2,0.1,0.4,0.3,0.6,0.5C561.2,294.5,561,294.3,560.8,294.1c-1.2-0.8-2.3-1.1-2.9-1.7
		C558.5,293.1,559.5,293.3,560.8,294.1z"/>
	<path d="M600.8,367.6c0.1,0.1,0.2,0.2,0.3,0.3C601,367.8,600.9,367.7,600.8,367.6z"/>
	<path d="M608.9,370.2C608.9,370.2,608.9,370.2,608.9,370.2c-3.9-0.2-5.3,0.4-7.6-2C603.6,370.7,605,370,608.9,370.2z"/>
	<path d="M600.2,366.9C600.2,366.9,600.3,366.9,600.2,366.9c0.1,0.1,0.1,0.1,0.2,0.2C600.4,367.1,600.3,367,600.2,366.9z"/>
	<path d="M572.4,333.7c-0.7-1.2-2.8-1.8-3.7-3C569.7,331.9,571.7,332.6,572.4,333.7z"/>
	<path d="M559.3,313.5c-1.3-1.6-3.9-1.8-5.1-3.5c0,0,0,0,0,0C555.4,311.7,557.9,311.9,559.3,313.5c0.2,0.2,0.4,0.5,0.6,0.7
		C559.7,313.9,559.5,313.7,559.3,313.5z"/>
	<path d="M567.6,322.9c-1.1-1.5-3.1-2.5-4.3-3.7c-0.2-0.2-0.4-0.4-0.6-0.7c0.2,0.2,0.4,0.5,0.6,0.7
		C564.5,320.4,566.5,321.4,567.6,322.9z"/>
	<path d="M578.4,349.6c-3.5-2.6-6.6-5.5-10.5-7.7c-1-0.5-1.8-1.1-2.2-1.7c0.4,0.6,1.2,1.1,2.2,1.7
		C571.8,344.1,574.9,347.1,578.4,349.6c0.8,0.6,1.5,1.2,2.3,1.8C580,350.8,579.2,350.2,578.4,349.6z"/>
	<path d="M543.5,248C543.5,248,543.5,248,543.5,248c-0.2-0.2-0.4-0.4-0.5-0.7C543.1,247.5,543.3,247.7,543.5,248z"/>
	<path d="M594.8,360.1c-1.5-1.3-3.4-3.8-5.1-4.6c-2.2-1.1-4.6-0.3-6.8-2.1c-0.7-0.6-1.3-1.1-2-1.7c0.7,0.6,1.3,1.1,2,1.7
		c2.2,1.9,4.5,1.1,6.8,2.1C591.4,356.3,593.4,358.8,594.8,360.1c1.1,1.1,2,2.1,2.9,3.3C596.8,362.2,596,361.2,594.8,360.1z"/>
	<path d="M530.8,238.9c-3-0.9-6.2-0.8-9.3-1.3c-4.1-0.6-7.8-2.4-11.7-4c-3-1.3-5.5-2.3-7.6-5c0,0,0,0,0,0c2.1,2.7,4.5,3.7,7.6,5
		c3.8,1.6,7.6,3.4,11.7,4C524.7,238.1,527.8,238.1,530.8,238.9c3.9,1.1,7.2,3.3,10,6.1C538,242.2,534.7,240,530.8,238.9z"/>
	<path d="M541.2,245.4c0.3,0.3,0.7,0.7,1,1.1C541.9,246.1,541.5,245.7,541.2,245.4z"/>
	<path d="M-793.8-785.3v2270.8h2273.5V-785.3H-793.8z M1176-424.7c0.2,3.1-0.3,7,0.4,10.2c0.6,3,1.7,4.8,0.8,8
		c-1.5,5.5-8.8,5.3-4.5,12.2c1.5,2.5,3.2,4.8,5.3,6.8c1.7,1.6,5.3,3.5,4.9,6.3c-1.7,0.1-3.6,0.3-5.2,0.1c-4.9-0.7-8.9-6.8-11.9-10.4
		c-2-2.4-3.4-5-2.2-8.1c1-2.7,3-2.8,2.8-6.3c-0.3-6.2-9-6.4-5.7-13.8c1.1-2.5,4.2-4.6,3.2-7.8c-0.9-2.7-3.9-4.2-4.8-7
		c-0.9-2.7-0.1-5.5-0.5-8.3c-0.5-3.1-1.1-6-0.9-9.4c0.3-4.4,2.9-4.3,5.4-7.4c1.6-2.1,1-5.3,3.7-6.3c3.1-1.3,5.6,1.5,6.9,3.8
		c4.2,7.6,6.4,15.5,14.1,20.2c1.8,1.1,9.8,4.4,7,7.5c-1.3,1.5-6.9,0-8.8,0.1C1179.7-434,1175.6-431.2,1176-424.7z M553.7-583.8
		c3.2-9.5,6.1-19.5,8.8-29.2c4.9-17.7,12.2-33.9,18.8-50.9c3.6-9.3,5.3-20.4,8.1-30.1c2.4-8.6,6-16.9,7.6-25.7
		c1.8-9.5,1.4-19.1,2.7-28.6c0.3-2.3,0.9-4.6,1.5-7c0,0,0,0,0,0c0.6-2.5,1.1-4.9,1.3-7.3h592.1c-2,5.3-4.6,10.2-8.7,14.4
		c-2.8,2.9-6.7,5.2-8.9,8.7c-2.4,3.8-3.2,8.8-5.6,12.7c-1.6,2.6-7.2,6.8-7.6,9.8c-0.8,5.8,5.3,4.2,8.4,3.3c3-0.8,8.9-3.6,9.4,1.9
		c0.3,3.9-5.1,7.2-6.2,10.6c-3.1,9.6,3.9,13.5,11.7,14.7c4.6,0.7,8.4,0.8,7,6.6c-0.9,4-4.3,5.3-6.3,8.5c-5,7.7,1.2,14.4-9.9,16.4
		c-14.3,2.5,2.6,9.8-5.7,14.4c-3.5,1.9-7.5-0.5-11.1,2.4c-5.4,4.3-1.5,5.5,0.2,9.7c3.4,8.4-11.6,14.8-17.2,17.4
		c-9.5,4.4-14.1-5-9.7-13.1c2.1-3.9,5.7-6.2,8-9.9c2.2-3.6,3.6-8.3,4.6-12.5c1.3-5,1-10.4,3.6-15.1c1.7-3.1,6.3-5.8,6.6-9.3
		c-10.6-0.6-15.3,5.7-15.9,15.9c-0.4,7.2-6.6,11.7-8.6,18.1c-2.4,7.8-5.1,11.8-10.9,18c-2,2.1-3.8,5.4-6.7,5.6
		c-4.5,0.3-3.1-3.4-3.3-6.9c-2.4,2.6-11.6,10.4-11.7,13.9c-0.1,5.2,8.1,1.7,7,8c-0.8,4.5-5.5,3.2-8.4,6.1c-3.4,3.3-1.9,8.7-3.7,12.6
		c-1.8-0.8-3.3-3.3-5.7-4.6c-2.7-1.5-4.8-0.9-4.3-5.5c-1.7,0.7-2.2,2.6-3.6,3.3c-2.2,1.1-2.8-0.3-4.5,1.5l0,0
		c-0.1,0-0.2,0.1-0.3,0.2c-1.1,1.3-0.9,3.3-1.6,4.9c-0.9,2-2.6,3.4-3.9,5c-3.2,4.2-1.8,6.5-2.8,11.3c-0.9,4.7-5,6.4-5.7,11.2
		c-0.6,4.6,1.4,8.3-2.4,11.6c-3.6,3.2-7,2.1-9.3,6.7c-2.7,5.5-4,20.4-12.2,15c-1.1-0.8-0.9-4.4-3.4-2.4c-1,0.8,0.1,4.1,0.2,5.2
		c0.5,3.1,2.1,9.1-2.9,8.9c-6.7-0.3-9.3-14.3-17.2-14c-0.5,6.9,9.1,13.2,12.3,18.6c3.3,5.7,9.7,17.5,16.6,9.4
		c5.9-7,9.3-17.3,13.7-25.3c2.4-4.2,4.6-8.1,8.6-11.1c3.7-2.7,6.4-1.7,7.3-6.7c0.9-4.5,0.1-7.1,2.3-11.2c1.2-2.3,3.4-2.5,1.9-5.5
		c-0.8-1.5-3.1-0.6-3.7-2.9c-1.5-5.4,10.4-18.1,15.9-16.4c4.3,1.4,2.2,5.5,7.5,6.6c4.8,1,8.8-0.4,12.6,3.7
		c6.9,7.4,0.5,14.8-5.6,19.3c-1,0.8-4.8,2.9-5.2,4.1c-1.1,3.4,0.9,1.9,1.9,4.1c0.9,2,0.9,9.1,2.8,9.9c4.8,2.2,5.4-6.5,9.4-6.4
		c4.1,0.1,3.7,7.5,2.8,10.2c-2.6,7.9-13.5,10.2-20.6,12.7c-9.7,3.3-9.6,12.9-10.3,22.1c-0.4,4.8-0.6,9.6-0.9,14.4
		c-0.3,5.6-3.1,6.6-6,10.8c-4.3,6.3-3.1,13.2-9.9,18.2c-6.6,4.9-17.2,7.8-10.2,17.7c2.4,3.4,5.7,4.8,4.6,9.9
		c-0.9,4.1-4.4,6.1-6.3,9.7c-1.8,3.3-1,9.6-3.1,12.3c-3.3,4.3-4.1-2-5.7-4.6c-4-6.6-10.5-10.9-14.1-18.3c-1.8-3.6-2.2-7.6-3.7-11.4
		c-1.6-4.1-3.7-7-3.6-11.7c0.1-3.7,0.5-9.1,1.9-12.6c1.4-3.7,5.3-8.1,3.3-12.6c-2.1-4.8-7.3-2.8-9.4,1.3c-2,3.8,1.7,8,0.5,11.3
		c-2,5.3-5.7-1.8-7.1-4.1c-2.1-3.3-4.7-6.1-6.9-9.5c-2.1-3.4-3.4-8.2-6.2-11.1c-1.6-1.6-2.6-2.9-5.1-2.4c-2.5,0.5-1.8,2.7-3.4,3.2
		c-6.3,1.8-3.5-3.9-4.1-6.9c-0.9-4-6.6-3.2-7-7c-0.4-3.3,4.6-4.9,5.2-8c0.5-2.2-1.2-3.9-0.9-6.1c0.2-1.6,1.8-2.8,2.2-4.3
		c1.4-4.3,0.1-9.4-4.6-5.5c-1.3,1.1-7.2,9.6-7.1,1.5c-4.3-0.7-3.1,5.6-8.2,4.1c-2.6-0.8-5.7-6.1-7-8.4c-2-3.2-3.2-7.2-2.1-10.9
		c1.7-5.6,4.1-4.2,8.7-5.5c5.5-1.5,3.7-4.2,0.8-7.5c-3.3-3.7-5.3-4.9-4.5-10.2c2.3-15.1,17.8-28.7,5.4-44.5
		c-5.4,2.6-3.5,17.8-4.2,22.9c-1.2,8.9-6.5,15-10.8,23c-5.5,10.2-2.6,21,1.4,31.5c3.1,8.1,9.9,11.3,10.4,20.5
		c0.2,3.9-0.4,9.3,0.5,13.1c0.9,4,5.6,5.2,6.6,8.9c1.6,6.2-15.3,15.1-8,18.3c6.3,2.8,5.2-4.8,6.7-7.5c1.9-3.7,8.6-3.9,12.4-2.7
		c4.5,1.5,6.2,5.6,5.7,10.3c-0.6,6.1-3.8,4.6-8.8,7c-3.7,1.8-7.2,5.5-7.6,9.7c-0.6,6.2,3.4,4.5,6.6,7.3c3.1,2.9,1.8,5.7-0.1,9
		c-2.4,4.1-4.2,5.8,0.1,10.2c2.4,2.4,7.2,2.8,6.6,5.8c-0.9,5.6-8.5,1.5-9.9,4.1c-1.2,2.3,3.2,2.1,4.1,2.9c2,1.9,1.4,1.5,1.9,4.1
		c0.4,2.3-1.1,3,0.5,5.6c1,1.7,2.6,2.6,4.1,3.7c3.6,2.8,15.5,13.3,7.3,18.3c-6.4,3.9-10.3-13.8-18.6-7c1.9,1.5,4.2,2,5.9,3.7
		c2,2.1,5.4,5.1,7.1,7.4c1.2,1.5,2.1,3.5,2.7,5.2c1.2,2.8,2.6,6.8,0.1,9.6c-2.9,3.3-6,1.2-7.2,6.4c-1.8,7.7,0.3,18.2,1.4,25.7
		c0.8,5.8,2.2,11.5,5.8,16.3c2.4,3.1,11.2,7.3,9.6,12c-1,3.1-6.5,3.1-8,6c-1.3,2.6-0.6,11.4,1.7,13.2c3,2.4,7.3-0.9,9.7-3.4
		c2.5-2.6,4.2-8.2,8.4-8.8c4.4-0.6,6.5,3.8,8.3,7c4.8,8.9,3.1,19.9,8.1,29c4.4,8,17,10.1,24.9,13.8c11.5,5.3,5.9,10.3-1.8,15
		c-6.3,3.8-12.7,12.2-18.4,3.1c-4.3-6.8-2.6-18.1-13-17.3c0.1,3.9,3.6,7.2,5.6,10.2c2.2,3.7,1.3,7.3,2.9,10.7
		c3.9,8.2,14,12.4,21.9,14.1c8,1.8,13.8,7.3,21.1,10.9c6.2,3.1,16.9,2.6,19.8,11c3.9,11.1-10,10.4-16.6,7.2
		c-7.6-3.8-14-9.9-21.5-13.9c-5.5-2.9-9.3-2.8-15-3.9c-4.4-0.8-7.8-3.9-11.2-6.4c-8.5-6.2-16.1-12.7-24.5-19.3
		c-9.4-7.4-24.2-4-34.4,1.2c-5.2,2.7-9.4,7.7-14.9,9.7c-6,2.2-12.2-0.9-18.3-1c-3.7-0.1-10,0-12.4,3.3c-2.6,3.7-0.3,10.6,0.1,14.4
		c0.6,6,0.1,11.7-6,12.7c-15,2.7-18.1-8.6-23.6-18.7c-3.8-6.9-3.6-12.8-3.6-20.7c0-8-1.6-15.7-0.9-23.8c0.6-7.5,5.2-13.5,5.1-21.5
		c-0.1-9.7-3.7-20.3-7.1-29.3c-0.8-2.2-5.5-12.9-8.4-11.4c-2.5,1.3,1.1,17.1,1.4,18.7c0.9,4.9,2.4,9.8,3.4,14.5
		c1,4.5,3.6,8.3,4.6,12.6c2.4,10.8-9.6,14.5-14.7,22.1c-3.5,5.3-4.4,9.6-5.5,15.5c-0.5,2.8-2.6,12-5.6,13.1
		c-6.2,2.1-11-12.3-16.5-14.2c-3.6-1.2-8.1-0.6-11.2-3.3c-2.8-2.4-3.5-10.7-7.5-10.6c-5.3,0-0.4,8.1,1.4,10.2c3.5,4,8.2,5,12.6,7.6
		c3.1,1.8,7.6,4.8,8.5,8.4c1.1,4.9-4.8,6.4-3.9,10.8c0.7,3.5,7,6.6,9.4,8.9c3,2.9,7.4,7.5,7.5,11.7c0.3,9.8-18.5,10.6-25.2,13
		c-5.1,1.8-10,3.7-13.8-0.4c-3.2-3.4-5-9-7.5-13.1c-3.3-5.4-2.9-10.2-2.3-16.5c0.3-2.8,2.2-10.7-0.3-12.7
		c-2.6-2.2-10.1,1.7-12.7,2.5c-4.6,1.4-10,3.1-15,2c-11.3-2.6-12.5-13-18.7-20.4c-7.2-8.4-18-3.7-25.6-10.2c-4-3.4-6.1-8.4-9.7-12.2
		c-3.1-3.3-7.8-4.5-7,1.4c1.4,10,14,14,21.3,17.8c4.4,2.3,9.5,4.3,13.5,6.6c3.7,2.2,4.8,5.5,6.7,9.3c1.8,3.7,3.9,7.2,5.7,11
		c1,2.2,2.2,5.3,3.5,7.3c1.2,1.7,3,2.5,3.8,4.6c5.1,15.3-10.1,34.8-24.8,36.2c-7.3,0.7-6.2-1.8-8.8-6.6c-2.6-4.8-9.7-8-14.8-9.3
		c-6.8-1.8-9.4,1.1-14,5.6c-4.5,4.5-7,7.1-11.6,2.4c-3.6-3.6-5.7-9-9-13c-10.4-12.6-23.3-17.5-39.7-13.7c-11.9,2.7-17.5,9.1-25,17.7
		c-5.1,5.8-9.2,10.9-12.5,18c-2,4.2-3.9,8.6-7,12.1c-3.8,4.2-5.8,4.8-11.2,4.2c-2.9-0.3-8.9-2.3-11.7-0.9c-0.6,0.3-1.1,0.6-1.5,1
		l-27.1-26.8l-18.7,1.6c-0.1-0.1-0.1-0.1-0.2-0.2c-5.2-7.3-10.4-15-15.6-22.7c-5.4-7.9-12.3-15.5-12.3-25.7c0-0.1,0-0.2,0-0.3
		c0.1-10.1,2.2-20.4,4.7-29.9c2.1-7.9,1.4-17.6,2.3-25.8c1-9.4-1.7-19.9-4.3-28.9c-2.8-9.4-6-17.1-4.2-27c1.4-8,3.8-15.6,6.3-23.5
		c2.2-7,2.8-14.6,4.3-21.8c0.5-2.4,1.1-4.8,2-7c2.1-5.8,5.8-10.4,9.1-15.6c4.6-7.2,7.2-15.9,10.7-23.6c6-13,14-23.1,23.3-33.6
		c13.3-15,24.6-31.8,33.6-49.7c6.7-13.3,18.3-34.1,2.4-45.8c-4.5-3.3-10.4-6.1-15.3-8.5c-4.6-2.3-7.9-0.3-12.6-1.3
		c-4-0.9-8.5-3.8-11-7c-2.6-3.3-4.7-6.5-7.8-9.3c-4-3.6-8.8-5.5-9.2-11.4C549.6-575.3,552.3-579.7,553.7-583.8z M1083.5-430.7
		c-3.8-5.4-7.6-11.8-4.3-18.4c3-5.9,10.8-10.6,13.6-2.3c1.2,3.4,0.3,7,0.7,10.6c0.5,3.7,2.2,9.3,3.8,12.7c2,4.3,5.2,7.2,9.6,8.9
		c3.1,1.2,6.4,2.3,7.9,5.6c1.8,3.9,0.9,9.2,1.5,13.4c0.4,2.9,1.3,5.1,3.7,6.6c2.1,1.4,6,1.8,7.6,4c5.2,7.5-8.4,4.1-10.5,8.4
		c-2.9,5.7,4.2,9.5,7,13.1c3.3,4.2,7.8,10.2,6.6,15.9c-0.6,2.9-2.5,3.9-4.3,5.9c-2.3,2.7-3.1,6.1-4.7,9.3
		c-4.9,10.5-9.9,0.1-12.3-5.2c-1.4-3-2.3-6.6-4.8-9c-2.9-3-6-4.9-8-8.7c-2.5-4.7-2.9-10-5.1-14.8c-1.7-3.6-3.8-7.1-5.8-10.5
		c-3.3-5.4-7.7-8.3-2.4-13.6c2.2-2.2,3.3-4.2,4.8-7.2c1.3-2.6,4.2-5.1,4.4-8C1093-419.5,1086.6-426.5,1083.5-430.7z M769.6-75.7
		c-2.7,3.2-7.5,1.7-8.9,6.4c-0.6,2.1-1,2.7-3.3,3.6c-1.9,0.7-4.1,1-6.1,1.2c-5.7,0.5-11.3-0.3-17-0.3c-2.7,0-5.5,0.2-8.1-0.5
		c-3.6-1-6.9-2.7-10.6-3.8c-4-1.2-7.9-2-12-2.8c-3.1-0.6-5.4-0.8-8.1-2.8c-4.1-3.2-3.7-9.1-7.4-12.7c-1.8-1.8-4.2-2.8-6.1-4.7
		c-2.1-2.1-2.4-3.2-1.6-5.9c0.8-2.8,2-5.4,2.7-8.2c0.8-3.2,1.5-6.4,2-9.7c0.5-3,1.1-5.9,1.5-8.8c0.4-2.7,1.7-3.9,3.9-5.5
		c1.5-1.2,2.9-2,3.9-3.8c0.7-1.3,1.7-5.2,3.9-4c1.1,0.6,2.1,3.7,2.8,4.8c0.9,1.5,2,3.3,3.3,4.5c1.9,1.7,4.6,2.9,6.7,4.3
		c2.2,1.5,4.1,3.1,6.5,4.1c10.1,4.2,23.8,6.2,27.3,18.6c0.5,1.8,0.6,3.8,0.9,5.7c0.1,1.1-0.1,3.8,1.3,2.7c0.8-0.7,0.3-2.5,0.6-3.3
		c0.5-1.1,1.5-1.7,2.4-2.3c2.6-1.8,3.1-0.8,5,1.3c2.1,2.1,4.1,4.6,6.7,6.1c1.1,0.6,2.1,0.8,3,1.8c0.9,1.1,1.5,2.6,2.4,3.8
		C769.2-83.2,772.4-79,769.6-75.7z M647.6-144.8c-0.8-1.1-1.6-2.1-2.8-2.8c-0.9-0.6-1.8-1.5-0.9-2.7c0.7-0.9,2.2-0.6,3.2-0.9
		c0.9-0.3,1.4-0.8,2.1-1.4c1.2-1.1,2.5-1.8,3.7-2.8c1.1-1,0.6-1.7,1-2.8c0.7-1.8,3.6-2.3,4.5-0.5c0.6,1.2,0.9,2.6,1.4,3.8
		c0.8,2,2,3.1,3.6,4.4c1.3,1.1,2.8,1.1,4.3,1.7c1.2,0.5,1.7,1.7,0.8,2.6c-1.1,1.2-2.6,1.6-3.9,2.2c-1.6,0.7-2.7,2-3.9,3.3
		c-1.4,1.5-2.7,2.8-3.9,4.5c-0.5,0.7-1.1,2-1.9,2.4c-0.7,0.3-1.5,0.1-2.2-0.1c-1.5-0.3-2.5-1.4-3.7-2.1c-1.5-0.7-3.8-0.8-4.9-2
		c-0.9-1-0.1-2.1,1-2.5c1.4-0.5,2.7,0.3,3.3-1.4C648.8-142.8,648.4-143.9,647.6-144.8z M649.5-125.3c1.5-0.7,3,0.2,3.9-1.6
		c0.8-1.5,1.3-2.3,3.1-2.4c1.3,0,1.8,0.2,2.7,1.1c1.2,1.1,1.9,2.5,3.3,3.5c1.4,1,2.8,0.6,4.3,1c1.4,0.4,2.9,2.4,1.8,3.7
		c-0.8,1.1-3,0.7-4.2,1.4c-1.5,0.8-1.5,2.9-3.5,2.5c-1.4-0.3-2.7-1.4-3.9-2c-1.2-0.6-1.4-2.1-2.4-2.8c-1-0.8-2.3-0.6-3.4-1
		C650.2-122.4,647.7-124.4,649.5-125.3z M491.1-30.4c-1.3-3.9-1.1-11.2,3.2-13.4c3.5-1.9,9.9,1.4,11.1,5.1c1.3,3.9-3.9,5.8-6,8.5
		c-1.2,1.6-2.1,5.5-4.9,5.4C492.1-25,491.7-28.6,491.1-30.4z M492.8-2.8c0,2.8-0.8,5.9-1.4,8.3c-1.9,7.7-7.7,12.8-11.9,19.2
		c-12.1,18.6-21.5,38.8-34.1,57.1c-6.9,10-16.5,18-23.6,28c-3.9,5.5-10.6,17.4-18.2,16.7c-0.2-3.5-0.1-6.8,1.1-9.9
		c1.6-4,4.1-7.4,5.5-11.5c2.9-8.7,9.1-16.4,14.6-23.8c5.6-7.6,11.6-14.8,17.2-22.5c6.3-8.7,12.3-17.8,18.7-26.5
		c4.9-6.6,8.5-13.6,12.1-20.9c0.9-1.9,2-3.6,3.1-5.2c1.2-1.5,2.6-2.9,4.3-4.2c2-1.5,11-14.2,12.4-7.2C492.7-4.4,492.8-3.6,492.8-2.8
		z M505.4-63.4c1.1-3.5,3.3-6.1,4.2-9.8c1.2-4.6,2.7-5.6,6.9-7.9c8.4-4.7,13.6-10,18.5-18c2.9-4.6,5.5-8.8,6-14.3
		c0.5-5.3-0.3-10.7,0-16c0.5-8.7,8.5-14.6,2.8-22.9l18.7-1.6l27.1,26.8c-4.7,4.4,5.8,13.6,5.3,18.2c-0.8,6.8-12.1,12.4-16.3,16.9
		c-6.4,6.9-13.2,15.1-15.1,24.2c-0.9,4.6-0.1,10.2-2.8,14.1c-2.4,3.4-6.1,6.7-8.9,9.9c-2.8,3.2-7.2,6.3-11.7,6.3
		c-1.3,0-2.6-0.3-3.8-0.9c-1.4-0.7-2.5-3-3.8-4c-2.2-1.7-4.8-2.5-7.2-3.6C519.4-48.5,502.7-54.5,505.4-63.4z M516.1-492.8
		c3.7-8.3,5.6-15.8,5.6-24.9c0-3.5-0.5-7.6,0.3-10.9c0.9-3.9,4.1-7.9,6.6-10.9c2.9-3.7,6.4-7,9.6-10.5c2.2-2.4,3.7-4.4,7.3-4.1
		c6.9,0.5,11.2,6.4,11.5,12.8c0.2,3.8,0.2,7.9,3.1,10.6c2.1,1.9,7.5,4,9.9,1.6c2.3-2.3-0.1-6.2,3.2-7.5c3.8-1.5,9.1,2.1,12.4,3.4
		c6,2.6,17.8,4.6,19.5,11.9c2,8.6-1.3,22-6.6,29c-2.3,3-5.6,5.2-9,6.7c-2.5,1.1-6,1.2-7.8,3.3c2.8,1.3,4.8,2.3,4.3,5.7
		c-0.3,2.9-2.2,3.4-4.1,5.5c-2.5,2.8-4.8,5.7-7.5,8.2c-1.8,1.7-3.4,5.1-5.5,6.3c-2.4,1.5-3.3-1.8-5.7,0.2c-2.3,1.8-2.7,7.8-3.5,10.5
		c-4.1,14.1-12.4,25.8-19.6,38.4c-2.4,4.2-3.8,8.8-6.1,13.2c-2.4,4.6-4.6,9.1-6.4,14c-1.5,4.1-4.1,7.1-5.9,10.9
		c-1.4,2.9-1.7,7-2.2,10.3c0,0.1,0,0.2,0,0.3c-1.3,7.4-3.9,14.4-6.9,21.4c-3.1,7.2-4.6,12.5-4.9,20.4c-0.3,6.4-0.7,13.2,0,19.7
		c1.2,11.4,4.1,22.6,5,34.1c0.8,10.5-0.8,20.8-1.8,31.2c-0.5,5.8-0.3,11.7-0.3,17.5c0,4.6,0,9.3,0,13.9c0,3.9,0,7.8,0,11.6
		c0,4.3-0.2,6.6,2.8,9.8c2.8,2.9,5.7,5.4,8.1,8.7c5.1,6.7,10.6,13.8,12.2,22c1.2,5.9,0.6,12.5,0.6,18.6c0,5.1,0.9,10.7-2.1,15
		c-2.9,4.1-7.2,6.5-11,9.5c-5.1,4-10.6,7.6-15.1,12.4c-3.5,3.8-4.6,8.5-6.4,13.1c-1.5,3.7-3.2,7.1-5.7,10.3
		c-5.6,7-17.1,12.1-18.7,21.8c-0.6,3.5,0.8,6.8,2.2,9.9c1.6,3.6,2.4,7.1,3.7,10.8c1,2.8,3.9,6.9,3.8,9.9c0,3.5-5,6.7-7.1,9.3
		c-3.3,4-6.4,7.9-10,11.6c-8.6,8.5-14.4,18.7-20.5,29.1c-3.5,6-7,11.7-11.1,17.3c-9.2,12.5-19.7,24.2-28.8,36.9
		c-7.4,10.2-13.8,21.1-20.8,31.6c-6.3,9.3-14.2,17.4-18.4,27.9c-1.8,4.5-4.3,8.8-4.3,13.7c-0.1,5.3,1.9,10.5-1.3,14.8
		c-1.6,2.3-2,3.5-1.9,6.5c0.3,5.1,4,7.6,5,11.9c2.1,8.7-7.6,3.7-10.3,7.8c-3.3,5.2,7.2,7,9.2,8.4c-2.3,2.3-7.7,0.5-10.4,3.2
		c-2.8,2.9,0.8,4.8,3.1,6.9c6.7,5.9,10.6,12.4,9.8,21.4c-0.5,4.8-1.5,9.6-2.2,14.4c-0.4,2.7-0.8,5.7-1.6,7.8c0,0-1,0.7-1.2,1.2
		c-0.2,0.6,0.1,1.5,0,2.2c-1.7,11.7-2.4,24-6.9,35c-2.3,5.7-5,11.2-7.2,16.9c-1.7,4.5-3.9,7.8-7.6,10.8c-3.3,2.7-6.4,4.1-10.4,5.3
		c-4.3,1.3-8.3,3.3-12.9,3.3c-5,0-9.8,0.9-14.8,2.3c-3.3,0.9-6.9,5.3-10.5,3.8c-3.6-1.4-2.1-4.8-2.3-7.7c-0.2-3,0-2.5-2.8-2.8
		c-1.7-0.2-3.3,0.2-4.9,0.3c-5.3,0.5-10.7,1.2-15.6,3.1c-5,1.9-9.3,5.2-14.2,7.3c-3.3,1.5-6.1,2.7-5.2,7c0.6,3,3,4.8,1.9,8.2
		c-2.8,9-11.8,15.6-18.7,21.5c-10,8.5-6-7.9-13.3-6c-8,2.1,6.7,12.5-2.2,13.8c-5,0.7-3.3-1.5-5-4.4c-2.2-3.6-6.3-0.7-8.2,1.6
		c-2.4,3-3.4,4.1-7.7,3.7c-3.1-0.3-6.1-2.2-8.5-4.3c-1.7-1.5-2.7-3.3-3.7-5.4c-1-2.3-3.3-5.2-3.8-7.5c-1.2-4.7,3-3.6,4.4-6.6
		c1.9-3.9-2.2-4.5-4.8-4c-2.7,0.5-7.7,2.3-9.3-1c-1.2-2.4,1.1-8,1.6-10.2c1.2-5.2,2.6-10.2,3.5-15.4c0.8-4.6,2.6-8.9,3.4-13.5
		c1.1-6,1.6-12,1.9-18.1c0.7-14.7,5.9-28.9,7.5-43.4c0.3-3,0.2-9.6,1.6-12.1c1.7-2.9,8.3-3.1,11.5-3.7c3.1-0.6,5.7-1.1,2.2-3.7
		c-3.1-2.3-16.7-4.3-11.5-10.1c1.3-1.5,4.5-2.7,5.1-5.2c0.9-4.1-2.5-1.7-4.5-3.5c-4.7-4.3,10.9-4.5,12.7-5.1
		c1.9-6.7-10-2.8-11.2-7.4c-0.9-3.6,2.6-8.6,3.4-11.9c1-3.7,0.9-4.6,5.4-5.6c2.1-0.5,7.6-0.7,6-4.2c-1.4-2.9-6.4-2.3-8.8-2.7
		c-3.3-0.6-3.7-2.8-0.6-4.4c2.4-1.2,5.5-0.6,4.4-4.7c-0.5-2-2.6-4.3-4.2-5.8c-2.4-2.4-2.7-2.8-1.5-6.3c1.2-3.3,1.8-6,1.7-9.7
		c-0.4-8.3,0.1-15.4,6.5-21.6c3.8-3.6,8.5-5.1,4.3-11.1c-2.7-3.9-8.4-5.2-4.5-11.3c2.6-4.2,5.5-8.5,5.3-14c3.1,0.2,2.1,3.2,3.7,4.6
		c2.1,1.9,4.7-0.2,5.9-2.1c1.1-1.7,2.1-4.9,1-7c-0.9-1.8-3.2-2.3-3.7-4.4c-0.3-1.3,0.8-4.2,1.1-5.5c1.1-4.2,3.7-7.8,6.1-11.4
		c1-1.5,1.5-2.6,2.9-3.6c1-0.6,3.1-0.7,3.7-1.2c3.7-3.1-1.9-2.7-3.7-3.8c-2.1-7.4,14.4-1,12.7-6.8c-1.5-1.5-4.2-1.2-4.6-3.8
		c-0.3-2.2,1.7-4.4,3.7-4.7c1.7-0.3,5.2,2.2,5.6-0.6c0.2-2-2.8-3-4.3-3.2c-1.3-5.7,7-0.6,9-0.9c0.6-2.7-2.4-1.9-3.4-3.7
		c-0.8-1.3,0-3.9,0.1-5.3c1.2,0.9,9.2,5.3,9.1,1.1c-0.1-2.8-5.2-2.2-6.1-4.6c-1.5-3.8,3.6-0.7,5.4-1.6c3.9-1.9-2.3-2.2-2.8-3.7
		c-1.1-3.1,4-3,5.4-4.2c2.9-2.6-0.7-3.4-1.4-6.1c-0.7-2.8,1.2-4.1,3-6.2c2.9-3.4,3.1-13.9,9-12.8c0.2,1.2,0.8,3.9,1.8,4.6
		c2,1.3,3.9,0.3,4.1-1.8c0.5-3.7-4.5-5.9-1.8-10c1.1-1.6,2.9-2.4,3.9-4.4c0.8-1.5,1.1-3,2.3-4.4c2.3-2.6,8.7-3.3,6.3-7.8
		c-1.1-2-5.3-2.2-5.7-3.7c-0.8-3,4.8-2.2,6.3-2.2c2.8,0,4.6,0.4,6.5-1.6c2-2,3.2-5.4,4.5-7.8c3.9-7.1,8.5-13.9,12-21.2
		c1.9-3.9,3.2-8.3,5.3-12.2c2.5-4.5,6.1-7.1,8.9-11.2c2.6-3.8,4.1-8.2,6.4-12.2c4.2-7.1,7.6-14.7,11.7-21.9c3.1-5.5,6-10.5,8.1-16.6
		c0.9-2.8,1.3-5.6,2.5-8.4c4.2-10.2,11.2-19.8,17.1-29.2c4.3-6.9,7.8-14.3,11.5-21.5c2.4-4.7,3.8-9.9,6.1-14.7c2-4.3,5-8.1,7.4-12.1
		c1.3-2.2,5.4-7.2,5.3-9.7c-0.1-3-4.3-2.8-3.4-5.3c0.9-2.5,6.1-2.7,7.8-4.9c2-2.6,1.4-6.7,4.8-8.4c1.1-0.6,2.6,0.1,3.7-0.4
		c1.4-0.6,2-2.2,2.7-3.4c6.1-10.4,13.8-19.9,20.5-30.1c6.4-9.8,11.1-21.2,15.2-32.1c4-10.5,6.1-21.2,9.4-31.8
		c2.5-8,8.8-16.4,9.4-24.7c0.5-7.7-4.9-12.1-7.4-19.2c-1.6-4.4-0.7-8.5,2-12.3c2.4-3.3,4.6-4,7.8-6c5.5-3.6,9.1-10.5,12.5-15.9
		c7.2-11.7,13.3-23.9,20.2-35.6C507.3-474.4,511.9-483.3,516.1-492.8z M394.3,133c-0.9,3.9-5.6,3.9-7.5,6.9c-1,1.5-0.1,4.3-1.3,5.6
		c-0.8,0.9-3.5,0.8-4.1-0.4c-0.6-1.1-0.1-3.9-0.1-5.2c0-2.1,0.4-2.5,2-3.9c1.4-1.2,2.7-2.2,4.1-3.3c1.1-0.8,2.7-1.9,3.3-3.1
		c0,0,0,0,0,0c0.3-1.1,0.6-2.6,1.2-2.8C393.6,126.1,394.5,131.8,394.3,133z M201,444.9c-0.2,1-0.6,2-1.1,2.8c-1.9,2.5-6.1,4.3-9,5.5
		c-4.8,2-9.4,3.9-13.9,6.8c-4.9,3.3-8.8,7.4-13.7,10.6c-2.7,1.8-4.8,3.5-7.1,5.8c-1.7,1.6-4.2,1.8-6.3,0.8c-4.1-1.8-6.7-5.8-9.9-8.7
		c-1.9-1.7-2.7-3.1-2.6-5.7c0.2-1.9,0.7-4.5,1.6-6.3c1-1.8,2.9-2.8,4.5-4.1c2.3-1.8,4.5-3.7,6.9-5.4c3-2.1,4.5-4.8,6.4-7.8
		c1.9-3,2.8-6.5,5.2-9.2c2.1-2.4,4.9-4.3,7.4-6.3c2.2-1.9,4.8-4.1,7.6-5c3.8-1.2,8.8,1.4,11.6,3.7c4.6,3.8,11.9,7.2,12.2,14
		C201,438.9,201.5,442.2,201,444.9z M43,906c-1.4,2.7-2.3,5.6-3.3,8.6c-2.2,6.6-4.5,13.4-7.3,20c-2,4.8-5.2,9.1-8,13.8
		c-2.7,4.4-4.8,9.6-7.9,13.8c-3.9,5.2-12.1,8.2-17.5,11.9c-4.7,3.3-8.5,6.9-11,12c-2.4,4.9-4.6,9.3-8.2,13.5
		c-4.8,5.6-8.7,12.6-14.6,17.1c-20.8,15.7-37.8,35.8-55.8,54.5c-3.6,3.7-7.1,8.3-10.2,12.4c-2.8,3.8-5.4,7.8-9.3,10.5
		c-4,2.8-5.2,5.8-7.5,10.1c-2.4,4.6-4.5,8.9-7.8,13c-2.5,3.1-5.1,6.2-7.3,9.5c-1.5,2.3-3,6-5.5,7.1c-3,1.4-5.1-1.8-8.3-1.1
		c-4.3,1-5.5,4.6-6.5,8.1c-1.2,4.3-2.2,8.4-4.6,12.3c-2.4,3.8-5.3,7.4-7.5,11.3c-0.8,1.5-1.6,5.9-3.1,6.7c-3.4,2-3.3-3.9-4.2-5.9
		c-2.9-7-6.8,5.6-9.1,7.8c-5.5,5.4-10.5,10.2-14.4,17.2c-4.1,7.5-10.2,15-16.8,20.5c-3.6,3-7.5,5.7-11.3,8.4
		c-3.4,2.4-6.5,5.5-10.5,6.8c-4.3,1.4-6.7,1.6-10.4,4.5c-4,3.3-8.5,7-11.9,11.1c-11.5,13.9-18.7,30.9-32.1,43.1
		c-4,3.6-8.5,8.9-13,2.9c-3.6-4.8-9.7-11.8-11.4-17.5c-0.9-3.1,0.2-5.8,1.6-8.5c2.1-4.1,3-5,7.5-5c6.5,0,13.5,1.8,18.9-2.1
		c3-2.2,5.9-4.3,8.1-7.5c2-3.1,4-6.6,6.4-9.6c4.1-5.2,10.4-10,11.4-16.9c0.8-6-7.3-14.2-12.3-17.2c-4.7-2.8-11.5-6.1-16.8-2.8
		c-3.5,2.2-4,7.3-8.2,8.5c-5.2,1.5-12.4-1.2-12.4,6.6c0,3.1,0.2,5.2-2.8,6.3c-3,1.1-5,0.3-6,4.1c-0.5,2-1,7-0.2,9.1
		c0.9,2.6,3.3,3.4,3.7,6.3c0.8,5.5-2.5,7.7-5.9,10.9c-1.7,1.6-2.6,3.5-4.1,5.2c-0.5,0.5-1.5,0.8-2.1,1.3c-0.6,0.6-1.5,2.3-2,3.1
		c-2,2.8-4.3,5.3-6.3,8.1c-3.7,5.4-7.5,6.9-13.4,9.4c-8.2,3.6-16.5,6.4-24.2,11c-5.4,3.2-10.5,7.1-15.8,10.4
		c-6.2,3.8-11.8,8-17.4,12.6c-4.4,3.7-8.9,7.8-14.1,10.3c-3.1,1.5-6.6,2.4-9,4.8c-2.5,2.5-3,5.5-5.7,0.7c-1.9-3.3-2.5-5.8-6.7-5.5
		c-1.1,9.7-7.8,11.7-14.7,17.1c-2.4,1.9-4.6,4.8-7.9,5.3c-5.2,0.8-5.4-5.1-8.3-7.8c-2.5-2.4-6.9,0.2-9.6,2.2
		c-3.5,2.7-6.7,5.4-10.3,8c-4,2.8-7.9,5.3-10.2,9.7c-2.4,4.7-4.1,9.6-7.2,14c-3.9,5.5-15.5,24.8-23.9,21.6c-2.8-1-3.3-4.4-6-5.7
		c-3.3-1.5-7.5-0.8-10.3-3.7c-2.3-2.5,0-5.1-1.2-7.8c-2.1-4.3-4,0.8-5.5,2.6c-2.1,2.5-4,2-7.3,2.1c-10,0.5-17.5,2.8-25.1,9.4
		c-6.8,5.9-12.2,13.2-15.1,21.8c-2.7,7.8-7.9,11.5-14.7,15.9c-6.7,4.4-11.7,8.1-20.1,5.7c-3.8-1.1-7.9-2-10,2.2
		c-1.1,2.2-1.2,6.1-4.1,7.5c-6.6,3.2-10.4-6.9-14.6-8.4c-7.2-2.6-14.5,2-20.1,6.1c-2.7,2-5.5,3.9-8.4,5.8c-3.1,2.1-6.7,4-9,6.9
		c-2.8,3.5-5.2,7.2-8.4,10.1c-3.3,3-13.2,7.6-17.6,4.5c-1.8-1.3-1.2-9.7-4.9-7.6c-3.1,1.7-1,8.7-6.2,9.6c-5,0.9-8.2-7.6-10.8-10.6
		c-3.5-4.2-8.4-6.9-11.7-11.4c-3.4-4.6-5.4-10.6-7.9-15.8c-2.2-4.5-4.9-9.7-6.3-14.5c-1.2-4.1-1.7-11.4-0.5-15.5
		c1.1-4.1,5.6-4.5,7.6-7.8c2.4-4,1.9-10.1,2.1-14.7c0.2-4.5,2.2-7,5.4-10c3.1-2.9,6.6-5.6,9.8-8.5c2.8-2.5,6.5-8.6,10.7-5.2
		c2.4,1.8,3.7,9.7,6.5,3.6c1.4-2.9,0.8-6.3,2-9.1c3-7.3,9.5,1.6,13.5-4c2.6-3.7,1-3.8-1.9-6c-3-2.3-4.5-5.8-5.4-9.2
		c-0.3-1.1-1.5-2.9-0.8-4.1c0.6-1.1,2.5-0.7,3.4-1.6c5.6-6-5.7-11.1-6.6-16.2c-0.5-2.9,3-6.7,4.6-8.7c2.3-2.9,3.7-4.9,5-8.4
		c1.2-3,4.3-6.2,4.4-9.4c0.2-3.6-3.3-8-4.4-11.4c-0.9-2.8,0.2-8.1-1.3-10.4c-1.5-2.3-6.7-3.6-8.8-5.3c-2.5-2.1-4.6-4.7-5.5-7.8
		c-1.4-4.4,0.1-4.6,3.4-7.2c4.3-3.3,1-4.5-1.6-8c-2.4-3.3-3.7-7.6-5.3-11.4c-1.2-3-3-5.9-2.2-9.4c0.9-3.6,5.3-6.1,8-8.4
		c2.5-2.1,4.2-4.9,6.6-6.9c3.6-3,4,0.1,7.8,0.7c4.6,0.8,7.6-4.1,9.8-7.4c2.8-4.3,5.1-7.2,9.3-10.5c2.7-2.2,2.1-3.8,2.2-7.1
		c0.1-7.7,8.3-1.6,12.3-6.3c5.4-6.3,9.8-15.1,17.1-19.5c5.8-3.4,14.3-0.3,19.5,2.8c7.4,4.6,14.7,5.4,23.5,6.3c3.4,0.3,6.6,1,9.4-1.5
		c1.7-1.5,2.7-3.6,4.3-5.1c1.7-1.6,3.8-2.5,5.5-4.1c3.7-3.5,6.6-7.9,8.8-12.4c1.4-2.9,3.5-5.9,4.6-9c1.4-3.8-0.2-5-1.5-8.5
		c-2.9-7.7,1.6-16.3,5.4-22.7c3.9-6.7,2.3-14.7,7.1-21c4.7-6.1,15.7-0.9,22.5-3.6c6.6-2.7,13.3-8.4,15.4-15.3
		c1.4-4.6,0.1-16.6,6.2-17.8c5.5-1.2,13.7,7.3,18.2,10c3.2,1.8,7.4,1.8,10.6-0.1c3.3-1.9,3.9-5,0.3-7.1c-3.3-1.9-7.8-1.2-11.2-2.9
		c-3.1-1.5-5.6-3.7-8.1-5.8c-5.5-4.6-13.8-5.1-20.8-5.3c-3.7-0.1-7.3,0.2-10.9-0.6c-2.6-0.6-7.4-1.1-9.4-3.1
		c-5.1-5,1.2-13.4,2.3-18.4c0.7-3.2,1.2-6.8,0.5-10.1c-1.1-5.8-4-10.6-3.1-16.8c0.8-5.8,4.5-10.3,9.1-13.6
		c8-5.7,12.4-12.6,15.4-21.9c2.7-8.2,4.3-16.9,6.5-25.3c0.8-3,2.3-5.4,3.2-8.3c1.9-6.2-0.7-13.2-3.4-18.7c-1.1-2.2-3.2-4.8-3.8-7.2
		c-1-3.8,1-7.2,3.3-10.1c2.8-3.6,5.3-7.6,6.4-12.2c1-4.1,4-8.5,3.7-12.7c-0.3-4.4-5.1-6.6-8.4-9.1c-3.3-2.5-5.4-6.2-9.1-7.8
		c-2.8-1.2-6.8-1.6-8.8-4.4c-1.3-1.8-2.1-5.9-2.9-8c-0.3-0.9-1.1-2.8-0.9-3.8c0.3-2.1,1.3-1.4,2.5-2.9c2.7-3.4-0.2-6.4-0.9-10.3
		c-1.3-6.5-0.6-13.5,0.7-19.9c0.7-3.4,0.9-6.6,1.2-10c0.5-5.1,1.4-11,2.8-15.9c3-10.3,13-17,19.2-24.8c3.8-4.8,2.2-8.2,3.6-13.6
		c1.1-4,3.7-5.5,7.1-7.5c4.4-2.6,10.5-10.8,15.7-7.3c2,1.2,4,6.1,7.2,3.9c4.9-3.3-1.9-7.2-2-9.4c-0.2-3.3,6.7-5.2,9.3-5.3
		c4.5-0.3,3.6,5,6.9,4.3c0.1-2.3-0.6-5.6,0.4-7.8c1.5-3,4.8-2.4,7.7-2.5c4.9-0.3,4-2.7,7.5-5c3.5-2.4,5.6,2.1,6,5.3
		c0.3,2.4-2.9,7.6-1.2,9.4c2.8,2.9,7.3-3.6,8.5-5.3c1-1.4,2.1-2.6,3-4.1c0.6-1,1.4-3.4,2.2-4c3.7-3.1,8.8,4.1,11.2,6.3
		c2.6,2.3,6.1,4.6,6.3,8c0.1,2.1-2.4,8,2.2,6.3c2.1-0.8,3.4-5.2,6.5-2.5c2.3,2,0.2,5.9,4.7,5.6c0.1-2,0-3.9,0.1-5.8
		c2-1.2,5.4,0.5,7.1-0.7c1.3-0.8,0.9-6.1,4-3.8c2.3,1.8,0.8,5.2,3.5,6.7c2.7,1.5,6-0.2,8.8,2.1c2.3,2,2.4,4.8,1.9,7.6
		c-0.5,2.2-1.9,6.6,2.7,4.9c4-1.5,0.9-6.4,5.4-7.2c2.7-0.5,6.7,0.3,9.4,0.6c3.5,0.5,5.4,1.3,7.5,4.6c1.4,2.1,2.7,6,5.3,7.3
		c2.5,1.2,5.1,0.4,5.9-1.7c0.6-1.5-0.4-3.6,1.2-4.9c3.7-3.1,6.8,1.2,7.8,4.1c0.8,2.5,1,7,4.8,6.2c4.6-0.9,0.7-7.9,2.9-9.9
		c1.9-1.7,8,0.6,9.9,1.3c2.6,0.9,5.1,3.8,7.4,2.5c2.4-1.4,1.6-4.8,2.5-6.9c1.2-2.7,4-4.6,7.1-5c5.9-0.9,2,4.5,5.1,4.7
		c0.4,0,0.8,0.1,1.2,0c-0.2-3.1,0.7-4.5,3.5-5.3c4.3-1.2,7-0.5,9.6-5c1.2-2.2,0.6-2.5,3.2-3.7c4.2-2,10.4-1.6,15-1.6
		c4.4,0.1,10,1.6,13.6,4.4c3,2.3,3,5.8,6.6,7.5c3,1.4,8.5,2.8,11.5,1.2c1.2-0.6,1.9-2,2.9-2.4c1.8-0.9,4.2-0.3,6-0.6
		c5.4-1.2,8.5-4.7,11.7-8.6c4.6-5.7,10.7-8.8,17.5-10.5c3.5-0.9,6.8-1.3,10.2-2.4c3.7-1.2,6.6-3.2,10-4.8c7.7-3.6,16.3-3.4,24.7-3.4
		c5.8,0,10.5,0.8,15.5,3.5c4.3,2.3,10.3,2.3,15.2,1.2c4.9-1.1,10.3-3.5,14.7-5.8c4.2-2.2,7.9-4.9,12.1-7c3.7-1.7,7.5-3,11-5.1
		c2.3-1.4,6.8-5.7,9.6-5.2c2.4,0.3,4.7,4.7,6.6,6c6.9,4.5,8.4-3.6,14.1-5.4c3.1-1,4.4-1.3,6.6,0.9c2.1,2,3.1,4.4,5.8,5.4
		c2.6,0.9,6-0.2,7.5,2.7c1.1,2.1-1,6.8,0.5,8.5c1.4,1.5,6.3,0.4,8.2,0.9c3.3,0.9,6.3,3.4,8.1,6.1c4.8,7.8,2.9,17.5,4.2,26.3
		c1,7.1,0.3,14.7,0.3,21.8c0,7.3,0.6,14.4,0.6,21.6c0,5.5,0.1,11-0.6,16.4c-0.5,3.6-0.9,8.5,0.3,12c3,8.2,9.9,14.6,15.1,21.2
		c1.7,2.1,3.7,5.3,3,8.2c-0.8,3.3-3.7,2.7-5.3,5c-2.8,4.2,3.2,3.5,5.7,4.1c2.5,0.6,7.6,2.8,7.4,6.1c-0.2,3.5-5.8,2.4-5.7,6
		c0.1,3.6,6.2,5.2,8.2,7.9c3.9,5,4.2,13,7.1,18.7c3.1,6.1,7.5,9.6,12,14.7c4.4,5,9.1,11.6,14.3,15.6c3.6,2.8,12.3,4.2,12.1,9.7
		C48.1,899.6,44.7,902.8,43,906z M-554.3,1052.2c-0.2,1.3-0.2,3.9-1.2,4.8c-1.8,1.7-7.2,0-9.4-0.2c-2.2-0.1-4.3-0.2-6.3,0.9
		c-1.4,0.9-2.9,2-4.1,3.1c-0.9,0.9-1.9,2.6-3.4,2.7c-1.9,0.1-2.8-2.2-3.3-3.7c-1.4-4.7,0-10.2,1.3-14.7c1.5-5.1,2-10.2,4.6-15
		c0.8-1.6,1.5-2.5,3.3-2.7c2.3-0.3,3.2,0.9,5.2,1.6c2.1,0.8,3.9-0.5,5.9-1.2c2.1-0.7,4-0.8,6.2-0.8c1.4,0,3.4-0.3,4.6,0.5
		c1.5,0.9,0.9,2.1,0.1,3.2c0,0,0,0.1,0,0.1c-0.6,1.5-1.7,3-2.1,4.5c-0.8,3.2-1.2,6.8-1.4,10.1C-554.3,1047.7-554,1050-554.3,1052.2z
		 M-565.8,857.2c0.2-3-0.2-6.5,1-9.3c1-2.4,2.5-4.6,4-6.7c0.9-1.3,2.2-3.7,4-2.9c1.3,0.5,1.7,2.2,3.2,2.7c1.7,0.6,3.5,0.2,5.2,0.6
		c1.6,0.5,3,0.9,4.2,2c1.3,1.2,3.3,3.6,3.8,5.3c0.7,2.2-0.5,2.6-1.9,3.9c-3.6,3.1-5.5,8.5-8,12.5c-2.3,3.6-2.1,8.7-0.8,12.6
		c1.4,3.9,3.9,7.5,5.5,11.3c1.6,3.5,5,7.6,3.9,11.7c-0.5,1.8-1.9,3.2-2.4,5c-0.5,1.6,0,4.4-0.9,5.8c-2.3,3.5-5.7-3.6-6.7-5.1
		c-2.6-3.9-5.8-7.5-8.2-11.5c-1.6-2.8-3.1-5.6-4.8-8.3c-1.3-2.1-3-4.2-3.7-6.6c-1.3-4.7,2.4-8.5,2.5-13.2
		C-565.8,863.7-566,860.4-565.8,857.2z M50.5,350c-0.7,4.4-7.5,10.9-10,15c-3.1,5.1-6,10.2-10,14.4c-4.5,4.6-10.5,4.7-14.9,8.1
		c-7.4,5.8,1.7,4.6,4.5,8.5c2.4,3.3-2.7,12.5-5.6,15.3c-4.5,4.5-4.8,0.2-8.9-0.6c-4.9-1-7.9,0.6-12,4c-3.9,3.2-3.6,0.9-1,5.7
		c1.8,3.3,5.9,3.3,3,8.3c-1.8,3.1-6,3.9-9.4,3.7c-7.6-0.5-9.6-11.3-13.6-17.5c-1.9-3-14.1-18.1-14-5.1c-6.8,0.9-10.7-12.8-15.4,0.1
		c-3.6,9.8,8.1,8.4,15.4,10.1c2.2,7.6-7.2,3.5-11.1,4.3c-6.1,1.1-5.7,3.2-5.6,9.4c0,10,2.3,23.5-2,32.4
		c-11.8,1.8-15.4-18.6-29.7-17.4c-17.8,1.5,2.2,17.8,8.6,21.7c7.7,4.6,23.3,11.4,12.5,22c-6.1,6-6.3,0.7-10.6-3
		c-5.1-4.4-9.2-2.4-5.4,3.5c1.4,2.3,4.7,2.9,5.9,5.2c1.8,3.4-0.1,2.5-0.6,6.1c-1,6.8,1,7.3,6.9,8.9c0.9,3.1-1.9,9.2-4.9,9.3
		c-2,0-7.6-6-10-7.4c-6.4-3.7-11.9-6.6-19.9-6.3c-2.1,10.9,14.1,16.6,22.4,20.7c8.4,4.1,16.4,8.6,24.7,13.1c5.7,3.1,13,8.2,19.6,8.7
		c-0.6,0.9-2.1,3-2.4,4c-1.4,5.6-3.4,12.8-9.4,11.9c-4-0.6-9.1-5.7-12.5-7.9c-10.7-6.8-22.5-12.8-34.3-18c-6-2.7-12.3-5.7-18.2-8.7
		c-8.5-4.4-2.6-5.7-6.9-11.9c-4.1-6-25.8-3.6-30.4,0.5c2.7,4.2,11,7.8,15.5,10c6.6,3.2,13.2,6.6,19.8,9.9
		c13.8,6.9,25.8,16,38.8,23.9c7,4.3,16.8,5.7,23.2,10.5c3.1,2.4,2.6,0.5,2.6,4.6c0,2.4-1,4-1.9,6.1c-4.3,9.8-15.7,11.5-24.1,5.4
		c-3.8-2.8-6.1-6.4-10.7-8.8c-4.8-2.6-9.9-4.3-14.5-7c-7.6-4.5-15.2-8.2-23.4-11.5c-14.3-5.7-30.4-7.2-43.6-15
		c-9-5.3-26.1-17.3-36.4-8.8c-10.3,8.5,2.4,20.2,12.2,15.9c2.1-0.9,0.5-4.2,4.7-3.2c1.8,0.5,3.1,4.8,4.6,6c3.9,3.2,8.7,2.3,12.9,4.5
		c-2.7,6.6-2.6,13.4,6.3,16.3c1.9,0.6,9.5,0.7,11.2-0.1c3.3-1.7,3.1-5.8,6.2-7.4c13.1-6.5,15.4,17.5,15.6,24.4
		c0.4,12.1,13.8,11.9,13.8,25.6c0,14.4-12.1,19.1-23.7,24.4c-6.7,3-13.3,4.5-20,6.9c-6.1,2.2-10.5,5.4-17.5,5
		c-6.6-0.4-8.4-2.5-13.7-5.7c-5.9-3.5-11.1-4-17.5-5.6c-6.7-1.7-21.7-18.6-25.6-5c-0.6,2,1.3,5.6,0.7,8.1c-0.5,2.2-2,3.7-3,5.5
		c-3,5.5-5,7.3-10.1,10.6c-13.4,8.8-27.2,10-43.3,10c-7.4,0-14.9,0-22.3,0c-5.2,0-13.4-1.6-18.1,0.7c-4.3,2-5.6,8.7-10.6,10
		c-5.2,1.4-11.7-3.3-14.2-7.5c-4.1-6.7-0.9-9.7,1.8-15.5c2.4-5.1,1.7-10.6,3.8-15.8c2.8-7.1,7.8-13,11.5-19.8
		c1.4-2.6,3.7-5.2,4.8-7.6c1-2.1,0.8-5.1,2.4-6.9c3.1-3.5,6.3-0.2,9.8-2.1c4.4-2.4,7-12.7,10.7-16.8c2.4-2.6,5.5-3.4,5-7.5
		c-0.5-3.7-3.8-2.1-3.1-6.3c0.7-4.5,8.8-10.9,10.8-15.5c4.8-1.4,3.4,3,6.3,4.1c12.4,5.1,5.4-21.3,6.1-26.7
		c1.5-11.5,16.8-17.4,24.2-26.2c8.4-10,13.7-23.9,17.6-35.7c1.1-3.3,17.7-24.2,4.5-23.2c-1.8-5-0.8-9.9,2.6-13.6
		c3.6-4.1,11.5-2.7,14.1-6.2c4.3-5.9-5.7-7.2-6.1-11.3c-0.3-3.7,5.2-7.8,7.3-10.6c5.8-7.7,6.9-17.1,15.8-21.8
		c5.4-2.9,16.6-7,17.5-14.1c1.1-8.8-12.4-4.8-14.7-14c-1.7-7,4.3-14,2.2-21.2c-1.6-5.3-7.9-8.9-3.1-14.2c1.8-1.9,5.1-0.7,6.3-3.8
		c1.4-3.9-2.9-4.7-3.1-6.3c-0.7-8.2,12.6-18.5,18.1-23.6c7.9-7.3,17.1-8.4,19.9-20.2c3.4-14.2-1.6-28.9,3.1-42.5
		c4.4-12.7,10.5-25.1,20.5-34.4c8.2-7.6,13.5-12.4,23.9-16.1c2.3-0.8,4.5-1.5,6.7-2.3c7.8-2.7,15.3-5.5,20.8-12
		c7.7-9,15.6-20,11.7-32.5c-1.1-3.7-4.6-9-7.9-11.4c-5.1-3.5-11.5-1-17.4,0c-9.5,1.5-27.9,4.5-36.2-1.3c-8.8-6.2-4.1-20.3-2.4-29
		c2.1-10.3,10.8-18,12.1-28.4c0.6-4.4,0.1-7.2,1.3-11.4c1.4-4.9,3.7-9.1,4.4-14.3c1.2-8.8,0.4-19.9-2.6-28
		c-3.6-9.5-6.1-13.7-4.2-23.8c4.5-23,25.5-37.9,38.2-57.3c6-9.1,6.8-14.6,18-18.3c4.2-1.3,11.8-2.1,9.3-8.1
		c-1.6-3.7-10.3-6.8-13.5-8.8c-2.2-7.4,11.4-7.7,15.6-9.1c6.4-2.1,10.7-5.3,15.5-10.8c10.1-11.6,13.7-23.2,29.3-28.1
		c11.8-3.7,24-7.7,36.4-9.6c14-2.1,28.2,0.3,41.8-4c18-5.8,29.1-20.7,32.5-38.9c1.4-7.6,4.5-17.5,2.5-24.9
		c-2.5-9.1-9.6-16.5-14.5-24.4c-6.6-10.5-1.6-20.2,4.4-30.1c4.9-8.1,16.2-15,17.6-24.9c1.5-9.9-5.5-16.1-7.6-24.7
		c-0.3-1.1-0.5-2.3-0.5-3.4c-0.3-5.7,2.3-8.1,3.1-13.1c0.9-4.9-0.8-10.2,0.7-15c4.8,2,8.6,14.7,11.3,19.3c5.3,9,11.6,15.2,23,16.7
		c10.7,1.4,23.6,2.1,30.6-6.6c3.9-4.8,6.5-11.1,8.4-17.7c1.8-6.1,3-12.5,4-18.1c1.1-6,0.3-12.4,1.1-18.6c0.9-6.4,3-12.1,4.5-18.3
		c2.5-10,7-18.7,6.7-28.6c-0.3-10.6,8.5-14.8,16.5-21.2c5-4,5.2-6.7,6.7-12.7c1.4-5.3,4.5-9,8.2-13.2c6.2-6.9,14.1-14,12.4-24.1
		c-8.6,6.1-11.8,16.5-21.7,21.5c-11.8,5.9-30.2,7.8-25.9,24.7c1.8,7.2,2.5,8.6-0.8,15.6c-3,6.4-4.6,12.9-5.9,20
		c-3.1,17.1-7.7,33.1-8.6,50.4c-0.3,5.8-0.8,13.8-2.8,20.8c-2,7.1-5.4,13.3-11.6,15.9c-10,4.1-27.4,4.2-34.4-5
		c-3.8-4.9-5.7-10.5-8.6-16c-2.8-5.3-7-6.9-10.8-10.9c-4.8-5.3-5.9-18.3-4-27c0.3-1.6,0.8-3,1.3-4.2c2.4-5.4,4.6-8.4,2.6-14.8
		C94-424.1,84-428.1,81-436.4c-2.4-6.6,1.2-13.8-0.8-20.7c-3.2-10.5-8.4-19.6-10.8-30.6c-2.1-9.3,4.5-19,5.7-28.1
		c2.1-16.2-17.1-8.4-18.8-19.4c-0.8-4.7,7.4-9.3,10.2-12.4c3.6-4,6.5-8.5,9.2-13.1c2.4-4.2,4.5-8.3,5-13.2c0.8-6.7-2-7.6-6.7-10.8
		c-4.7-3.1-7.8-4.5-8.2-10.5c-0.3-3.7,0-10.6,2-13.6c2.2-3.3,8.2-4.9,11.2-6.9c6.3-4.1,3.4-6.7,5.5-13.1c0.9-2.7,2.6-3.3,3.1-6.4
		c0.5-2.6-0.3-5.5,0-8.1c0.7-5.3,3.5-9.4,6.1-14.4c5.4-10.1,11.1-18.7,18.4-28c2.5-3.2,6.8-6.8,7.9-10.7c1.7-5.7-0.7-13.4-3.1-18.1
		c-5.2-10-14.7-16.8-19.5-26.8c-9.9,10,6.2,18.4,11.8,24.3c8.4,8.8-0.5,20.1-6,27.7c-7.9,10.9-13.8,22.1-18.4,34.8
		c-3.6,9.9-5.1,22-12.4,29.9c-4.2,4.6-9.6,8.1-13.6,13.2c-3.9,5-3.4,9.5-2.8,15.6c0.5,4.9,0.8,13.5,4,16.7c3.3,3.2,9.9,2.6,14.2,4
		c-4.1,10.2-9.7,17.1-19.9,22.9c-6.4,3.6-9.9,6.1-9.4,14.5c0.6,9.2,5.8,11.2,13.1,14.4c5.1,2.2,11.4,5.5,7.3,11.8
		c-3.7,5.9-4.8,5.7-5.1,13.4c-0.2,6.5-0.6,13,0.2,19.4c1,7.6,6.1,12.6,9.9,19.3c6.1,11.1,0.7,23.1,5.3,34c2.5,5.8,8.2,6,11.5,10.6
		c3,4.2,1.6,9.6,0.8,14.5c-0.2,0.9-0.3,1.9-0.5,2.8c-2.5,11.2-8.1,21.3-8.9,33.4c-0.7,11.5,3.6,22.3,6.7,33.1
		c2.8,9.8,4.8,19.6,1.2,29.9c-4.5,13.3-18.6,11.8-24.7,23.2c-10,18.4,13.3,40.1,19.2,55.6c3.5,9.1-2.9,22.3-6.4,30.6
		c-4,9.3-12.5,17.5-23,18.7c-24.8,2.8-50.9-3-74.2,5.6c-14.7,5.4-25.2,16.8-33.9,29.6c-8.2,12.1-13.9,12.5-27.4,15.3
		c-14.2,2.9-17.9,21.6-22,33.6c-3.5,10.1-9.2,22-14.7,31.1c-4.6,7.7-14.8,11.7-20.1,20.2c-8.1,13-10.4,27.4-8.1,42.5
		c2,13.2,11.1,22,8.8,36.2c-2,12.7-4.9,26.5-10,38.8c-2.7,6.5-6.6,12.5-9.6,18.7c-4.8,9.8-2.8,12.7,1.4,22.4
		c5.6,12.8,19.9,21.8,34.3,20.7c10.2-0.8,29-6.3,31.9,7.5c2.5,12.1-7.9,18.2-16.9,23c-2.4,1.3-4.8,2.3-7.3,3.2
		c-4.1,1.4-8.3,2.4-12.7,3c-14.7,2.2-24.8,5.1-35.3,16.4c-8.6,9.2-13.8,20.9-16,33.2c-1.3,7.3-2.6,14.5-3,21.9
		c-0.3,7,1,14.3-1.4,20.9c-2.1,5.7-17,26.3-24.2,23.9c-5.2-1.7-6.6-8.8-13.2-7.1c-5.2,1.4-6.7,8.1-9.7,11.8
		c-10.1,12.8-15.7-3.1-19.7-11c-5.7-11.1-3.4-18.9-2.3-30.6c1.1-10.9-0.6-21.8,1.8-32.1c0.2-0.8,0.4-1.5,0.6-2.3
		c3-9.9,9-22.6,5.5-33.1c-2.8-8.4-12-19.6-20.5-22.4c-11.9-4-31.3-1-43.5,1.1c-7,1.2-13.6,4.2-20.2,6.2c-5.5,1.7-14.1,3.4-18.8,7
		c-6.7,5.2-7.3,13.8-11.3,19.8c-1.4,2-3.1,3.8-5.5,5c-8.8,4.5-20.5,4.3-30.6,4.3c-13,0-19.6-2.4-25.5-14.4c-4.6-9.4-11.9-19.7-14-30
		c-2.4-11.8-1-27.6,0.2-39.5c0.6-6.3,1.2-11.4,3-17.2c7.3-23.5,19.5-43,31.5-64.3c7.7-13.6,12.5-27.9,19-42.5
		c6.6-14.9,12.9-29.9,19.6-44.5c6.7-14.4,14.1-29,18.3-44.3c3.3-12,10.3-21.5,14.1-32.9c1.7-4.9,0.3-10.3-1.9-14.5
		c-2.9-5.7-3.6-7.3-3.6-14.4c0-4.7-2.4-10.7-1.3-15c1.2-4.7,6.4-5.9,8.6-10.1c3.9-7.6,2.2-28.5-6.1-33.1c-3.4,4.9-3.1,12.6-3.7,18.8
		c-0.7,6.6-3.9,12.8-4.9,18.9c-2.3,14.2,4.1,24.5,6.1,37.4c1.7,10.6-6.4,19.4-10.8,27.9c-6,11.5-9.7,23.6-14.1,35.8
		c-6.5,18.1-12.7,35.9-23.7,52.5c-8.2,12.2-17.6,22-21.7,36.4c-4.5,15.7-14.5,30.2-20.9,45.5c-4.1,9.7-7.9,20-11.2,30
		c-2.4,7.3-6.4,14.3-7.2,21.9c-0.7,6.5-0.7,13.8-0.8,20.4c-0.2,14.6,1.5,30.2,8.5,43.3c3.6,6.8,7.2,13.9,10.7,20.7
		c2.7,5.3,3.9,9.8,9.3,12.5c10.9,5.5,26.3,3,38.1,2.5c4.5-0.2,11.4,1.3,15.1-0.6c5.8-2.8,8.7-9.2,11.9-15.3c2.4-4.7,5-9.1,9.2-11.5
		c16.6-9.3,38.7-8.1,57-11.6c9.2-1.8,21.8-3.4,29.3,3.7c7.4,7,5.9,24.9,3.6,34c-0.6,2.3-1.1,4.6-1.6,7c-2.7,12.4-4.2,25.1-7.6,37.3
		c-3.8,13.3-7.2,26.6-7.6,40.7c-0.2,8.7,1.7,17.5,2.6,26.1c0.8,8.3,4.1,15.6,6.4,23.3c2.6,8.8-0.1,17.8-3.3,26.1
		c-3.3,8.4-4.5,18-9.6,26.1c-5.3,8.4-12.9,15.2-19,23.3c-4.8,6.4-10.3,17.3-17.5,21.1c-0.1-0.2-0.2-0.4-0.3-0.5
		c-3-0.9-4.8-11.1-6.1-13.8c-2.1-4.4-4.9-10-8-13.7c-6.7-8.1-18.9-9.5-27.7-15.6c-9.4-6.6-21.7-16.8-33.8-16.8c-7.8,0-7.2,5.4-3,9.3
		c3.6,3.4,9.6,5.8,13.9,8.5c6.4,4.1,13.2,8.2,20.3,10.6c5.4,1.9,12.5,2.6,16.6,6.3c3.8,3.5,5.6,10.5,9.2,14.6
		c4.6,5.4,9,6.3,6.1,13.6c-4.8,12.3-15.6,22.2-21.7,33.8c-3.8,7.2-4.5,5.3-10.2,0.8c-5.3-4.2-10.9-8.1-16.3-12.5
		c-8.9-7.3-18.5-13.9-27.1-21.6c-3-2.7-7.3-7.7-12.1-6.1c-6.4,2.3-5,8.6-2,12.5c4.2,5.5,9.7,8.7,14.7,13.6
		c5.8,5.7,11.2,12,17.5,17.5c6.3,5.6,12.5,9.1,19.8,13.3c6.9,3.9,13.1,9.8,20,13.3c2.7,12.5-11.2,23.2-17.7,31.6
		c-3.6,4.6-5.8,13.5-11.7,16c-7.1,3.1-13.3-4.1-19.9-5.2c-26.2-4.5-14.7,39.1-34.3,41.2c-7.3,0.8-18.2-11.5-23.6-15.8
		c-8.1-6.5-17.2-17.9-27.8-19.2c-18.3-2.2,3.9,13.7,7.6,16.9c8.1,6.6,15.3,15.4,25.6,18.7c2.1,0.7,6.2-0.3,7.4,2.5
		c1,2.4-2.5,4.5-1.7,6.9c1.7,5.2,14.6,2.9,10.1,11.3c-2.7,5-10.5,2-14.6,3.7c-4.4,1.8-6.7,7.3-9.3,10.8c-3,4-5.5,11-9,14.2
		c-5.4,5-13.5,1.7-19.7,3.1c-5,1.1-9.5,6.3-13.8,8.9c-5.2,3.3-9.5,6.4-15.8,7.5c-5.6,1-9.7,0.1-14.4,3.4c-5.5,3.9-5.7,6.7-10.5,0.1
		c-3.3-4.5-5.2-7-11.7-3c-3.6,2.2-7,6.7-10.8,9.2c-3.7,2.5-8.4,5.1-13.7,3.7c-6.4-1.7-5.1-6.6-7-11.9c-3.9-10.8-14.1-13.7-23.5-18.3
		c-13.8-6.7-3.5-13.4-5.1-25.4c-0.9-6.6-5.3-6.1-7.6-11.8c-1.7-4.1,0.9-10.4,2.7-13.8c2.7-5.3,3.9-6.4-1.1-11.4
		c-4.2-4.2-8-4.5-13.9-4.2c-11.7,0.4-17.8-6.7-20.6-18.1c-1.2-4.9-1.6-10.1-3-15c-2-7.5,0.5-6.3,3.7-12.4
		c2.4-4.6-6.9-26.2-13.2-24.9c2.2,7,10.9,12.1,10.6,19.9c-0.2,4.5-3.1,3.8-4.4,7.3c-0.9,2.6,0,3.7,0.5,6.4
		c1.1,5.5,2.5,11.3,3.8,16.8c1.5,6.5,1.6,14.2,6.5,19.4c4.7,5,10.5,3.4,16.8,3.7c4.8,0.3,11.2,1,11.8,6.9c0.6,5.4-6.1,9.3-5,15.6
		c1,5.7,6.9,6.4,8.8,11.7c2,5.5-2.1,10.9-2.5,15.8c-1.1,11.9,13.8,15.8,22,21.1c6,3.9,6.9,4.1,8,11.4c0.8,5.3,1.8,9.9,7.3,12.5
		c3.9,1.9,11.7,2.2,16.4,1.2c6.8-1.4,6.6-6.2,11.9-10c4.1-2.9,8.5-3.1,12.3,1.3c2.5,2.9,3,1.9,0.2,5.1c-8.2,9.4-20.2,8.6-22.5,23.5
		c-1.3,8.2-5.9,21.3-15,24.5c-9.1,3.3-16.1-8.8-25-5.1c-9.2,3.9-8.2,15-11.7,22.6c-5.1,10.8-13.1,17.3-22.7,5.6
		c-2.4-2.9-3.7-10.8-8.1-11.3c-4.5-0.5-7.3,7-9.4,10c-2.2,3.3-4.8,10.8-9.4,9.4c-3.1-0.9-6.5-11-8-13.8c-4.7-9-7-18.4-15.7-24.5
		c-9-6.3-18.1-11.6-27.2-18c-3.9-2.7-13.4-6-7.9,1.7c3.3,4.6,13,5.3,17.5,8.3c4.7,3.1,6.1,6.9,8.9,11.9c2.8,5.2,6.6,8.9,10.4,13.1
		c4.2,4.6,9,9,11.3,15c2.1,5.5-0.5,13.4,2.6,18.1c13,1.5,20.1-22,33.8-11.2c5.1,4,6.7,7.9,14.8,6.3c6.1-1.2,9.6-5.9,12.5-11.1
		c3.2-5.7,3.1-12.4,6.7-17.7c2.2-3.2,11-8.2,15.1-5.1c3.9,3-0.9,13.9-2.5,17.7c-3.1,7.3-9.2,12.2-12.3,19.2
		c-5.4,12,9.5,14.9,4.7,26.8c-7.8,2-9.3-7.8-17.3-6.7c-7.2,0.9-12.9,5.9-16.9,11.8c-1.9,2.8-2.5,7.7-7.5,6.1
		c-1.8-0.6-3.1-8.9-6.7-5.6c-6.1,5.6,4.7,14.1,10.2,13.8c7.9-0.4,10.2-9.8,16.5-13.1c5.6-3,9.1-1.1,14.4,0c4.7,1,14.2,0.1,13.2,8.2
		c-0.3,2.3-3.7,4.2-4.6,6.2c-0.9,2.1-1.5,5.8-1.7,8.1c-1.1,11.8,0,24.4,0,36.2c0,12-6.8,20.1,5.7,27.4c6.3,3.6,6.3,5.4,9.9,11.4
		c2.7,4.6,7.1,6.1,4.4,13c-3.5,9-10.2,17.4-12.6,26.9c-3.6-4.4-5.2-10-10.5-14.3c-2.6-2.1-4.8-4.2-7.5-6.1c-2-1.4-6-2.1-7.5-3.4
		c-4.8-4.2-0.2-10-3.7-14.8c-1.9-2.6-6.9-2.4-8.1-5c-0.2-0.4-0.2-0.9-0.1-1.5c0.4-1.9,2.1-4.6,1.9-6.6c-2.1-18.2-17.5,3-21.3,6.7
		c-6.7,6.7-20.5,8.9-29.5,11.9c-11.4,3.8-21.4,3.7-29.7-5.7c-4.3-4.8-10.8-21.1-19.6-18.6c-4.6,1.3-5.6,9-9.6,11.3
		c-4,2.3-13.3,0.9-17.8,0.6c-7.2-0.4-31.3-9.9-36.9-3.1c-0.6,0.8-0.9,1.4-0.9,2h0c0,3.4,8.7,4.6,11.5,5.4c5.6,1.5,11.1,3.7,16.9,5.2
		c6.1,1.6,12.9,1.7,19.2,0.1c7-1.7,12.4-7.2,20.2-5.8c6.3,1.1,8.5,4.6,11.4,9.3c3.7,6.1,5.7,8.1,13.6,8.9
		c14.8,1.5,29.7-1.3,43.9-5.7c8.2-2.6,12.2-5.4,13.6-13.7c0.6-3.9,2.3-12.5,8.7-7.6c1.6,1.2,1.9,3.2,1.8,5.4
		c-0.2,2.5-1.1,5.1-1.2,6.9c-0.6,5.7,1.6,11.8-0.3,17.4c-1.2,3.7-0.9,7.2,1.4,10.6c0.6,0.8,1.6,4,2.7,3.9c1.7-0.1,0.4-3.3,0-4
		c-2-3.6-1.6-8-1.4-12c0.1-1.9,0-4.3,0.8-6.1c0.9-2.1,3.4-2.2,5-0.9c1.5,1.2,2.6,3.7,3.1,5.4c0.6,2.1-0.8,4.5,0,6.7
		c1,2.8,3.2,4.3,5.7,6.1c4.3,3.1,9.9,5.6,13.1,10c7.6,10-3.4,18.5-8.3,27.1c-5.7,9.7-5.4,22.9-8,33.9c-2.3,9.6-3.4,19.4-3.6,29.2
		c-0.2,8.3,5.2,16.8,3,25c-0.6,2-1.7,5.2-4.4,5.6c-4.1,0.6-3.2-3.6-6.3-5c-9.6-4.5-5.7,7.3-5,11.9c0.9,5.7,1.6,11.5,1.9,17.5
		c1,19.7-21.1,46.9-41.2,31.2c-9.6-7.5-13-16-27.5-13.8c-10.7,1.6-21,15.5-28.7,22.7c-9.5,8.8-18.1,15.3-31.2,17.8
		c-4.4,0.8-9.7,1.3-13.8,2.8c-5.3,2-7.1,7.2-8.8,12.2c-0.5,1.6-2,10.2-4.7,8.3c-2.1-1.5-2.3-7.9-2.4-10.2c-0.3-5.3,0.6-9.9,1.4-15.1
		c0.5-3.2-0.1-7.2,1-10.2c0.9-2.4,3.9-5.9,6.3-3.9c2.1,1.7,3.3,2.8,6.1,2.3c2.5-0.5,3.6-1.5,5.2-3.1c3.7-3.5,8.8-4.5,11.8-8.9
		c1.7-2.4,3.9-7,2-9.9c-2.1-3.2-6.5-4.1-8.7-7.5c-1.9-2.9-1.4-6.2,2.8-6.1c3.8,0.1,6.4,2.4,9.4,4.6c3.6,2.6,7.3,5.1,10.8,8.1
		c1.2,1,5.9,5.1,6.8,2.5c0.5-1.6-1.9-3.8-2.8-4.8c-3.6-3.9-8.8-7.3-13.5-9.9c-4.5-2.5-11.4-9.1-15.9-3.3c-2,2.5-2.6,5.5-2,8.7
		c0.6,2.9,1.5,4.1,4,5.3c2.1,1,4.8,1.2,5,3.6c0.2,2.1-0.5,4.7-1.7,6.3c-1.4,2-3.8,3.5-5.6,5.1c-2.4,2.1-6.1,6.8-9.9,5.2
		c-1.5-0.6-2.3-3.1-4-3.7c-6.1-2.2-8.2,6.7-8.7,10.7c-0.4,3.1-1,6.3-1,9.4c0,3.8-1.6,7.4-1.9,11.2c0,0.5-0.1,1-0.1,1.6
		c0,2.9,0.6,6,1.4,8.8c1.3,4.3,1.6,8.8,2.6,13.2c0.7,3,4.2,4,5.2,6.7c0.6,2-0.6,4.9-0.7,6.9c-0.5,8.4-0.8,16.7-1.3,25
		c-0.4,7.4,0.6,9.6-3.7,15c-2.4,3-3.3,1.1-3.8,5.6c-0.1,0.7-0.1,1.3-0.1,1.8c0,1.8,0.5,3,2,4.4c4,3.8,8.1,0.5,10,7.5
		c3.6,13.4-2.6,31.2,5,43.8c2.8,4.7,7.6,5.5,6.2,12.4c-1.2,6.2-5.7,11.4-9.6,16.1c-5.2,6.4-10.9,14-17.2,20.1v-104.3v0v-83v0V894.7
		v0V-762.5H497.8c-2.7,12.4-7.5,24-12.4,35.6c-5.1,12.1-8.9,24.9-12.4,37.7c-3.4,12.6-3.1,26-6.4,38.5
		c-7.5,28.6-24.3,55.6-34.3,83.4c-4.4,12.4-6.5,25.2-11.4,37.2c-5.5,13.5-11.1,26.3-16.7,40c-4,9.8-17.4,25.9-15.5,36.7
		c0.8,4.5,5.1,8,2.3,13.2c-3.7,6.8-12,0.5-14.9,8.1c-3.9,10.1-0.8,22.1-3.6,32.5c-3,11.2-11.7,22.2-17.6,32
		c-3.4,5.6-7.9,9.7-13.3,13.5c-3.1,2.2-9.5,4.3-10.5,8.3c-2,8.3,9.6,4.1,9.4,9.4c-0.1,2.1-11.3,7-13.3,9.4
		c-4.4,5.1-4.6,8.1-0.6,13.1c4.7,5.9,4.5,5.4,1.2,12.4c-5.5,11.6-8.6,24.5-15.3,36.2c-3,5.3-5.1,11.1-7.6,16.3
		c-3,6.3-7.5,10.6-11.2,16.2c-3.1,4.7-2.1,9.8-5.2,14.2c-3,4.3-7.5,7.5-11.1,11.4c-2.8,3.2-8,8.2-4.6,12.7c3.4,4.5,12.1,0.4,8.1,7.9
		c-2.9,5.7-8.5,2.1-12.9,5c-1.7,1.1-4.7,3.2-3.1,6.3c1,2.2,3.8,0.6,5.5,2c5.4,4.5-0.2,6.2-5.5,7.3c-6.3,1.3-7.3,1.8-10.8,7.5
		c-5.2,8.6-33.3,41.9-15,47.6c0,3.1-1.9,4.5-3.1,7.2c-0.8,1.8-0.8,4.5-1.7,7c-3.1,8.1-7,0-12.6,2.5c-3.7,1.6-4.9,8.8-7.4,11.9
		c-2.8,3.5-9.8,6.1-9.4,11.2c0.2,2.9,4.1,3,3.7,6.3c-0.1,0.9-4.2,3.9-5.1,4.8c-3.4,3.6-6.7,8.5-9.2,12.8c-2.6,4.4-4.8,9.1-7.6,13.6
		c-3,4.7-7.9,7.9-7.4,13.8c0.3,3.6,3.5,1.9,1.4,6.3c-1.5,3-2.4,2.4-5.1,3.1c-4,1-14.9-2.1-8.1,4.5c2,2,13.5,6.2,4.2,7.5
		c-5.6,0.8-9.4-7.4-15-4.4c2.9,3.1,6.1,5.9,8.9,9.3c-2.8,4.1-0.1,7.6-3.6,12c-2.4,3-7.1,4.2-10.2,6.3c-9.9,6.9-6.2,19.8-10.8,29.7
		c-1.6,3.3-5.5,4.8-7.9,7.2c-7.6,7.3-5.9,12,4.2,13.7c-0.6,5.7-9.9,1.7-11.7,7.3c2.5,0.3,4.9,0.8,7.3,1.5
		c-0.3,6.1-10.2,1.2-10.4,7.3c2,0.8,4,1.2,6,1.5c0.5,7.6-14.7,4.9-19.3,6.1c-5.8,1.5-7.8,4.7-1.9,8.1c4.4,2.6,10.9,0.1,15.6,2.9
		c4.7,2.8,6.4,9.5,2.5,13.3c-1.6,1.6-4.2,0.5-6.1,2.5c-1.5,1.5-1.7,5-2.6,6.9c-5.6,11.9,0.8,19,3.1,31.3c1.2,6,1.3,11.1-2,15.4
		c-3.7,4.8-11.1,7-13.8,12.2c5.8,1.7,14.2,5.7,10.1,12.8c-3.7,6.4-7,11.1-13.1,15.1c-2.6,1.8-6.6,3-3.7,6.3c0.8,1,4.4-0.8,5.7,0.6
		c2.3,2.3-0.6,2.3-0.2,3.6c0.5,1.5-0.2,2.8,0.8,4.4c0.3,0.6,3,1.5,3.6,2.2c3.7,3.5,5.5,5.2,2.6,9c-3,3.9-9.8,3.6-14.4,3.9
		c-5.6,0.3-11.7,2.8-4.4,5.6c5.1,2,9.6,0.6,14.2,4.6c3.6,3,3.8,9-3,9.2c-5.4,0.2-7.9-6.7-14.4-2.7c-6.7,4.2-1.9,7.8,3.8,8.3
		c3.3,0.3,13-1.2,11.9,4.4c-0.9,4.5-9.7,1.3-12.6,4.3c2.3,2.3,15.4,3.1,5.1,7.4c-5.1,2.1-12-1.9-14.9,4.5c5.1,2.9,11.5,0,16.3,2.3
		c6.7,3.2,3.3,7.3-2,9c-7.5,2.4-7.2,2.1-9.9,9.2c-1.8,4.8-5.1,10.8-10.8,11.9c-4.3,0.9-11.3-1-15.1-2.4c-7-2.5-4.2-5.4-8-10.2
		c-5.6-7.2-6.5,1.3-8.7,4.5c-3.7,5.4-10.6-0.4-13.8,3.1c-4,4.3,20.7,8.8,24.2,9.3c5.7,0.6,34,0.1,32.5,9.3
		c-8.8,0.5-18.9,0.1-27.4-1.7c-2.6-0.5-17.1-4.2-16.9,1.2C42,344.6,51.9,342,50.5,350z M101.6,398.2c-1.6,0.9-3.9,1.2-5.6,1.6
		c-2.1,0.5-3.3,0-4.8-1.7c-1.8-2-2.6-4-4.7-5.7c-2.1-1.8-3.6-3-3.6-5.8c0-1.8,0.2-3.3,2.2-3.9c2.3-0.7,5.1-0.3,7,1.1
		c1.3,1,1,1.8,1.5,3.1c0.6,1.5,2,2.1,3.2,3c0.9,0.7,1.7,1.5,2.6,2c0.7,0.5,2,0.6,2.6,1C103.9,394,103.3,397.3,101.6,398.2z
		 M77.6,450.6c-0.6,0.5-5.9,7.6-6.3,7.6c-2-1.1-2.8-3.7-4.1-5.5c-1.7-2.1-3.1-4.2-5.4-5.6c-1.8-1.1-4.6-2.6-4.5-4.9
		c0.1-2.2,2-2,3.4-3.3c1.5-1.4,2.4-4.6,4.4-5.4c1.9-0.8,3.4,1.4,4.5,2.6c1.7,1.8,3.7,3.4,5.8,4.6c1.8,1.1,5.5,2.7,6,5
		C81.9,448.4,79.2,449.2,77.6,450.6z M81.1,412.4c-1.9-0.4-2.4-2.6-3.6-3.7c-1.4-1.3-4.7-2.6-5.3-4.6c-0.4-1.6,1.9-3.2,2.6-4.5
		c0.7-1.2,0.5-2.4,1.1-3.4c0.5-0.9,1.6-2,2.3-2.6c1.4-1.1,2.9-1.5,3.8,0.2c0.5,0.9,0.3,1.6,0.9,2.4c0.8,0.9,1.9,1.4,2.8,2
		c0.9,0.6,3.8,4.2,1.6,5l0,0c-0.4,1-1.4,1.8-1.8,2.8c-0.4,1-0.5,2.1-0.9,3.1C84,410.7,83.1,412.9,81.1,412.4z M1479.7,982.4v35.6
		h-1.5c-5.3,0-10.4-1-15.6-2.2c-6.9-1.6-14.7-2-21.7-2.1c-6.3-0.1-12.1-1.8-18.3-2.3c-6.8-0.5-13.8-0.3-20.6-0.6
		c-11-0.6-23.2-1.2-33.1-6.3c-3.3-1.7-4.9-2.9-8.7-1.8c-4.2,1.2-8.5,2.5-12.8,3.7c-8.1,2.4-14,1.1-21.4-3.4
		c-9.4-5.5-21.7-3.5-32.3-3.5c-6,0-11.5,0.1-17.2,1.9c-6.3,1.9-12.1,5.1-18.2,7.6c-3.6,1.4-6.8,2.2-9.5,5c-2.4,2.5-2.3,4.6-5.7,2.4
		c-1.7-1-5.5-3.7-6.3-5.3c-1.5-3.5,2.4-5.3,4.3-7.1c2.6-2.6,3.7-5.8,5.7-8.6c2.2-3.1,5.5-5.5,8.4-7.8c2-1.6,3.7-3,5.2-4.9
		c0.6-0.8,1.2-2.4,2.3-2.8c3.2-1.2,6.3,3.2,9.8,2.7c3.8-0.6,7.5-4.3,9.8-7.1c3.3-3.9,3.7-9.2,9.4-10.2c4.2-0.7,8.4,0.7,12.2,1.8
		c1.8,0.5,3.7,0.9,5.5,1.3c1.8,0.3,3.5,0.6,5.3,1c9.1,1.8,18.3,2.9,27.3,4.9c15.8,3.6,32.3,5.7,48.3,7.9c18.7,2.5,38,1.3,56.8,1.3
		c10.4,0,20.7-0.2,31-0.9L1479.7,982.4L1479.7,982.4z M1479.7,912v56c-10,0.1-19.2,4.3-29.4,2.8c-3.2-0.5-5.1-2-8.1-3.3
		c-4.2-2-8.8-3.7-13.2-5.5c-10.2-4.1-22.4-4.3-33.1-3.3c-6.4,0.6-12.4-0.1-18.7-1.2c-3.9-0.7-7.9-0.2-11.9-0.4
		c-4.1-0.2-8.3-1.1-12.2-2.1c-6.7-1.7-13-3.4-17.6-8.8c-2.2-2.6-4-5.2-4.2-8.5c-0.2-2.7,0.2-5.4,0.5-7.9c0.5-5.2,0.8-11.8,4-16
		c2.7-3.7,5.3-6.9,9-9.5c3.2-2.2,6.4-4.3,9.6-6.5c4-2.8,15-11.1,12.3-17.5c-1.1-2.7-4.6,0.8-6.7,1.6c-2.6,1-5.5,0.4-8,1.5
		c-3.6,1.6-6.3,5.6-8.5,8.7c-2.9,4-6,7.3-9.9,10.4c-3.5,2.7-8,6.1-9.9,10.1c-2.1,4.4-2.9,9.6-2.9,14.4c0,4.7,0.5,9.1,1.7,13.6
		c1.2,4.5,3.1,7.7,2.6,12.6c-0.8,6.8-7.7,12.1-14.5,9.8c-6.2-2.1-8.1-9.6-12.9-13.5c-2.7-2.2-6.2-3.4-9.1-5.4
		c-0.3-0.2-0.6-0.4-0.9-0.7l0,0c-2.4-1.9-5-4.8-7.9-4.6c-3.8,0.2-8.4,3.9-11.7,5.7c-4,2.1-7.6,5.4-11.2,8.1
		c-8.1,5.8-16.6,11.7-26.4,14.1c-3.9,0.9-8.2,0.5-12.2,0.5c-4.5,0-9,0.3-13.4,0c-8.3-0.5-16-2.2-23.4-6.2
		c-7.8-4.2-18.9,1.5-26.6,3.2c-6.6,1.4-13,2.5-19.5,4.5c-5.1,1.5-11.1,1.9-15.7,4.3c-4.8,2.5-9.8,3.8-15,5.2
		c-5.4,1.5-10.5,3.6-15.9,4.5c-7.8,1.4-15.1,3.9-23,5.1c-9.9,1.6-18.4,7-28.1,9.3c-10.6,2.6-21.1,5.8-31.6,9c-7.9,2.4-16,4-23.7,6.7
		c-8.8,3.1-17.7,6.5-26.7,9.3c-5.2,1.6-10.6,3-15.9,4.5c-5.8,1.6-10.4,3.7-15.8,6.5c-7.5,3.8-15.1,7.6-22.6,11.5
		c-14.8,7.5-29.5,15-43.9,23.2c-9.3,5.3-18.3,10.7-28.1,15c-5.6,2.5-12.7,4-17.1,8.5c-1.3,1.3-1.8,2.9-3.8,2.6
		c-2.1-0.3-1.7-2.3-3-3.1c-1.6-1-4.2,0.5-5.7,1c-7.1,2.7-13.4,8-20.1,11.7c-14.9,8.3-31.1,15.6-47.7,19.6
		c-11.1,2.7-22.1,6.2-33.1,9.3c-8.9,2.6-16.9,5.7-25.1,10c-2.7,1.5-5.7,2.4-8.5,3.7c-1.8,0.8-3.5,2.7-5.4,3.2
		c-5.8,1.7-5.9-7.6-10.5-6.6c-3.1,0.7-6.4,3-9.6,4c-13.3,3.9-27.2,5.9-40.5,9.3c-8,2.1-16.3,2.2-24.3,4.6
		c-7.8,2.4-15.3,5.2-22.8,8.7c-7.2,3.3-14.7,6.5-22.1,9.1c-4.8,1.6-10.3,2.4-14.5,5.4c-2.3,1.6-4.5,4.6-7.6,3
		c-1.7-0.9-3.4-4.5-4.2-6.2c-2.6-5.2-5.6-11.4-5.6-17.3c0-10.6-2.2-28.5,10.4-32.8c6.7-2.3,14.4-4.3,21.5-5.3
		c7.4-1.1,12.8-4.4,19.2-7.8c1.5-0.9,3.8-2.6,5.6-2.4c1.9,0.3,2.6,2,4.9,2.1c2.2,0.1,4.2-2.2,6.1-1.9c1.1,0.2,1.2,1.4,2.3,1.9
		c0.9,0.5,2.4,0.1,3.4,0c6.2-1,11.5-5.3,17.1-8.1c4.1-2.1,7.9-4.6,11.8-7c3.1-2,5.9-4.7,9.7-3.4c5,1.8,8.8,5.8,13.6,8.2
		c4.2,2,11.1,2.4,15.2,0.2c1.9-1,2.2-2.1,4.5-2.3c2.9-0.3,4.2,1.5,6.7,1.9c4.3,0.7,10.2-3.7,12.9-6.6c3.6-3.9,6.3-8.4,10-12.1
		c3.1-3.1,6.5-9.8,11.4-8.4c5,1.4,7.5,7.3,13.1,6.6c4.2-0.6,7.7-3.8,11.2-5.9c2.2-1.4,3.7-3,5.4-0.2c1.1,1.9,0.7,6.1,4,4.2
		c2.2-1.3,2.9-3.8,5.5-4.6c2.7-0.9,3.9-0.2,5.7,1.1c4.7,3.3,12.1-0.1,16.8-2.4c4.3-2.1,8.6-4.3,12.7-6.7c5.9-3.6,11.6-6.9,17.3-10.8
		c15.7-10.6,31-21.7,46.5-32.4c5.6-3.9,11.3-7.6,16.5-12c3.9-3.4,8.6-7.1,13.6-8.7c7.3-2.4,12.7,3,19.5,3.9c6.7,1,12.9-0.1,19.5-0.9
		c6.7-0.8,12.7-2,19-4.5c6.3-2.6,12.9-4.9,19.1-7.9c6.4-3.1,12.5-6.5,19.4-8.5c4.9-1.4,9.4-2.7,13.6-5.5c1.9-1.3,4.6-2.5,6.8-1.4
		c1.7,0.9,0.5,2.1,2.6,1.3c0.6-0.3,1.5-1.6,2-2.1c4.5-4,9.9-7.6,14.8-11.1c3-2.2,6.1-4.3,9.4-6.3c2.6-1.5,5.8-2.6,8.1-4.3
		c3.8-2.9,5.2-8.1,9.9-10c5.3-2.3,8.8,2.4,12.9,5.2c1.7,1.2,3.1,2.7,4.9,3.7c2.4,1.3,4.9,1.2,3-1.8c-1-1.6-3.2-3-4.8-4
		c-2.2-1.5-6.2-2.5-7.8-4.5c-2.9-3.4,0.2-10.3,4-11.7c4.9-1.8,7.6,0.8,9.4,5.1c1.2,3,5.1,11.9,9,11c0.5-2.5-2.1-6.3-3.3-8.4
		c-1.8-3.1-3.9-6.1-5.6-9.3c-3-5.6-2.3-11.1-0.6-17c1.4-5.2,8.5-4.2,12.6-3.1c2.6,0.8,4.9,1.9,7.5,2.4c3.4,0.6,6.9,0.6,10.4,0.6
		c3.1,0,6-0.7,8.8-2.2c3.6-1.9,7.4-3.5,10.8-5.8c5.4-3.7,11.3-7,13.9-13.3c0.9-2.2,0.5-4.9,3-5.7c2.7-0.8,5.3,2.1,6,4.4
		c1.7,5.4-1.1,7.5-4.4,10.8c-3.1,3.2-7.6,8.1-9.1,12.4c-0.7,2.1,0,4.5-0.3,6.7c-0.2,2.1-1.2,3.6-2.1,5.4c-1.2,2.3-1,4.7-0.9,7.3
		c0,1.5,0,7.6,2.1,5.6c1.1-1,0.9-5.4,1.2-6.8c0.5-2.4,0.5-5.3,1.2-7.7c0.8-2.7,3.3-4.3,5-6.6c2-2.6,3.3-6.2,4.8-9.1
		c1.7-3.1,3.6-5.3,6.1-7.9c2.6-2.7,5.7-5.5,7-9c1.6-4.4-1.7-4.6-3.5-7.9c-1.6-3.1,2.7-4.5,4.7-5.9c3.4-2.2,6.2-4.4,7.3-8.4
		c0.9-3.1,1.1-5.6,2.8-8.2c1.6-2.5,3.3-4.7,5.2-7c1.9-2.3,3.3-3.4,6.3-2.8c2.9,0.6,5.8,1.8,8.7,2.6c5.4,1.3,9.5,4,12.1,9
		c2.7,5.2-1.4,12-4,16.8c-3.4,6.3-4.3,14-9.1,19.4c-4.6,5.4-12,5.8-17.5,9.9c-2.6,2-4.4,4.9-2.2,8c1.9,2.6,5.9,2.8,8.9,2.3
		c7.2-1.4,5.8-7.7,9-12.7c1-1.5,3.3-2.8,5.1-3.1c3.1-0.4,2.9,1.7,3.8,4c1.7,4.6,5.1,9.2,7.7,13.1c1.3,2,1.9,1,4-0.2
		c1.8-1,3.5-2.3,5.4-3c4.6-1.7,5.4,5.2,10.5,4.3c0.5-5.9-5.8-5.2-7.5-9.8c-1.6-4,0.7-9.5,0.3-13.7c-0.2-2.5-1-5.2-1.9-7.6
		c-0.9-2.5-2.5-4.4-1.9-7.3c0.8-4,0.7-8.4,1.6-12.3c0.7-3.3,4.2-5.9,3.1-9.7c-1.4-4.7-8.4-7.3-12-10c-1.7-1.3-4.8-3.5-5.5-5.7
		c-0.6-1.7,0-4.5,0-6.3c0-5.5,2.8-5.4,7.7-5.4c4,0,8.3,0.7,12.3,0c3.2-0.5,7.3-4,10.2-1.2c3.1,2.9,2.7,7.5,6.8,10.1
		c3.9,2.4,11.4,2.4,14.5,6c3.4,3.9-4.4,9.3-4.2,13.2c0.2,0,0.5-0.2,0.7-0.2c3.1,0,6.7-8.2,8.6-10.2c2.4-2.5,5.8-3.9,9.1-5.2l0,0.1
		c2,0.5,4.1,3.2,5.3,4.8c2.3,2.8,2.7,6.1,6.8,3.9c3.4-1.9,7-3.9,10.3-6c1.3-0.9,2.2-1.9,3.4-2.8c2.2-1.8,5.4-3,7.9-4.5
		c2-1.2,5.6-3.4,7.9-1.8c4.3,3.2,7.3,8.4,9.4,13.3c2.4,5.5,4.6,11.7,7.9,16.7c2.6,4,5.7,8.2,8.8,11.9c1.2,1.5,2.6,2.9,4.1,4.2
		c0.8,0.7,1.6,1.5,2.5,1.9c0.7,0.3,2.2,0.2,2.5,0.3l0,0c-0.3-0.1-1.8-0.1-2.5-0.4c-0.9-0.4-1.8-1.2-2.5-1.9
		c-1.5-1.2-2.8-2.7-4.1-4.2c-3.1-3.6-6.3-7.9-8.8-11.9c-3.3-5.1-5.5-11.2-7.9-16.7c-2.1-4.9-5.1-10.1-9.4-13.3
		c-2.3-1.6-5.9,0.6-7.9,1.8c-2.5,1.5-5.7,2.7-7.9,4.5c-1.2,0.9-2.1,2-3.4,2.8c-3.3,2.1-6.9,4.1-10.3,6c-4.1,2.2-4.5-1-6.8-3.9
		c-1.2-1.5-3.3-4.3-5.3-4.8l0-0.1c1.6-0.6,3.1-1.2,4.6-1.8c4.3-1.9,11.3-6,10.7-11.5c-0.3-3-1.8-12.4-6.6-9.1
		c-4.9,3.4-5.4,10.9-12.3,11.5c-5.7,0.5-13-0.2-17.8-3.2c-4-2.6-10.8-3.6-13-7.9c-0.8-1.5-0.9-2.9-0.7-4.2c0.3-1.1,0.8-2.2,1.6-3.4
		c0.9-1.4,1.7-3.5,2.8-4.7c1.4-1.6,3.3-1.9,4.1-4.2c0.7-2-1-12.7,4-8c1.5,1.5,1.5,3.9,3.3,5.4c2.1,1.7,3.7,1.5,5.4-0.4
		c3.6-4.3,7.5-8.7,10.6-13.4c3.1-4.7,5.7-10,12-10.5c5.1-0.4,11.7,1,15.5-3.1c1.9-2,2.5-5.1,4-7.2c1.8-2.4,5.8-5.1,8.6-6.1
		c5.2-1.9,9.7,1,12.4,5.4c2.3,3.7-0.6,8.2,1.4,11.9c4.3,0.6,3.4-8.9,2.8-11.2c-0.6-2.1-1.9-3.3-3.5-4.8c-1-0.9-3.4-2.6-3.1-4.2
		c0.7-3.7,9.2-2.1,11.7-2.7c3-0.8,11.2-9.4,7.3-12.3c-2.1-1.5-3.8,1.4-4.3,2.9c-0.5,1.3,0.3,2.1-1.2,2.9c-1,0.6-2.6,0.3-3.8,0.3
		c-2.2,0-6.6,0.8-8.2-1.2c-0.9-1.1-0.7-3-1.3-4.3c-0.7-1.8-1.5-2.6-1.3-4.6c0.2-2.4,0.5-3.7,1.9-5.6c2.4-3.3,4.9-8.4,7.9-11.1
		c2-1.7,3.9-1.3,5.4,0.8c2,2.8-0.3,3.1-1.6,5.5c-0.9,1.7-1.5,5.3-0.3,6.7c1.5,1.8,4.9,2.1,7,2.2c2,0,4-0.1,5.8-0.7
		c2.7-0.9,2.8-2.5,2.8-5.3c0-0.9,0.3-2.5,0-3.3c-0.5-1.2-0.6-0.8-1.5-1.6c-2.1-2.1-1.6-1.8,0.8-3.4c1.9-1.2,2.6-3.5,1.4-5.9
		c-1-1.9-2.7-2-4.7-2.3c-3.2-0.5-2.7-1.1-4.2-3.3c-1-1.5-3.5-2.4-5.1-3.3c-0.2-2.9,1.4-4,1.8-6.5c0.6-2.8,0.8-5.7,1.5-8.4
		c0.3-1.1,0.4-2.1,0.6-2.7c0.4-1,1-1.4,3-0.6c2.1,0.8,4.2,1.7,6.4,2.3c9.9,3,7.7,14.9,15.4,20c2.3,1.5,8.3,3.4,7.3,6.8
		c-1,3.2-6.9,5.5-9.6,6.6c-2.3,0.9-10.4,5.1-5.1,6.6c1.8,0.5,3.5,0,5.1,0.9c2,1.1,3.1,3.2,4.1,5.1c1,2,7.5,14.6,7.7,7.3
		c0.1-5.3-4.4-9.1-6.3-13.8c-1-2.4-1.2-3.6,0.7-5.2c1.3-1,2.7-1.8,4.3-3c3.7-2.9,6.3-3.5,11.2-3.6c1.9,0,4.9-0.5,6.8,0
		c2.1,0.6,2.5,2.8,3.3,4.7c1,2.5,2.3,4.2,3.9,6.3c1.4,1.8,3,6.7,5.9,6.3c-1.4-6.8-6.9-12.5-8.6-18.9c4.5-2.6,8.5-5.4,12.9-8.2
		c2.7-1.7,15.8-7.4,14.9-10.8c-5.3-0.3-10.7,2-15.7,3.6c-6.8,2.1-12.1,5.1-18.2,8.6c-7.2,4.2-12.9,3.8-19.9-0.5
		c-5.4-3.3-8.1-9.4-11.1-14.7c-3.7-6.4-9.7-12.7-11.6-19.9c-2-7.7,6.2-7.6,11.6-9.3c8-2.6,15.9-6.2,23.7-9.5c4.6-2,9.4-3.8,14.3-5.1
		c2.3-0.6,5.1-0.8,7.2,0c3.8,1.5,7.6,2.7,11.5-0.1c2.4-1.8,4.5-3.7,7.1-5.3c2.8-1.8,3.6-3,3.5-6.3c-2.4,0.1-16,15.3-19,8.9
		c-0.9-1.9,1.2-4.9,0.3-7.1c-2-4.5-7.2-1-9.9,0.1c-3.8,1.6-8,2.1-12,2.6c-4.9,0.6-10-0.1-14.9,0.1c-8.7,0.3-17.9,1.9-25.5,6.3
		l-1.8-1.4c0,0,0,0,0,0l1.8,1.4c-0.5,0.3-1,0.6-1.5,0.9c-7.2,4.7-6.2,15.1-6.2,22.7c0,4.6,0,9.7-1.6,14c-1,2.6-2.5,4.9-4.9,6.7
		c-2.4,1.8-7,5.2-10.1,4.9c-2.8-0.3-2.7-5.2-3.1-7.7c-1.1-6.3-1.4-11.4-6.4-16.2c-2.4-2.3-5.1-4-7.5-6.3c-2.7-2.6-5.2-5.4-7.6-8.2
		c-3.4-3.9-5.9-7.5-10.8-7.9c0,0,0,0,0,0c-0.6,0-1.2,0-1.8,0c0.3,1.2,1.4,2.1,2.3,3.1c2.7,3.3,5.2,6.1,8.7,8.7
		c3.4,2.5,7.2,4.5,10,7.6c4.5,5,8.7,10.5,10.1,17.4c1.1,5,4,11.8,2.2,16.8c-1.1,2.8-3,5.4-4.5,8.1c-1,1.8-2.1,4.7-3.8,5.9
		c-1.3,0.9-3,0.8-4.5,1.1c-4.3,0.9-8.5,2.5-12.6,4.3c-8,3.5-15.5,8.1-23.3,12.1c-6.8,3.5-14,7.5-19.9,12.4c-2.7,2.3-5.3,4.8-8.1,7
		c-2.3,1.8-5.5,3.4-5.8,6.5c-0.3,2.4,1.3,4.4,1.9,6.6c0.6,2.2,0.3,4.7-0.5,6.9c-2.2,5.8-6.4,10.8-10.5,15.5
		c-2.4,2.7-4.1,5.7-6.3,8.5c-0.6,0.7-1.1,1.4-1.6,2.1c-1.7,2.1-3.3,4.2-4.5,6.6c-1.8,3.3-5.6,6.1-9.3,6.8c-3.4,0.6-6.4-0.4-4.8-4.2
		c1.5-3.3,4.6-5.3,6.9-8.1c3.7-4.4,4.1-7.7,4-13.3c0-2.5,0.2-4.8,0.9-7c1-2.9,3.8-5.5,4.4-8.4c0.9-4.4-4.6-8.7-7.6-10.9
		c-4.2-3.1-8.5-5.6-12.6-8.8c-11.2-8.6-24-14.8-36.3-21.6c-24-13.2-46.8-28.6-70.4-42.6c-7.5-4.5-15.6-7.8-22.9-12.8
		c-7.3-4.9-14-10.7-21.3-15.6c-7.6-5.2-14.9-11.2-21.3-17.8c-8.4-8.7-13.2-22.9-13.1-35c0-7.4,2.3-11.8,5.7-18.1
		c1.5-2.9,2.7-5.9,5.2-8.2c1.9-1.8,4.5-2.7,3.7-5.8l0.2-9.2c0,0,0,0,0,0l-0.2,9.2c-4.2,0.4-6.7,0.9-8.8,5
		c-2.6,5.1-5.4,10.3-7.1,15.8c-3.4,11.1-2.4,23.5,1.9,34c2.3,5.7,6.7,11.7,1.3,16.1c-3.3,2.7-3.3-0.2-4.5-2.6
		c-0.7-1.4,0.2-2.4-2.2-2.2c-1.9,0.2-1.9,1.4-2.6,2.8c-1.6,3.2-3.1,4.4-6.4,1.9c-1.8-1.4-3.4-4-4.8-5.9c-1-1.4-2.2-2.7-3.3-3.9
		l0.5-0.5c2.5-3.5,5.3-6.4,5.1-11.1c-0.3-8.4-4.2-16.9-6.3-25c-1.2-4.5-2.4-9.3-4-13.6c-1.7-4.6-4.2-9.1-5.7-13.8
		c-1.6-5-3.3-9.9-3-15.2c0.1,0,0.1,0,0.2,0c-0.1,0-0.1,0-0.2,0c-0.3,5.3,1.4,10.2,3,15.2c1.5,4.8,3.9,9.2,5.7,13.8
		c1.6,4.4,2.8,9.1,4,13.6c2.1,8.1,6,16.6,6.3,25c0.2,4.6-2.6,7.6-5.1,11.1l-0.5,0.5c-2.3-2.4-4.6-4.5-5.7-8
		c-1.7-5.3-4-10.4-5.9-15.4c-2.2-5.6,0.3-13-2.2-18.1c-2.1-4.3-3.6,0.9-3.8,3.7c-0.2,3.7,0.8,7,1.6,10.4c2,7.9,5.4,15.1,4.9,23.5
		c-0.5,8.2-5.9,4-10.6,8.4c-5.1,4.9,7.3,6,10.3,3c1.6-1.6,3.5-6.4,5-1.3c0.8,2.6-0.5,4.7-2.8,5.3c-1.2,0.3-2.6,0.1-3.7,0.3
		c-1,0.2-2.2,1-3.2,1.2c-2.6,0.5-5.5,0.1-7.8-1.1c-4.7-2.7-5.1-9.3-6-14.4c-1-5.6-1.2-10.9-2.8-16.2c-1.5-4.8-2.4-9.8-4.9-14.4
		c-1.4-2.5-2.7-3.9-2.9-6.9c-0.2-3.9-0.3-8.3,0.1-12.2c0.3-2.7,1.6-5.9,1.2-8.7c-0.6-3.6-3.5-3.4-4.7,0c-1,2.9-0.2,7.3,0.3,10.2
		c1,5.6,1.8,11.4,2.6,17c1.6,11.3,3.5,21.9,6.3,32.8c1.4,5.4,1.5,10.6,2.7,15.9c0.6,2.6,0.3,5.5-0.4,8c-0.7,2.5-1.3,2.4-3.1,4.3
		c-1.6,1.7-2.2,3.4-3,5.4c-0.8,2-0.8,3.9-3.1,4c-1.9,0.1-2.9-1.6-4-2.9c-2.3-2.6-4.1-5.8-7.9-5.8c-4.2-0.1-8.7,2.1-12.6,3.5
		c-5.6,2.1-10.4,6.4-15.8,1.5c-4.2-3.9-9.1-9-11.8-14.1c-3.6-6.6,1-10,6.4-13.1c3.3-1.9,5-3.1,4-7.2c-0.8-3.2-2.4-4.9-5.6-3.1
		c-2.3,1.2-3.4,4.4-5.3,5.9c-2.4,2-4,0.9-6.6-0.5c-4.8-2.7-5.8-6.8-9-10.9c-5.2-6.9-14.5-18.1-24-19.7c-1.2-3,0.9-6.4-2.7-8.3
		c-1.1-0.6-4.9-1.2-5.4-2.5c-0.6-1.6,2.4-3.2,3.5-3.6c2.1-0.9,4.6-0.8,6.7-1.9c1.8-1,3-3,4.6-4.3c1-0.7,2-1.4,3.1-1.7
		c-1.1,0.3-2.1,1-3.1,1.7c-1.6,1.2-2.8,3.3-4.6,4.3c-2.1,1.1-4.6,1-6.7,1.9c-1.1,0.5-4.1,2.1-3.5,3.6c0.5,1.3,4.2,1.9,5.4,2.5
		c3.6,1.9,1.6,5.3,2.7,8.3c-0.9-0.2-1.8-0.3-2.8-0.2c-1.1,5.1,8.9,7.9,11.7,10.1c5.2,4,9,13.1,9.6,19.4c0.2,3-1.4,4.7-1.6,7.7
		c-0.3,3,0.3,6,0.3,9c0,3.3,0.4,8.2-1.5,10.9c-1.8,2.5-5.7,3.4-8.5,4c-3.3,0.6-4.9,1.2-7.5,3.1c-2.8,2.2-3.3,2.3-5.3-1.2
		c-2.7-4.8-0.6-10.3-2.7-15c-1.4-3.1-6.4-12.5-10-12.4c2,4.4,6,9.2,6.2,13.9c0.2,5.9-3.3,8.3-7.9,11.2c-2,1.2-3.8,3.2-6.2,2.9
		c-3.1-0.4-4.3-3.6-6-6c-2.6-3.6-8.7-10.3-13.7-9.3c-0.8,4.6,2.8,10.3,4.6,14.3c2.7,6.3,5.9,10,10.6,14.9c3.5,3.6,9.9,7.7,10.9,13
		c1.3,7.5-11.8,10.3-16,14.5c-1.7,1.7-3.7,8.9-5.5,9.3c-1.6,0.4-7.9-6.5-9.3-7.9c-5.5-5.3-10.8-9.8-16.8-14
		c1.2,3.6,3.6,7.8,6.1,10.6c2.6,2.9,7.6,4.9,8.8,8.5c1.6,4.5,0.5,9.6-4.6,7.8c-5.4-1.8-5.7-6.2-10.5-1.3c-4.9,4.9-8.1,10.6-9.4,17.3
		c-0.3,1.3-0.2,5.5-1.4,6.2c-1.9,1.1-4-2.1-4.5-1.9c-2.5,1.4-4,4.9-6.3,7c-2.9,2.6-6.6,13-10.1,13.1c-4.3,0.1-6.6-5.7-9.6,0.1
		c-1.7,3.3,0.2,9,0.2,12.6c0,4.5-0.6,9.3-6,10.7c-5.7,1.5-5.4-3.2-7.9-6.6c-2.9-3.8-8.3-5.6-12.8-3.1c-4.8,2.6-2.4,6.1-0.1,10.3
		c4.8,8.8,9.8,17.7,15.6,25.9c5.3,7.5,8.8,15.7,14,23.2c4.2,6,11.1,13.7-1.4,13.7c-4.7,0-8.9-0.4-13.1,1.3c-4.8,2-8.2,6-12.4,8.9
		c-3.7,2.6-9.6,3.8-12.3,7.6c-2.5,3.5-1.7,8.6,3.1,8.9c3.8,0.3,7.7-4.3,12.1-4.6c7.8-0.7,15.9,0,23.8,0c4.8,0,12.2-0.8,15.5,2.9
		c4.4,5,3.2,13.5,5,19.5c2.4,8,6.6,15.3,9.6,23c4.5,11.6,7.1,24.1,12.1,35.9c2.5,6.1,4.9,12.1,6.7,18.4c1.5,5.3,4.3,10.1,3.7,15.8
		c-0.8,8.2-12.7,10.2-19.8,12.9c-11.5,4.3-23.2,5.5-34.6,10.3c-8.2,3.4-19.3,13.9-26.8,6.7c-3-3-4.9-6.6-7.8-9.6
		c-3.8-3.8-8.6-5.3-13.5-7.4c-3.6-1.5-14.2-4.9-11.8-10.8c1.7-4.4,8.2-2.1,10.8-0.2c3.9,2.9,4.6,7.1,9.8,8.2
		c3.9,0.7,8.2,0.1,10.2-3.4c6-10.7-5.7-14.9-9.4-22.3c-2-3.9,0.3-11.9-4.6-13.2c-4-1.1-6.7,3.7-9.8,5.6c-11.7,7.3-9.8-9.7-18.7-7.4
		c-0.1,3.9,6.1,4.9,5,9.2c-4.2,1.1-5.5,2.2-8.7,5.3c-2.9,2.9-6.5,5.5-10.1,2.3c-1.5-1.4-2.9-8.8-6.9-5.2c-2.3,2.1,0.2,8,1.4,9.9
		c3.7,6.1,11.3,7.8,5.6,15.8c-6.1,8.8-9.4-2.5-16.2-1.2c-0.1,2.4,0,4.9-0.2,7.4c-4.6,0.7-7.9-2.3-11.7-4.2c-5.7-3-11.4-6.1-17.3-8.7
		c-9.8-4.4-22.7-13.6-31.9-5.3c-8.8,7.9-19.1,8.5-30.8,8.5c-3,0-20.4,1.3-10.9,3.7c5.7,1.5,14,0,19.9,0c5.4,0,9.1-0.2,11.6,5.1
		c1.8,3.6,3.1,9.7,3.3,13.7c0.4,7.3-11.4,20.7-12.7,8.5c-9.9-0.5-20.9,2.1-30.7,3.8c-8.7,1.5-17.4,3.4-26.2,4.6
		c-7.5,1-15.1,0.6-22.8,0.5c-6.7-0.1-13,2.2-19.6,3.5c-14.9,2.9-29.9,4.6-44.9,7.2c-10.7,1.9-21.5,2.6-31.9,5.7
		c-10.1,3.1-18.9,7.6-29.5,9.1c-16.9,2.5-33.7,4.1-50.9,3.4c-6.3-0.3-12.4-1.1-18-4.3c-4.4-2.6-6.7-7.1-11.1-9.8
		c-6-3.8-12-3.4-18.9-4.6c-4.4-0.8-8.4-1-9.3-6.1c-0.4-2,1-4.3,0.5-6.6c-0.5-2.2-2.3-3.7-3.3-5.6c-2.1-4.2-1.2-7,1.8-10.5
		c3.1-3.5,8.2-7,12.6-8.7c4.2-1.6,8.6-0.1,11.7-3.4c1.6-1.7,0.2-3.2,2.9-4.6c1.8-0.9,4.7-0.8,6.3,0.3c0.9,0.6,0,2.9,1.2,3.8
		c1,0.7,3.6,0.9,4.8,1.1c2.5,0.3,5.1-0.2,7.6,0.1c5.7,0.5,12.2,1,17.7,2.9c4.3,1.4,7.8,4.2,12.2,5.5c2.2,0.6,6,1.8,8.4,0.9
		c1.8-0.6,2-2.4,3.1-2.9c5.4-2.6,6.6,4.6,11.8,3.3c0.6-7.3-4.6-8.1-9.4-11.5c-3.9-2.7-4.6-13.7-7.3-14.2c-2.2-0.4-6.4,2.7-9.3,2.8
		c-6.6,0.4-13.2-0.5-18.3-4.2c-3.9-2.9-9.9-8.7-8.9-14.1c1-5.7,8.6-6,13-7.1c0.9-4.5-3.8-6.8-2.7-11.2c1.2-4.8,7.5-5.6,6.5-12.1
		c-3.3-0.3-10.9,5.8-13,0.4c-1.8-4.6,5.7-4.6,6.5-8c1.7-7.5-15-11.8-15.1-0.5c-7.3-1.8-13.8-14.1-18.2-19.7
		c-16.1-20.4-41-21.9-64.5-27c-6.4-1.4-13.2-1.6-19.3-4.4c-4.4-2-8.1-5.3-12.6-7.4c-4.2-2-7.9-5.4-11.9-7.4c-5.5-2.8-6.4,0.2-6.5,5
		c-3.4-1.4-2.7-5.2-2.7-8.4c0-4.5-0.4-7.4-2.5-11.4c-3.9-7.5-7-15-10.4-23c-5.8-13.8-13-28.6-13.4-44c-0.2-8,0-16,0-24
		c0-7.3-0.3-14.5,2.2-21.5c2.9-8.1,7.1-15.9,10.8-23.7c3.7-8,5-16.5,9.9-23.9c4.6-7,5.7-15.7,11-22.3c2.8-3.6,4.6-4.2,8.8-4
		c1.5,0,13.5,4.3,13.5,4.4c1.4-9.5-11.9-7.4-12.6-16.3c-0.2-3.1,1.2-7.1,3.3-9.3c4.2-4.3,7.2-3.9,10.7-0.1c2.8,3,4.9,7,9.9,5.6
		c4.9-1.4,2.1-3.5,1.5-7.5c-0.5-3.1-1-9.2,2.7-10.7c3.1-1.2,7.3,3.9,9.9,1.8c4.2-3.5-3.8-8.8-6-9.8c-5.2-2.3-6-2.9-2.4-8.5
		c4.8-7.6,12.4-13.9,19.1-20.1c1.9-1.8,6.4-9.1,9.1-8.4c3.3,0.9,1.4,10,7,6.2c3.5-2.4,0.2-8.2,5.7-4.3c5.5,3.9,5.2,7.6,13.4,5.6
		c0.5-9-4-8.1-10.7-12.2c-7-4.3-1.6-8.9,3.3-12.7c6-4.5,13.6-8.1,19.8-3.6c4.7,3.4,7.5,9.4,14.3,6.5c5.8-2.4,0-3.1-1.7-7
		c-1.8-4.2,1.1-7.6,5-5c3.3,2.2,3.4,7.7,8,7.8c3.7,0.1,8.2-4.2,6.1-7.9c-2-3.6-10.6-3.1-9-9.4c0.9-3.6,2.6-2.4,5.2-2
		c3.3,0.6,8.8,2.9,11.8,0.3c1.3-1.2,2.1-4.4,1.5-6.1c-0.6-1.6-5.7-3.9-5.7-3.2c-0.7-4.4,2.5-8.8,2.2-13.9c-5.5,2.4-5,10.2-10.8,12.5
		c-6,2.4-10.2,1.5-14.1,7.9c-0.8,1.3-2,7.3-4.6,5.7c-1.7-1.1,0-6.2,0.5-7.4c2-5.5,7.7-10.1,4.2-16.3c-2.4-0.1-3.3,1.8-4.7,3.6
		c-2.8,3.5-4.2,7.6-6.9,11.3c-3,4.1-7.9,6.7-11.7,9.8c-5.1,4.2-12.8,12.7-20.2,10.7c-3.7-1.1-6.9-4.8-8.9-8
		c-2.6-4.1-1.3-6.2-0.9-10.7c0.4-4.3-0.8-8.7-2.7-12.3c-1.7-3.2-6.2-6.6-5.2-10.6c7.1-1.3,11.8,6.8,12.6,12.6
		c0.8,6.3-1.8,13.6,6.1,16.4c10.6,3.9,13.8-5.7,12.5-14.5c-1.7-11.9-8.8-14.8-17.7-21.6c-4-3-8.7-5.3-12.5-8.4
		c-7.2-6-6.5-14.4-3.7-22.4c3.1-9.1,13.9-14.5,21.8-19.8c10.4-6.9,20.6-13.1,30.4-20.9c9.6-7.8,15.8-18.5,22.2-28.8
		c7.3-11.7,12.3-22.5,13.6-36.1c0.6-6.1,1.5-10.5,4.7-15.7c2.7-4.5,6.8-7.2,9.7-11.4c2.3-3.2,2.4-8.2,6.1-10.2
		c4.6-2.4,8.5,0.1,12.1,1.8c8.6,4.1,23.4,2.4,33,1.8c10.4-0.7,21.9-7,28.9-14.9c1.8-2,4.7-10,7.1-10.4c3.3-0.6,6.3,7.6,7.5,9.9
		c2.4,4.8,2.5,9.2,3.2,14.4c0.4,3.1,5.5,15.1,10.9,10.3c3.1-2.8-1.5-12.7-3-15.5c-2.4-4.8-5.7-9.1-7.5-14.2
		c-1.5-4.5-2.1-10.8-1.3-15.7c1.5-8.7,8-17.5,11.6-25.6c4.5-9.9,7.4-20.5,13.2-29.8c5.4-8.8,10.4-16.5,10.4-26.9
		c0-9.3-3.8-16.2-5.5-24.9c-1.3-6.7-1.7-14.8-1.5-22.7c3.3-0.3,7.4-3.5,10.3-4.7c4.3-1.7,8-2.8,12-5.5c8.6-5.9,18.6-9.7,28.8-5.8
		c8.7,3.3,16.7,9.1,24.8,13.7c3.4,1.9,7,4,9.9,6.6c0.8,0.7,1.5,1.5,2.2,2.4c-0.7-0.9-1.4-1.7-2.2-2.4c-2.9-2.5-6.6-4.6-9.9-6.6
		c-8.1-4.6-16.1-10.5-24.8-13.7c-10.3-3.9-20.2-0.1-28.8,5.8c-3.9,2.7-7.6,3.9-12,5.5c-2.9,1.2-7,4.4-10.3,4.7
		c0-6.3,0.5-12.6,0.9-18.1c1.1-11.7,7.6-24.2,14.1-34c3.4-5.1,8.5-8.4,12.4-13.1c4.6-5.6,8-12.8,11.5-19.2
		c3.3-6.1,7.2-11.9,10.8-17.8c2.6-4.3,3.1-9.8,6.1-13.8c3.5-4.8,7.9-8.7,11.1-13.9c6.7-11.1,11.6-23.8,21.1-33
		c4.6-4.4,34.2-12.3,23.2-20.6c-5.8-4.4-12.8-7-12.5-14c0-1.5,0.4-3.1,1.2-5c1.3-3.2,4.9-5.2,7-8.1c3.1-4.4,1.2-7.4,2.3-12.1
		c2.8-11.9,13.6,2.8,16.7,6.2c6.7,7.5,14.2-1.5,19.8-5.3c0.8-0.6,1.6-1.1,2.5-1.7c12.7-8,27.7-14.6,35-27.8
		c2.1-3.9,2.7-8.5,4.8-12.2c2-3.4,5.7-5.5,9.2-7.4c3.4-1.8,6.4-4.2,8.9-7c2.2-2.5,3.5-6.9,5.8-9c4.5-4.2,11.9,1,16.2,4.6
		c5.4,4.6,6.3,10.5,10.8,15.5c2,2.2,5.1,4.3,6.7,0.5c1.4-3.5-2-3.9-3.4-6.4c-3.9-7.3,4.3-7.6,8.9-4.9c5,2.8,9.7,6.1,14.9,8.9
		c5.2,2.7,9.7,6,6.1,12.3c-4.7,8.2-17.1,6.3-24.3,10.6c-5,3.1-14.7,18.2-8.4,23.5c3.9,3.3,6.7-1.8,7.4-5.6c0.9-5.1,0-6.6,4.8-9.3
		c7.4-4.1,16.3-9.6,22.9-2.6c3.5,3.7,6.1,6.5,10.3,9.3c3.3,2.2,10.2,5.1,7.9,10.5c-1.6,4-4,2.6-4.2,7.9c0,0.4-0.1,0.9-0.1,1.4
		l-9.2-11.9l0,0l9.2,11.9c-0.3,3.2-1.2,7.8-0.3,10.2c1,2.3,2.9,3.6,5.3,4.2l-0.1,0.3l0,0l0.1-0.3c1.7,0.5,3.6,0.6,5.6,0.4
		c0,0,0,0,0,0c4.8-0.3,10-2,12.9-3.2c11.7-5-2.2-17.5,0-26.6c1.4-5.4,6.1-4.6,11.3-5.2c7.5-0.8,14.1-1.7,21.1-4.7
		c11.2-4.8,19.8,0.4,29.7,5.6c6.9,3.6,14.1,7.3,20.4,11.6c5.5,3.7,9.9,8.7,15.1,12.7c6.7,5.2,26.3,9.1,20.9,20.1
		c-2.2,4.6-6.2,3.5-2.7,8.5c2.3,3.3,4.7,6.4,6.9,9.9c0.9,1.3,3.6,3.7,3.3,5.1c-0.5,2.8-2.7,1.8-4.1,0.9c-2.8-1.7-4.5-6.9-7.6-9.2
		c-3-2.3-6.9-3.4-10.5-1.9c-2.8,1.2-9.4,5-11.2,7.4c-1,1.3-1.6,2.7-1.8,4.1c0,0,0,0,0,0c-1.5,9.2,12.4,20.5,17.8,25
		c9.3,7.6,23.2,19.2,35.1,10.9c8.3-5.8,18.1-8.5,26.5-14.3c2.9-2.1,10.8-9.3,9.4-13.4c-1-3.3-4.8-2-7.4-2.7
		c-5.2-1.3-10-5.3-14.8-7.7c-5.5-2.7-8.2-5.4-10.5-10.8c-1.6-3.7-4.8-11.1-4.7-15c0-3.8,1.8-3.5,3.9-6c1.5-1.8,1.9-4.1,3-6.2
		c2.4-4.6,7.1-9.9,4.4-15.5c-1.5-3.1-5.8-3.7-7.5-6.8c-3.9-7.3,8.6-17.8-5-19.9c-6.2-0.9-10.8,3.4-16.4,2.4c-4.6-0.8-8.5-5-11.7-8.1
		c-2.9-2.8-6.9-6.9-4.8-11.6c1.7-4,7.4-3.8,10.8-5.3c3.9-1.7,8-4.8,11.7-7c3.4-2,5.9-3.7,5.6-8.3c-0.6-8.1-12.5-11.3-8.9-21.5
		c1.4-4,5-6.1,9.4-4c5.1,2.5,5.1,5.9,11.7,5.3c3.2-0.3,7.6-1.3,10.3-2.8c3.5-2,4.9-6,8-8.5c2.9,2,1.7,6.2,6,5.6
		c3.1-0.5,4.2-4.2,5.1-6.6c2.3-5.7,5.8-13.1,12.4-6c2.7,2.8,1.9,6.9,3.6,10c1.6,2.9,4.8,4.4,6.3,7.4c1.6,3,2.3,6.4-0.3,8.8
		c-2.5,2.3-5.7-0.3-5.4,4.8c0.2,3,4.5,7,6.1,9.6c2.7,4.5,4.8,7.9,10.3,4.6c4.3-2.6,4.5-7.6,6.4-11.5c2-4,6.6-6.2,9.9-9.4
		c3.1-2.9,7.3-5.8,6.1-10.6c-1.2-4.8-6-3.5-7.6-7.5c-2.2-5.3,3.3-5,6.2-6.6c2.6-1.4,5-6.8,8.4-6.5c1.1,6.1,8.1,0.3,10.4-1.8
		c5.9-5.4,9.8-13.6,18.3-10c4.8,2,9.7,6,13.5,9.4c2.9,2.7,4.5,9.5,8.5,9.4c4.6-0.1,3.1-7.2,8.5-5c3.6,1.5,2.9,6.3,6,8.4
		c5.5,3.9,5.2-1.7,9-3c4.9-1.6,4.9,5.3,4.8,8.4c5,1.1,5.3-2.2,7.9-5.3c3.6-4.2,7.5-3.3,12.6-2.2c5.7,1.2,10.2,5.5,15.8,7.1
		c5.1,1.5,10.1-0.6,13.5,5c2.8,4.8-0.7,4.3-2,8.5c-2.8,8.7,7.9,10.2,13.7,11.2c13.9,2.5,42.8,8.5,44-13.2c0.4-7-3.2-5-6.6-8.4
		c-2.8-2.8-0.5-7.3,3.2-9.5c6.4-3.7,20.3-1.8,24.8,4.5c3.1,4.3,5.4,9.6,8.7,13.9c4.2,5.5,7.3,10.8,9.2,17.5c1.2,4,2.5,8.7-1.1,11.7
		c-1.8,1.5-9.4,1.8-9,5.2c0.2,1.4,5.6,3.5,6.7,4.6c2.9,2.8,4.8,6.9,6.4,10.5c5.5,12.4,8.2,25.2,13.1,37.6
		c4.3,10.7,12.1,19.1,19.4,27.8c5.8,7,11.4,14.3,18.5,19.9c4.3,3.3,7.9,5.3,9.4-1.2c0.5-2.3,0.6-6.1,0.1-8.4
		c-0.6-2.9-1.4-2.2-2.8-4.2c-2.6-3.6-3-7,1.4-10.3c4.2-3.2,7.1-0.7,6.2-7.2c-0.7-4.8-3.6-7.4-5.7-11.7c-2.1-4.3-1.4-7,0.5-11.2
		c3.1-7,3.1-16.7,8.3-23c9-10.9,13.4,6.5,20.3,2c0,0,0.1,0,0.1-0.1l0,0c4.4-3-4.2-6.5-5.7-7.6c-3.3-2.4-2.6-5.2-5.6-8.4
		c-2.7-2.8-6.8-4.1-8.9-7.3c-2-3-2.6-8.3-3.3-11.8c-1.4-6.5,0.4-13.2-0.5-19.8c-0.8-6.4-3.3-12.3-4.2-18.6c-0.6-4.4-0.5-9-0.5-13.6
		c0-6.4,1.9-13.3-5.1-15.8c-5.5-1.9-11.5-0.8-15.6-6.3c-2.5-3.3-4.2-7.3-5.8-10.8c-1.1-2.4-1.6-5.2-2.9-7.3
		c-1.3-2.1-3.6-3.3-5.1-5.4c-4.6-6-4.2-13.2-7.3-19.6c-3.1-6.5-7.7-11.9-2-18.6c6-7.2,11.9-14.6,21-17.4c8.4-2.6,16.2-2.7,21.2-10.8
		c5.1-8,8.7-15.7,7.3-25.4c-1.8-12.9-3.7-22.2-13.6-31.3c-6.8-6.3-14.2-14.1-3.8-20.5c4-2.5,7-3.9,9-8.5c1.5-3.6,1.7-11,4.6-13.6
		c5.4-4.8,11.1,8.3,13.1,11.5c4.5,7.2,10.3,8.2,17,12.8c7.1,4.8,14.2,9.9,20.6,15.6c5.3,4.7,11.9,13.2,18.4,15.9
		c6,2.4,10.5-2.9,16.7,2.1c3.7,3,3.8,7.8,6.5,10.7c2.9,3.1,8.8,3,12.8,3.7c9.9,2,15.3,3.7,21.3,12.1c6.7,9.4,13.9,19.2,18.4,30
		c2.4,5.8,4.2,11.1,7.4,16.4c2.8,4.8,4.8,10.9,5.2,16.4c0.4,4.8-1.6,7.4-2.9,11.6c-1.3,4.1-1.2,9.7-0.8,14.2
		c1.3,12.6,5.2,25.1,10,36.9c1.6,4.1,4.7,9.4,8.9,11.4c3.3,1.6,9.6,1.8,7.4-3.7c-1.3-3.5-6.3-2.6-5.2-7.5c0.9-4.2,4.6-3,4.1-8.8
		c-4.2-3.1-10-3.7-11.2-9.4c-1.3-6.3,0.5-13.8,1.9-19.7c1.7-6.7,9.6-55.7,17.9-51.6c4.1,2,2.5,6.9,8.8,6.2c4.7-0.5,5.7-3.9,7-7.9
		c2.2-7,3.3-16.6,1.1-23.7c-3-9.7-8.5-18.1-9.1-28.7c-0.8-14.6,7.5-25.9,14.2-37.4c4.8-8.2,4.1-12.3-1.3-20.7
		c-3.1-4.7-7.3-13.5-13.7-12c-1.7,7.6,5.6,13,1.1,21.4c-2.7,5.1-12.2,11.5-18.1,10.3c-14.9-3,0.1-34.3-20.6-28.1
		c-8.7,2.6-11.7,7-21.8,6.6c-3-0.2-8.3,0.2-11.1-1.1c-3.6-1.8-5-7.2-8.6-9c-16.1-7.8-8.8,24.8-9.3,34.3
		c-11.4,1.8-11.8-17.1-11.1-24.2c2-19.2,0.7-29.8-15.9-40.9c-9.3-6.2-37.5-19.2-18.7-28.6c12.3-6.1,35.1-5.9,40.4-21.4
		c4.3-12.8-2.3-38.8-8.5-49.6c-12.7-22.3,6.4-15.8,21.5-11.2c7.1,2.1,16.5,1.8,21.7-3.8c3.9-4.2,3.9-15.7,8.3-18.6
		c12.7-8.3,41.3,10.5,51.6,16c8.4,4.5,35.9,25.6,44,20.4h1.8v1283h-0.6c-1.9,1.4-4.5,2-6.6,3.6c-1.8,1.4-2.5,3.2-4,4.8
		c-1.3,1.4-3.1,2.1-4.2,3.9c-1.3,2.1-0.4,4.4-0.8,6.7c-0.5,2.7-1.4,5.5-1.9,8.3c-0.5,2.9-2.5,4.6-4.5,6.6c-1.8,1.8-3.3,3.3-6.1,2.3
		c-2.2-0.8-5.3-3.3-7-5c-4.4-4.4-0.2-11.4,0.4-16.6c0.6-5.3-5-11.1-8.3-14.7c-4.5-4.9-10.8-1.5-15.9-4.1c-1.7-0.9-2.4-2.9-4.3-3.3
		c-3.1-0.6-1.8,1.8-2.5,3.5c-0.9,2-4.6,2-2,4c1.9,1.5,5.4,0.9,7.6,1.2c5.2,0.7,9.6,3.2,14,5.7c5.3,3,4.4,9.9,2.7,15.1
		c-0.6,2-1.5,4.2-2,6.1c-0.6,2.5,0.2,3.1,1.6,5.2c1,1.4,2,3,3.4,4.1c1.7,1.3,3.9,1.7,5.6,2.9c6.1,4.2-4.8,15.2-8.1,18.7
		c-4.2,4.5-8.9,7-7.6,14.1c0.9,5.2,5.7,10.7,8.7,15c2.2,3.2,6,5.1,3.8,9.4c-2.4,4.5-8.2,5.9-12.5,6.9c-5.1,1.2-9,2.1-13.6,4.9
		c-2.8,1.7-7.9,3.1-7.4,7c2.4,0.6,3.6-0.6,5.6-1.6c2.7-1.3,5.6-1.5,8.4-2.6c5.2-2,9.4-3.6,15.1-4.1c5.8-0.5,8.1-1.3,10.6-6.7
		c1.3-2.9,3.8-11,7.9-10.8c2.3,0.1,3.5,3.1,5.8,3.7c2.4,0.6,4.7,0.2,7,1.4c2.3,1.2,4.3,2.7,6.2,4.5c1.5,1.5,4,1.9,5.1,3.3
		L1479.7,912L1479.7,912z M812.3,810.4c0-3.1,0.3-6.4,0-9.6c-0.3-2.8-0.9-5.3-4-5.8c-2.1-0.3-4.1,1-5.4-0.7
		c-1.1-1.2-1.8-5.7-1.8-7.5c0-2.3,1-5.3,3-6.7c4.5-3,7.6,1.6,11,3.5c2.6,1.4,3.2,0.6,4-2c0.9-2.9,1.9-5.2,4.5-7
		c1.7-1.3,4-2.2,5.4-3.9c1.4-1.7,1.3-4.2,3.2-5.7c5-3.7,3.8,6.1,8.2,5.1c0.1-2.2-0.3-6.4,3.1-5.8c1.9,0.3,1.3,2.1,2.5,3.1
		c3.8,3.4,10.4-1.2,13-4c1.1-1.3,2.6-4.6,4.2-5.2c3.4-1.1,6.9,7.8,5.2,10.3c-1,1.6-3.8,1.7-5.1,3.3c-1.1,1.5-1.6,3.6-2.3,5.4
		c-0.8,1.7-1.7,4.3,1.4,3c1.8-0.7,2.5-3,4.6-3.6c4.4-1.2,9.8,6,12.2,9c1.4,1.7,2.4,3.5,3.9,5.1c1.8,1.8,2.8,2.9,1.5,5.4
		c-4,7.3-15.3,3.8-21.7,5.9c-7.9,2.6-16.2,4.3-24.1,6.9c-5.4,1.8-10.3,4.7-15.3,7.2c-4.2,2.1-6,4.5-9.1,7.6
		c-3.6,3.7-8.8,2.9-13.2,0.7c-2.6-1.4-3.4-2.5-3.1-5.6c0.2-1.8,0.7-3.9,3-3.6c0.6,1.5,3.1,4.6,5,3.7c0.9-0.5,0.9-2.1,1.6-2.8
		c0.7-0.8,1.3-0.8,2.2-1.2c1-0.4,1.8,0.3,2.5-0.9C812.7,813.6,812.3,811.3,812.3,810.4z M927.3,735.7c-1.4-3.2-1.8-6.6-3.3-9.7
		c-1.4-3-2.7-5.7-4.6-8.4c-1.7-2.4-2.6-3.4-1.1-6.1c1.2-2.2,3.8-4.6,6.2-5.1c2.9-0.6,5.1,2.2,7.2,3.9c3.4,2.7,5,5.9,7,9.7
		c1.5,2.9,3,6.5,6.8,6.1c2.1-0.2,5.4-1,7-2.3c2-1.6,7.1-6.9,6.1-9.6c-0.3-0.7-1.5-1.1-1.9-1.8c-0.3-0.7,0-2.5,0-3.3
		c0.2-2.8,1.2-6.3,3.7-7.8c3.3,3.8,3.1,8.3,3.5,13.1c0.2,2.8,0.9,6,2.4,8.2c1.4,2.1,3.5,3.5,5,5.4c1.3,1.6,2.2,3.1,3.7,4.6
		c1.3,1.2,3.4,3.4,2.1,5.4c-1,1.4-4.8,2.1-6.4,3c-1,0.6-3,1.2-3,2.5c0,0.9,2,3.7,2.6,4.6c1.8,3.1,3.5,4.3,6.7,5.6
		c3.6,1.5,5.2,4.6,7.6,7.8c1.5,2,3.7,5.2,1.8,7.7c-1.1,1.4-5.3,1.1-4.4,3.8c0.4,1.2,2.3,0.9,3.3,1.6c0.9,0.6,1.1,1.5,1.7,2.3
		c1.4,2,3,3.4,3.9,5.6c0.6,1.5,1.4,4.9,0.7,6.6c-0.9,2.1-3.3,1.5-5.1,1.2c-1.7-0.3-12.1-6.4-11.1-0.6c0.1,0.8,1.5,2.1,1.9,2.9
		c0.9,1.5,1.7,3.1,1.9,4.9c0.2,2.1-0.5,6.2,1.4,7.7c1.6,1.3,3-0.4,4.2-1.7c1.8-2.1,2.8-2.2,5.7-2.1c2.7,0.1,5,1.2,6.9,3.1
		c2.3,2.3,1.3,4.3,0.3,7c-1.3,3.6-2.8,6.7-6.9,7.7c-1.9,0.5-7.5,0-7.9,2.2c-0.3,1.3,0.8,1.6,1.4,2.6c0.8,1.3,1,2.8,1.6,4.2
		c1,2.3,2.3,4.1,4,5.8c1.2,1.2,2.1,3.3,3.5,4.3c2.3,1.6,10.8-1.6,10.1,4.7c-0.6,5.2-9.2,0-9.4,4.5c-0.1,2,1.7,3.8,1.5,6
		c-0.3,3.3-1.8,1.3-3.7,2.6c-1.3,0.9-1.8,6.3-1,7.7c1.8,3.1,7.6,1.6,9.8,4.6c3.9,5.2-1.4,9.8-5.2,12.3c-2.6,1.8-5.2,4-6.6,6.9
		c-1.2,2.5-1,6.1-1.5,8.8c-0.1,0.9-0.3,1.7-0.5,2.5c-0.6,2.5-1.5,4.8-2,7.3c-0.4,2.4,0,5.2,0.2,7.6c0.3,4.3,1.4,11.4-1.2,15.1
		c-1.8,2.4-5.2,3.2-7.5,4.9c-3.2,2.6-5.7,6.1-9.1,8.5c-2.2,1.6-5.6,3.4-8.1,4.4c-2.3,0.9-4.4,0.5-5.8-1.3c-1.2-1.4-2-6-3.9-6.2
		c-2.6-0.3-3.1,4.5-4.7,6c-3.9,3.3-10.9-1.1-14.7-2.2c-4.3-1.3-13.3-2.4-11.5-9.4c1.4-5.3,6.9-6.3,11.5-7.5c2.3-0.6,4-1.9,5.8-3.4
		c2.4-1.9,4.5-2.2,7.5-2.7c3.7-0.6,7.5-1.1,11.2-1.6c0.1,1.6-0.4,3.7,0.7,5.1c1.8,2.1,2.5,0.5,3.7-0.9c1.6-1.8,2.8-2.8,4.9-3.5
		c2-0.6,4-1.1,4.2-3.5c0.4-4.1-5.5-2.2-6.6-5.8c-0.9-3.1,3.5-6.9,5.1-9.2c2.9-4.2,3.7-8.7,0.4-13c-3.9-5.1-0.1-9.1,5.2-11.1
		c2-0.7,5.3-2.7,2.8-4.9c-2-1.6-5.5,0.5-7.7-0.5c-2.2-1.1-2.6-5.1-3.4-7.2c-1.2-3.1-2.6-6.1-4-9.1c-1.5-3.2-4.2-5.9-4.9-9.4
		c-0.5-2,0.4-5.7-1.2-7c-2.3,2.8-3.2,11.8-7.7,9.2c-3.9-2.2-6-7.8-8.7-11.2c-4.3-5.3-9,0.8-11.7,4.9c-2.1,3.2-2.3,7.2-4.1,10.4
		c-1.2,2-4.6,7.2-7,7c-4.2-0.3-4.5-6.5-4.6-9.6c0-2,0.4-4.2,0.1-6.1c-0.4-2.7-2.8-4.8-4.7-7c-2.2-2.6-4.4-2.5-7.4-4
		c-3.4-1.7-1.2-4.4-0.3-6.9c0.6-1.9,0.7-4.2,3.3-3.3c1.2,0.4,1.1,1.7,3.1,1.9c1,0.1,2.1,0,3-0.3c2.4-0.7,4.5-2.1,4.5-4.6
		c-0.1-5-7.8-5.3-5.4-11.2c2.3-5.6,4.5-10.5,6.2-16.4c0.7-2.7,1.1-5.7,2.1-8.2c1.1-2.7,3.3-3.8,5.1-5.9c1.5-1.6,2.5-4.2,1-6.1
		c-1.3-1.6-6-0.9-5.7-3.3c0.3-2,3.7-2,4.9-2.7c3.6-2.2,3.9-8.1,5.7-11.5c1.9-3.5,4.1-5.7,3.9-9.9
		C929.8,740.3,928.5,738.5,927.3,735.7z M1010.9,804.2c1,6.6,2.5,12.7,7.2,17.8c1.4,1.5,2.9,2.6,3,4.8c0.1,2.6-1.7,4.2-4.2,3
		c-4.1-2-6.5-8.2-7.8-12.2c-1-3.3-1.8-6.5-3-9.7c-1-2.9-2.6-4.5-4.3-7c-1.3-1.7-1.5-3.7-2.5-5.4c-0.9-1.5-3.9-2.8-3.2-4.9
		c1.5-0.9,2.5-0.8,2.7-2.6c0.2-1.4-0.5-3.4-1.1-4.5c-1.1-2.3-4.2-4.3-5-6.7c-1.9-5.7,9.1,0.4,8-4.5c-0.5-2.4-3.2-2.5-5-3.5
		c-1.7-0.9-2.4-2.3-3.5-3.8c-1-1.5-3-2.7-4-4.2c-0.1-0.2-0.3-0.5-0.4-0.7c-1-2.1-0.5-6.3-0.3-8.6c0.3-2.9,0.3-7.9,3.2-9.8
		c3.6-2.4,8.5,1.7,10.2,4.8c2.1,3.7,5.6,6.8,7.5,10.6c2.7,5.4,1.5,12,4.2,17.4c2.4,4.8,3.5,8.5,0.6,13.2c-0.1,0.3-0.4,0.6-0.6,0.9
		C1008.8,793.5,1010,798.3,1010.9,804.2z M1081.7,790.1c1.6,0.2,2.1,4.2,2.9,5.3c1.8,2.3,5.8,3,8.5,2c0.8-3.9-9.2-3.7-7.7-9.8
		c1.7-6.8,8.3-2,11.4,0.5c2.2,1.8,3.7,1.8,6.3,2.5c2.1,0.6,3.3,2.6,4.6,4.1c1.5,1.6,3.3,3.1,4.7,4.8c2.2,2.5,3.4,5.6,4.9,8.5
		c1.8,3.2,3.4,6.5,5.3,9.6c2.8,4.5,6.1,7.8,9.9,11.4c2.1,2,5.5,4.9,5.2,8.1c-0.3,2.5-2.2,3.6-4.2,5.1c-6.2,4.8-12.4,9.4-18.5,14.4
		c-6.7,5.5-15.8,9.5-20.5,16.9c-1.3,2-4.2,6.8-7.3,5.3c-1-0.5-1.6-1.6-1.9-2.9c-0.3-1.3-0.3-2.7-0.3-3.7c0-4.9-0.9-7.2-4.5-10.7
		c-2.4-2.3-6-6.3-9.4-7.2c-4.9-1.3-19.9,3-20.2-5.2c-0.1-2.7,1-5.3,2.6-7.8c1.9-3.1,4.3-6.2,5.7-8.9c2.4-4.5,4.6-9,6.6-13.7
		c1.8-4.4,4.3-7.5,7.4-11c2.3-2.6,3.7-6,5.2-9.1c0.8-1.8,1.7-3.7,1.9-5.6C1080.6,791.9,1079.7,789.8,1081.7,790.1z M1077.9,891.2
		c-2.4,3.7-6.4,3.1-10.2,4.3c-3,1-6,3.1-9.3,3.3c-3.3,0.2-6.3-2.4-9.4-3.5c-6-2.3-11.1-8.2-11.7-14.8c-0.2-1.7,0.1-3.2,0.6-4.7
		c1.8-5,7-8.7,11.3-11.8c2.4-1.8,5.2-3.6,8.4-3.5c5.7,0,11.9,3.2,16,7.3c2.7,2.7,5.4,5.7,6.8,9.1c0.5,1.1,0.8,2.4,0.9,3.6
		C1081.8,884.5,1079.9,888.1,1077.9,891.2z M1072.5,774.1c-1.6,1.5-2,3.7-3.6,5c-2,1.7-4.6,1.3-7,1.7c-2.1,0.4-7,2.2-4.1,4.7
		c2.1,1.8,7,0.9,9.7,1.4c0.2,2.1-3.7,4.7-5.1,6.1c-2.6,2.6-2.5,5.2-2.8,8.6c-0.2,1.9,0.2,3.8,0,5.7c-0.2,2.2-0.3,2.6-2,1.2
		c-2.5-2.2-3.5-7.7-7.9-6.8c-0.5,2.2,1.7,3.3,3,4.7c2.6,2.6,2,5.2,1.4,8.6c-1.2,7.4-3.1,14.5-5.2,21.6c-0.3,1.1-0.7,2.5-1.3,3.9
		c-1,2.3-2.5,4.4-4.7,4.7c-3.8,0.6-3.5-4.2-3.5-6.7c0-3.4-0.4-6.3-1.4-9.5c-1.3-4.3-5.7-6.8-6.9-11.3c-0.7-2.5-0.5-4.8-1.7-7.3
		c-1.2-2.6-2.9-4.5-4.3-6.9c-3-5.1-4.8-9.8-1.5-15.2c3-4.8,9.2-6.1,12.9-10.5c4.1-4.9,6.5-10.7,12.4-13.8c4.8-2.6,10.2-1.3,14.8,1
		c2.4,1.2,4.7,2.2,7,3.6c1.1,0.7,3.5,1.7,3.6,3.3C1074.5,773.4,1073.4,773.2,1072.5,774.1z M1024.7,868.8l0,0.1c4.1,0,6.6,2,5.2,6.3
		c-0.7,2.4-1.9,4.5-4,5.9c-0.9,0.6-2,1-2.7,1.8c-0.6,0.7-0.8,1.8-1.5,2.4c-1.8,1.4-5.4,0.5-6.2-1.7c-0.6-1.6,0.5-4.1,1.1-5.4
		C1017.9,875.9,1021.5,869.8,1024.7,868.8z M1012.6,901c1,3.7,3.5,1.2,5.7,3.3c1.5,1.4-0.2,5.6-0.4,7.5c-0.5,4.5,0.5,15-5.3,15.7
		c-5.5,0.7-8.6-6.1-11.1-9.9c-2.8-4.1-9-11.7-8.2-17.9c0.2-1.2,0.6-2.3,1.4-3.4c2-2.8,5.5-4.3,7.9-6.6c1.3-1.3,2.4-3.6,4.4-3.8
		c0.3,0,0.5,0,0.8,0C1014.6,885.9,1011.5,897.2,1012.6,901z M900.7,950.1c-1.6-1.8-5-2.1-6.4,0.1c-1,1.6,0.3,4.1,0.2,5.8
		c-0.1,2.3-1,2.6-3,3.7c-1.2,0.7-3.1,1.1-4.2,2c-1.5,1-2,3.6-3.5,3.9c-5.5,1-14.8-7.3-11.8-12.7c3.2-5.8,7.2-10.6,13.2-13.3
		c3.9-1.8,7.3-4.2,10.6-7c2.3-1.9,4-2.4,6.8-1.3c6.7,2.7,8.4,11.6,14.4,15.4c4.9,3,16.7,3.3,17.2,10.7c0.5,7.5-5.6,11.1-10.4,15.9
		c-4.2,4.3-8.8,4.6-14.6,4.5c-5.6-0.1-5.9-5.9-7.4-10.2c-1.2-3.2-1.6-4.8-0.6-8.2C901.9,956.7,902.9,952.6,900.7,950.1z
		 M789.7,975.5c-0.7-1.3-5,5.2-5.3,5.6c-2.6,2.7-6.2,0.5-9.3,2.6c-1.4,1-1.9,3.3-4,3.3c-2.1,0-1.5-3.4-1.5-5.2
		c0-5.5-6.6-9.3-5.8-14.5c0.4-3.1,4.1-4.9,6.6-6.6c3.3-2.4,5.2-5.5,8.1-8c3.4-3,8.5,2.1,11.9,3.8c5.8,2.9,10.9,6.1,14.1,12
		c1.9,3.5,2.6,7.4,4.4,10.9c1.9,3.5,1.1,5.9-0.5,9.4c-3.1,7.2-8.4,13-12.3,19.7c-2.3,3.9-4.3,8-6.6,12c-1.9,3.4-4,9.3-8.9,8.7
		c-1-5.7-1.2-12.6-4.3-17.5c-1.5-2.3-4.7-4.2-4.4-7.1c0.3-2.2,1.8-2.6,3.3-4c3.1-3,5.3-7.2,7.7-10.7
		C785.7,985.9,792.8,981.1,789.7,975.5z M785.3,862.6c1.7,2.3,1.9,4.8,0.8,7.5c-0.7,1.6-1.9,2.9-2.3,4.6c-0.4,1.5,0.1,3.4-1.3,4.6
		c-2.5,2.2-4.1-0.4-4.5-2.7c-0.4-2.3-1.1-6.7-3-8.7c-0.9-2-2.1-3.7-3.6-5.5c-3-3.4-4.2-5.2-3.1-9.5c1.2-4.6,0-9.8,1.2-14.3
		c1.3-4.8,4.7,1.8,6.1,3.6c1.4,1.8,4,3.9,4.4,6.1c0.8,3.6-2.4,2.1-3.5,3.9C774.6,855.6,783.8,860.5,785.3,862.6z M772.2,908.8
		c-0.2-2.2-0.6-6.6,0.9-8.3c2.3-2.7,3.8,0.1,4.1,2.4c0.8,6.4-0.8,12.4,3.7,17.8c2,2.3,4.3,2.8,4.5,6c0.1,2.7-0.2,7.8-3.3,8
		c-6.4,0.4-9.8-11.7-9.6-16.2C772.7,915.2,772.5,912,772.2,908.8z M782.7,894.3c0.7-0.6,1.9-0.3,2.3-0.9c0.7-0.9,0-2.1,0.3-3
		c0.6-1.8,2.3-4.5,4.4-4c1.5,0.4,6,4.6,5.2,6.5c-0.6,1.5-2.2,1.7-2.8,3.3c-0.8,2.2,0.4,3.3-2.4,3.5
		C787.4,900,779.2,897.8,782.7,894.3z M807,921.2c-3-1.5-9.9-2.9-9.3-7.4c0.3-2.8,3.8-4.5,5.8-5.9c1.8-1.2,3.3-2.7,5-4
		c5.4-4.3,8.9-3.6,14.7-0.6c4.6,2.4,9.4,4,14.2,6c2.6,1.1,5,2.3,7.5,3.6c2.1,1.1,6.6,2.4,7.9,4.5c2.1,3.4,0.1,9.2-2.5,11.5
		c-3.1,2.7-6.9,4-10.2,6.4c-2.8,2.1-5.7,5.7-9.4,5.5c-6.2-0.3-8.3-7.3-12.6-11.2C814.8,926.6,811.1,923.3,807,921.2z M846.8,880.6
		c-1.4,3.1-2.6,7.9-4.6,10.6c-1.6,2.1-3.9,0.6-5.8-0.9c-3.9-3.1-2.5-9.3-4.9-13.6c-2.6-4.6-7.6-8.4-9.6-13.2
		c-1.5-3.7,3.8-7.5,4.2-11.4c0.3-2.6-0.1-3.7,2.3-5.1c2-1.1,4.1-0.8,4.5-3.4c0.6-3.9-5.5-5.8-6.5-9.6c-0.6-2.1-0.8-6.2,2.3-5.8
		c2.7,0.3,3,4.3,4.3,6.1c1.6,2,4.3,1,6,2.6c2.3,2.2,0.5,3.7-1.2,4.7c-2,1.1-2.8,1.7-2.1,4.3c0.8,3.2,2.7,3.9,5.7,5.1
		c2.3,0.9,5.4,2,7.9,0.9c3-1.3,0.3-2.6-1.5-4.2c-2.4-2.3-3.4-4.2-0.5-6.8c3.9-3.5,10.5-4,13.2,1c1,2,2.2,4.7,1.8,7
		c-0.6,3.4-2,6.6-2.3,10.1c-0.3,2.6-0.4,6-1.6,8.2C855.6,872.4,849.3,874.9,846.8,880.6z M856.8,879.9c1.4-1.3,2.8-3,4.4-4.3
		c1.8-1.4,3.6-2.6,5.7-3.6c2.4-1.1,3.4-1.8,1.4-4c-0.7-0.7-1.7-0.8-2.1-1.7c-0.4-0.9,0-2.9,0-3.9c0-2.1-0.1-4.3,0.2-6.4
		c1.1-5.5,3.1-11.1,3.9-16.7c0.6-3.7-1-8.1,0.8-11.5c1.6-3.1,4.6-5.4,8.3-5.2c2.9,0.1,7.9,0.6,9.7,3.2c2.7,4-3.3,3.9-5.1,5.1
		c-3.1,2.1-3.7,7-1.8,9.6c2.2,3.1,4.5,6.3,7.6,8.5c4.5,3.1,6.6-2.6,10.9-2.9c2.8-0.2,5.8,0.4,5.6,3.5c-0.1,2.6-1.8,5.1-2.6,7.5
		c-1.4,4.3-3.1,9.8-3.5,14.3c-0.5,5.1,2.7,11.5-1,15.9c-4.3,5.2-12.7,5.8-16.8,11.3c-2,2.6-4.1,5.3-7.7,5.4c-3.1,0-4.5-2.2-6.2-4.5
		c-1.7-2.2-3.3-4.8-5.4-6.7c-2.6-2.4-5.3-4.3-7-7.5C854.7,882.8,855.1,881.6,856.8,879.9z M943,864.4c0-1.5,0-4.6,1.6-5.5
		c2-1.2,3.4,2.9,4.2,4.3c1.1,1.9,2.7,3.3,3.7,5.2c1.2,2.1,2.2,4.4,3.1,6.7c0.9,2,1.6,4,2.4,6c0.9,2.3-0.3,3.8-2.4,5.1
		c-2.4,1.5-5.4,2-7.9,3.2c-1.5,0.8-3.4,2.2-5,0.9c-1.6-1.4-1.2-4.2-3.1-5.5c-1.6-1.1-1.7,0.3-2.9,1.2c-1.3,1-3.1,1.6-4.5,2.7
		c-1.7,1.3-2.9,1.7-5,2.1c-2.1,0.3-4.4,0.2-6.5,0.2c-2.5,0-2.6,0.9-4.6,2c-5,2.9-2.7-6.4-2.7-8.8c0-1,0.2-1.8-0.6-2.6
		c-0.4-0.4-1.5-0.3-1.8-1c-0.8-1.7,1.5-2.8,2.6-3.3c2.4-1,3.5-2.2,4.2-4.8c0.7-2.3,2.2-4.7,3.7-6.6c1.4-1.8,3-2.4,3.9-4.6
		c1-2.1,1.7-3.9,3.6-1.8c1.7,2,2.6,4.3,3.3,6.8c0.3,1,0.5,2.3,1.1,3.1c0.7,1,1.5,1.6,1.9,2.7c0.4,1.2,0.5,2.4,1,3.5
		c1.1,2.2,2.9,3.9,5.3,2.2C945.6,875.1,943,868.4,943,864.4z M916.7,747.5c-1.5,3.8-5.1,6.3-7.8,9.3c-3.2,3.6-4.9,7.6-6.9,11.8
		c-1.5,3-4,19.8-9.9,13.5c-1.8-1.9-2.4-5.9-3.5-8.2c-1.5-3-3-6-4.7-8.9c-1.5-2.5-6-5.4-6.5-8.3c-0.5-2.5,2-3.6,3.9-4.5
		c4.1-2.1,7.8-4.6,11.8-7.1c2.8-1.8,6-3,8.8-4.9c3.1-2.1,7.1-4.6,10.6-2.3C915.2,739.8,918,744.2,916.7,747.5z M883.5,724.9
		c-0.8,8.1-6.4,10.7-11,16.4c-3.9,4.8-5.4,12.1-12,13.6c-5.2,1.1-10.8,0-16.1,0.4c-4.8,0.3-18.4,4.8-20.4-0.5
		c-2.1-5.7,0.8-14.4,4.3-18.9c3.7-4.9,7.8-9.5,12.7-13.4c4.9-3.9,10.6-6.9,15.8-10.2c4.4-2.8,13.3-4.8,17.8-1.8
		c2.6,1.7,4.9,4.7,6.9,7.1C883.2,719.9,883.8,721.8,883.5,724.9z M799.6,858.6c1.9,1.6,2.5,2.8,2.1,5.5c-0.5,3.6-2.4,3.3-4.8,4.9
		c-2.3,1.6-1.2,5.5-2.7,6.6c-4.2,3.1-3.3-10.4-3.1-12c0.3-2.3,2-3.5,2.6-5.8c0.3-1.1,0.3-3.7,1.8-4.1
		C797.5,853.3,798.3,857.5,799.6,858.6z M796.6,781.2c-0.2,3.9-1.9,6.7-2.8,10.4c-1.5,6.5,2.7,17.7-2.1,22.9c-2,2.1-4.6,3-7.2,4.1
		c-3.7,1.7-7.4,3.3-11.1,4.8c-4.8,1.9-9.5,3.5-14.3,5.3c-3.6,1.3-6.4,3.7-9.7,5.6c-2.6,1.5-5.6,2.4-8.5,0.9
		c-3.1-1.6-2.7-4.5-1.8-7.4c2.3-7.8,4.4-16,7.6-23.4c1.5-3.5,2.3-7.5,4-10.8c1.9-3.8,5.9-7,9.1-9.7c5.1-4.2,10.6-7.9,16-11.7
		c2.3-1.6,4.3-3.7,6.6-5.3c6.2-4.1,10.8-2,13.3,5C796.9,774.6,796.7,778,796.6,781.2z M1189.6,823.3c0,1-0.1,1.9-0.4,2.7
		c-0.3,0.8-0.7,1.5-1.4,2.2c-1.5,1.3-2.6,3-4.2,4.2c-1.7,1.4-3,1.9-5.2,1.5c-1.6-0.3-3.2-1.1-4.8-1.3c-2.2-0.3-4.5-0.1-6.3-1.7
		c-0.9-0.8-1.9-2.5-1.4-3.8c0.4-1.1,1.8-2.4,2.6-3.3c0.9-1.1,2-2.3,2.6-3.6c0.6-1.2,1.2-2.3,1.9-3.4c0.5-0.6,1-1.2,1.6-1.7
		c1.8-1.5,3.7-2.3,5.1-4.3c1.2-1.6,2-3.6,3.4-4.9c1.3-1.2,3.1-2,4.8-1.4c1.9,0.6,1.9,2.6,2.4,4.2c0.5,1.5,0.5,3.1,0.3,4.7
		c-0.3,1.8-1.1,3.4-1.3,5.2C1189.1,820.3,1189.7,821.8,1189.6,823.3z"/>
</g>
</svg>
