<?xml version="1.0" encoding="utf-8"?>
<!-- Generator: Adobe Illustrator 17.1.0, SVG Export Plug-In . SVG Version: 6.00 Build 0)  -->
<!DOCTYPE svg PUBLIC "-//W3C//DTD SVG 1.1//EN" "http://www.w3.org/Graphics/SVG/1.1/DTD/svg11.dtd">
<svg version="1.1" id="Layer_1" xmlns="http://www.w3.org/2000/svg" xmlns:xlink="http://www.w3.org/1999/xlink" x="0px" y="0px"
	 viewBox="0 0 800 801" enable-background="new 0 0 800 801" xml:space="preserve">
<g>
	<path d="M532.7,0c-0.2,1-0.5,1.9-0.8,2.9c-1.6,5.6-2.2,9.7-1.7,15.6c0.4,4.8,0.8,9.9,1.9,14.5c2.1,8.4,5.3,16.4,6.9,24.7
		c1.6,7.6,1.4,15.5,1.7,23.2c0.2,4.3,0.9,8.7,1.4,12.9c0.4,3.4,0.9,6.9,1.3,10.3c0.4,2.8,0.8,5.8,1.1,8.6c0.4,3.2,0.5,4.9,3.1,6.9
		c2.3,1.9,4.7,3.5,6.9,5.6c4.4,4.5,9.1,9.2,11.1,15.2c1.5,4.3,1.7,9.2,2.3,13.8c0.5,3.8,1.7,7.8-0.1,11.3c-1.7,3.4-4.7,5.5-7.2,8.2
		c-3.4,3.5-7.2,6.7-9.9,10.7c-2.2,3.2-2.6,6.7-3.5,10.3c-0.7,2.9-1.7,5.6-3.3,8.1c-3.5,5.7-11.5,10.6-11.7,18
		c-0.1,2.7,1.3,5,2.6,7.1c1.5,2.4,2.5,5.1,3.8,7.6c1,2,3.5,4.7,3.8,7c0.3,2.6-3,5.4-4.3,7.5c-2.1,3.3-4,6.5-6.3,9.5
		c-5.6,7.1-8.8,15.2-12.3,23.5c-2,4.7-4.1,9.3-6.5,13.8c-5.5,10.1-12.2,19.9-17.7,30.1c-4.5,8.3-8.3,17-12.3,25.4
		c-3.7,7.5-8.8,14.3-10.9,22.4c-0.9,3.5-2.3,6.9-1.9,10.6c0.4,3.9,2.4,7.6,0.5,11c-1,1.8-1.2,2.8-0.8,5c0.7,3.8,3.7,5.2,4.8,8.3
		c2.4,6.3-5.3,3.5-6.8,6.8c-1.9,4.1,6,4.5,7.7,5.3c-1.5,2-5.6,1.1-7.4,3.4c-1.7,2.4,1.1,3.5,3,4.8c5.5,3.7,9.1,8.1,9.3,14.9
		c0.1,3.6-0.1,7.2-0.3,10.9c-0.1,2.1,0,4.3-0.4,6c0,0-0.8,0.6-0.8,1.1c-0.1,0.5,0.3,1.2,0.2,1.7c-0.2,8.8,0.5,18-1.7,26.6
		c-1.2,4.4-2.6,8.8-3.7,13.2c-0.9,3.5-2.1,6.2-4.5,8.8c-2.1,2.3-4.3,3.7-7.2,4.9c-3.1,1.4-5.8,3.2-9.3,3.6
		c-3.7,0.5-7.1,1.6-10.7,3.1c-2.4,1-4.6,4.6-7.4,3.9c-2.9-0.7-2-3.3-2.4-5.5c-0.4-2.2-0.2-1.9-2.4-1.9c-1.3,0.1-2.5,0.4-3.6,0.7
		c-3.9,0.9-7.8,2-11.3,3.9c-3.5,1.9-6.4,4.7-9.8,6.8c-2.3,1.4-4.2,2.6-3.2,5.7c0.8,2.2,2.7,3.3,2.2,5.8c-1.3,6.9-7.2,12.7-11.8,17.7
		c-6.6,7.2-5.3-5.2-10.4-3.1c-5.7,2.3,6.2,8.6-0.3,10.4c-3.6,1-2.5-0.8-4.1-2.7c-2-2.4-4.8,0.1-5.9,2c-1.5,2.5-2.1,3.4-5.3,3.5
		c-2.4,0.1-4.7-1.1-6.7-2.4c-1.5-1-2.3-2.2-3.2-3.7c-0.9-1.6-2.9-3.6-3.6-5.2c-1.3-3.4,1.9-3,2.7-5.3c1-3.1-2.1-3.1-3.9-2.5
		c-2,0.6-5.5,2.4-7,0.2c-1.1-1.7,0.1-6,0.2-7.7c0.4-4,0.9-7.8,1.1-11.7c0.1-3.5,1-6.9,1.2-10.3c0.2-4.6,0-9-0.3-13.6
		c-0.9-10.9,1.6-22,1.4-32.8c-0.1-2.3-0.8-7.1,0-9.1c1-2.3,5.8-3.2,8.2-3.8c2.2-0.8,4.2-1.4,1.3-2.9c-2.5-1.5-12.7-1.6-9.5-6.3
		c0.8-1.2,3-2.4,3.3-4.4c0.3-3.2-1.9-1.1-3.7-2.2c-3.8-2.7,7.6-4.4,9-5c0.8-5.2-7.7-1-9-4.4c-1.1-2.6,1.1-6.6,1.5-9.1
		c0.4-2.8,0.3-3.5,3.5-4.7c1.5-0.6,5.5-1.2,4-3.6c-1.2-2-4.9-1-6.8-1.2c-2.5-0.1-3-1.7-0.9-3.1c1.7-1.2,4-1,2.7-3.8
		c-0.5-1.4-2.3-2.9-3.6-4c-2-1.5-2.3-1.9-1.8-4.6c0.5-2.5,0.7-4.7,0.3-7.3c-1.2-6.1-1.5-11.4,2.8-16.6c2.5-3.1,5.8-4.6,2.1-8.6
		c-2.4-2.6-6.8-3-4.4-8c1.5-3.3,3.2-6.8,2.5-10.9c2.4-0.2,1.8,2.2,3.2,3.1c1.7,1.2,3.4-0.6,4.2-2.1c0.7-1.4,1.1-3.9,0-5.3
		c-0.9-1.2-2.6-1.5-3.1-2.8c-0.4-0.9,0.2-3.2,0.3-4.1c0.4-3.3,2-6.2,3.4-9c0.6-1.2,0.8-2,1.8-3c0.6-0.6,2.3-0.8,2.6-1.3
		c2.4-2.6-1.7-1.8-3.1-2.5c-2.2-5.2,10.6-2.1,8.8-6.2c-1.3-0.9-3.2-0.4-3.8-2.4c-0.5-1.6,0.9-3.4,2.3-3.8c1.3-0.4,4.1,1.1,4.1-1
		c-0.1-1.4-2.4-2-3.5-1.9c-1.5-4.1,5.1-1.2,6.5-1.6c0.2-2.1-2-1.2-3-2.4c-0.7-0.9-0.4-2.8-0.4-3.9c0.9,0.6,7.3,3,6.9-0.1
		c-0.3-2.1-4-1.2-4.9-2.8c-1.4-2.7,2.5-0.8,3.9-1.7c2.7-1.8-1.9-1.4-2.5-2.4c-1.1-2.1,2.7-2.6,3.6-3.6c1.9-2.2-0.8-2.4-1.5-4.4
		c-0.8-2.1,0.5-3.2,1.6-4.9c1.8-2.9,0.9-10.6,5.4-10.3c0.2,0.9,1,2.9,1.7,3.3c1.5,0.8,2.9-0.1,2.9-1.7c0-2.8-3.9-3.9-2.3-7.3
		c0.7-1.3,1.9-2.1,2.5-3.6c0.4-1.3,0.5-2.4,1.2-3.4c1.4-2.1,6.1-3.3,4-6.4c-1-1.4-4.1-1.1-4.6-2.2c-0.9-2.2,3.3-2.1,4.4-2.3
		c2.1-0.3,3.5-0.2,4.7-1.8c1.2-1.6,1.8-4.3,2.6-6.2c2.2-5.6,4.9-11.1,6.8-16.9c1-3.1,1.6-6.5,2.7-9.5c1.3-3.5,3.8-5.9,5.5-9.1
		c1.5-3.1,2.3-6.6,3.6-9.6c2.4-5.7,4.3-11.6,6.5-17.3c1.8-4.4,3.5-8.4,4.3-13.1c0.4-2.2,0.4-4.3,1.1-6.4c2.2-8,6.4-15.7,9.8-23.3
		c2.5-5.5,4.4-11.3,6.5-17c1.3-3.7,1.9-7.7,3.1-11.5c1.1-3.4,2.9-6.4,4.3-9.7c0.7-1.8,3.3-5.8,3-7.7c-0.3-2.2-3.5-1.6-3-3.6
		s4.2-2.6,5.3-4.4c1.2-2.1,0.3-5.1,2.7-6.7c0.8-0.6,1.9-0.1,2.7-0.6c1-0.6,1.2-1.8,1.7-2.9c3.5-8.3,8.2-16.1,12.2-24.2
		c3.8-7.8,6.1-16.8,8.1-25.2c1.8-7.4,2.4-15,3.6-22.4h-80.5c-1.7,2.5-3.8,4.8-6.1,6.9c-2,1.9-6.7,4.1-6.9,7.2
		c-0.6,6.3,7.5,2.2,7.9,6.1c0.2,1.5-7.7,6.3-9,8.3c-2.8,4.2-2.6,6.5,0.8,9.8c4,3.9,3.8,3.6,2.1,9c-2.9,9.2-4,18.9-7.9,28.3
		c-1.7,4.2-2.7,8.8-4.1,12.8c-1.6,5-4.5,8.6-6.7,13.1c-1.8,3.8-0.6,7.4-2.4,11c-1.8,3.5-4.8,6.3-7.1,9.6c-1.8,2.6-5.1,6.8-2.2,9.8
		c3,3,9-0.9,6.8,5.1c-1.6,4.4-6.1,2.4-9.1,4.9c-1.2,1-3.1,2.8-1.8,4.9c1,1.5,2.9,0.1,4.2,1c4.5,2.8,0.5,4.6-3.3,6
		c-4.5,1.5-5.2,2-7.2,6.6c-3.1,6.9-20.7,34.2-6.5,36.7c0.3,2.2-1,3.5-1.7,5.6c-0.4,1.4-0.2,3.4-0.6,5.4c-1.5,6.3-5.2,0.7-9.1,3
		c-2.6,1.5-2.7,7-4.3,9.6c-1.8,2.9-6.6,5.4-5.9,9.2c0.4,2.1,3.4,1.8,3.3,4.3c0,0.7-2.7,3.4-3.3,4c-2.1,3-4.2,6.9-5.6,10.4
		c-1.5,3.6-2.7,7.2-4.4,10.8c-1.8,3.7-5,6.6-4.1,10.9c0.6,2.6,2.8,1.1,1.7,4.5c-0.8,2.4-1.5,2-3.5,2.7c-2.9,1.1-11.2-0.1-5.6,4.1
		c1.6,1.2,10.5,3.3,3.9,5.1c-4.1,1.1-7.7-4.5-11.6-1.9c2.4,2.1,5.1,3.8,7.5,6c-1.7,3.4,0.6,5.7-1.6,9.2c-1.5,2.5-4.8,3.8-7,5.7
		c-6.7,6-2.7,15.3-5.1,23c-0.9,2.6-3.6,4.1-5.1,6.1c-4.9,6.2-3.2,9.4,4.4,9.8c0.1,4.3-7.2,2.3-7.9,6.4c1.9,0,3.7,0.1,5.6,0.4
		c0.3,4.5-7.4,1.9-7,6.3c1.5,0.4,3.1,0.6,4.6,0.5c1.1,5.6-10.4,5.1-13.7,6.4c-4.1,1.6-5.3,4.2-0.6,6.2c3.4,1.5,8-1,11.9,0.6
		c3.7,1.7,5.6,6.4,3.2,9.6c-1,1.3-3,0.8-4.3,2.4c-0.9,1.3-0.8,3.8-1.2,5.3c-3,9.4,2.4,14,5.4,22.9c1.4,4.4,2,8-0.1,11.6
		c-2.3,3.9-7.5,6.3-9,10.3c4.4,0.7,11.1,2.9,8.7,8.5c-2.1,5.1-4.1,8.8-8.2,12.5c-1.7,1.5-4.6,2.9-2.1,5c0.7,0.6,3.1-1,4.2-0.1
		c1.9,1.6-0.2,1.8,0.2,2.7c0.5,1,0.1,2,1,3.2c0.3,0.4,2.4,0.9,2.9,1.3c3.1,2.2,4.5,3.3,2.8,6.5c-1.9,3.2-6.9,3.7-10.3,4.2
		c-4.1,0.8-8.4,3.3-2.7,4.6c4,0.9,7.2-0.5,11,2.1c2.9,1.9,3.7,6.3-1.4,7c-4,0.6-6.4-4.2-10.9-0.6c-4.6,3.7-0.7,6,3.6,5.8
		c2.4-0.1,9.5-2.2,9.2,2.1c-0.3,3.4-7.1,1.9-8.9,4.4c1.9,1.4,11.6,0.8,4.5,4.9c-3.6,2-9.1-0.3-10.6,4.7c4.1,1.6,8.5-1.1,12.3,0.2
		c5.3,1.7,3.2,5.1-0.5,6.9c-5.3,2.5-5.1,2.2-6.4,7.8c-0.8,3.7-2.8,8.4-6.8,9.8c-3.1,1-8.5,0.4-11.5-0.3c-5.5-1.2-3.6-3.6-6.9-6.8
		c-4.8-4.8-4.7,1.6-6.1,4.2c-2.2,4.4-7.8,0.8-9.9,3.6c-2.5,3.6,16.2,4.5,18.9,4.5c4.3-0.1,25.2-3.3,25,3.7c-5.9,1.5-13.4,2.2-20,1.8
		c-1.9-0.1-13.1-1.4-12.4,2.5c0.5,2.9,7.6,0,7.3,6c0,3.4-4.5,8.8-5.9,12.1c-1.8,4.1-3.5,8.2-6.1,11.6c-2.9,3.9-7.2,4.4-10.2,7.5
		c-4.9,5,1.7,3.3,4.1,5.8c2.1,2.3-0.8,9.5-2.7,11.9c-2.9,3.7-3.5,0.6-6.7,0.4c-3.8-0.2-5.7,1.2-8.5,4.1c-2.6,2.8-2.5,1-0.2,4.2
		c1.6,2.3,4.7,1.8,3,5.9c-1,2.4-4.1,3.5-6.6,3.6c-5.7,0.4-8.2-7.5-11.7-11.7c-1.7-1.9-12.2-12.1-10.9-2.4c-5,1.3-9.2-8.4-11.3,1.6
		c-1.7,7.6,6.8,5.5,12.3,6c2.4,5.5-5,3.3-7.9,4.3c-4.4,1.4-3.8,2.9-3.2,7.5c1,7.3,4,17.2,1.7,24.2c-8.6,2.4-13.3-12.3-23.7-10
		c-13,2.9,3.4,13,8.5,15.3c6.1,2.7,18.4,6.3,11.4,15.1c-3.9,5-4.6,1.1-8.2-1.2c-4.2-2.7-7-0.9-3.7,3.1c1.3,1.5,3.7,1.7,4.9,3.2
		c1.6,2.3,0.2,1.9,0.1,4.6c-0.2,5.1,1.4,5.3,5.9,6c0.9,2.3-0.5,6.9-2.7,7.3c-1.5,0.2-6.3-3.8-8.2-4.5c-5.1-2.1-9.5-3.8-15.3-2.7
		c-0.5,8.2,12,10.9,18.5,13.1c6.6,2.3,13,4.8,19.5,7.3c4.4,1.7,10.4,4.9,15.4,4.6c-0.4,0.8-1.2,2.4-1.4,3.2
		c-0.5,4.3-1.3,9.8-5.8,9.7c-3-0.1-7.3-3.4-10-4.7c-8.6-4.1-17.9-7.3-27.1-10.1c-4.8-1.4-9.7-3.1-14.3-4.7c-6.7-2.4-2.4-4-6.2-8.1
		c-3.6-4-19.4-0.2-22.4,3.3c2.4,2.8,8.9,4.7,12.4,5.8c5.2,1.7,10.4,3.6,15.6,5.4c10.8,3.8,20.6,9.3,31.1,14c5.6,2.5,13,2.6,18.2,5.6
		c2.6,1.5,1.9,0.1,2.3,3.2c0.2,1.8-0.3,3-0.8,4.7c-2.3,7.6-10.5,10-17.3,6.3c-3.1-1.8-5.1-4.1-8.8-5.5c-3.8-1.4-7.7-2.2-11.4-3.8
		c-6.1-2.6-12-4.7-18.4-6.3c-11.2-2.9-23.2-2.4-33.7-6.9c-7.1-3-20.9-10.3-27.8-3c-6.9,7.3,3.7,14.8,10.5,10.7
		c1.4-0.9,0-3.1,3.1-2.8c1.3,0.2,2.8,3.2,4,4c3.1,2,6.6,0.9,10,2.1c-1.4,5.1-0.6,10.2,6.3,11.4c1.5,0.3,7-0.4,8.3-1.2
		c2.3-1.6,1.7-4.7,3.9-6c9.1-6.1,13.1,11.5,14,16.6c1.5,8.9,11.3,7.5,12.6,17.6c1.4,10.6-7.1,15.4-15.2,20.3
		c-4.3,2.7-8.7,4.3-13,6.5h48.8c0.4-0.3,0.8-0.5,1.1-0.8c1.6-1.3,4.4-4.8,6.6-4.8c1.8,0,3.9,3.1,5.4,3.7c5.5,2.6,5.8-3.5,9.9-5.4
		c2.2-1,3.1-1.4,5.1,0.1c1.7,1.2,2.8,2.9,4.9,3.5c2,0.5,4.5-0.7,5.8,1.3c0.4,0.6,0.5,1.5,0.5,2.5h121c0.4-0.9,0.8-1.8,1.3-2.6
		c1.8-2.9,3-3.5,6.1-3.8c1.2-0.2,10.4,1.9,10.4,1.9c0.1-7.2-9.5-4.3-10.9-10.8c-0.4-2.2,0.1-5.4,1.5-7.2c2.7-3.6,4.9-3.7,7.9-1
		c2.3,2,4.2,4.7,7.9,3.2c3.5-1.5,1.2-2.8,0.3-5.7c-0.6-2.2-1.6-6.6,1-8.2c2.1-1.2,5.7,2.3,7.5,0.3c2.9-3-3.7-6.1-5.4-6.6
		c-4-1.3-4.8-1.5-2.6-6c2.8-6,7.9-11.5,12.1-16.6c1.2-1.5,3.9-7.4,5.9-7.1c2.6,0.4,1.9,7.3,5.8,3.9c2.4-2.1-0.7-6,3.8-3.7
		c4.4,2.3,4.5,5.1,10.5,2.8c-0.5-6.7-3.7-5.5-9.1-8c-5.6-2.5-2-6.5,1.3-9.7c3.9-3.9,9.3-7.3,14.3-4.6c3.8,2,6.5,6.3,11.3,3.5
		c4-2.3-0.3-2.2-2-5c-1.7-2.9,0.1-5.8,3.2-4.1c2.6,1.3,3.3,5.3,6.7,5c2.7-0.2,5.6-4,3.7-6.5c-1.8-2.5-8.1-1.2-7.5-6.1
		c0.4-2.7,1.7-2,3.7-1.9c2.5,0.1,6.8,1.3,8.8-0.9c0.8-1,1.1-3.5,0.5-4.6c-0.6-1.1-4.6-2.4-4.6-1.8c-0.9-3.3,1-6.8,0.3-10.5
		c-3.8,2.3-2.7,8-6.8,10.3c-4.3,2.4-7.4,2.1-9.6,7.3c-0.5,1-0.7,5.6-2.9,4.7c-1.4-0.7-0.6-4.6-0.4-5.5c1-4.3,4.7-8.2,1.5-12.5
		c-1.8,0.1-2.2,1.6-3.2,3.2c-1.8,2.9-2.5,6.1-4,9.1c-1.9,3.2-5.3,5.7-7.7,8.3c-3.4,3.6-8.2,10.7-13.9,9.9c-2.8-0.5-5.5-2.9-7.4-5.1
		c-2.3-2.8-1.5-4.5-1.7-7.8c-0.2-3.2-1.4-6.4-3.2-8.8c-1.6-2.2-5.2-4.2-4.9-7.3c5.2-1.6,9.4,3.8,10.6,8.1c1.2,4.7,0,10.2,6.1,11.5
		c8.3,1.8,9.6-5.6,7.8-12c-2.4-8.6-7.9-10.2-15.2-14.3c-3.2-1.9-6.9-3.1-10-5.1c-5.9-3.7-6.2-10-4.9-16.2
		c1.5-7.1,8.9-12.1,14.2-16.8c7-6.1,14-11.7,20.5-18.4c6.3-6.7,9.9-15.2,13.7-23.4c4.3-9.3,6.9-17.9,6.6-28
		c-0.1-4.6,0.1-7.8,1.9-12.2c1.6-3.6,4.3-6,6.1-9.3c1.3-2.6,1-6.3,3.5-8.2c3.2-2.2,6.3-0.7,9.2,0.1c6.8,2.2,17.5-0.5,24.7-1.9
		c7.6-1.5,15.5-7.3,20-13.8c1.1-1.7,2.5-7.8,4.2-8.4c2.3-0.8,5.5,4.9,6.5,6.6c2.2,3.3,2.7,6.6,3.8,10.3c0.6,2.2,5.6,10.6,9,6.5
		c2-2.3-2.4-9.3-3.7-11.2c-2.2-3.3-5.1-6.2-6.9-9.8c-1.6-3.2-2.6-7.8-2.5-11.5c0.3-6.7,4.2-13.8,6.1-20c2.4-7.8,3.5-15.8,6.8-23.3
		c3.2-7,6.1-13.2,5.1-21c-0.9-6.9-4.4-11.6-6.4-17.9c-1.6-4.8-2.7-10.7-3.4-16.6c0,0,0,0,0,0c0,0,0,0,0,0c-0.6-4.7-0.9-9.4-1-13.6
		c-0.3-8.7,3.3-18.7,7.1-26.6c2-4.1,5.5-7.1,8-10.9c2.9-4.6,4.7-10.2,6.7-15.3c1.9-4.8,4.2-9.4,6.3-14.2c1.5-3.4,1.4-7.5,3.2-10.9
		c2.1-3.9,5-7.1,6.8-11.4c3.9-8.9,6.2-18.7,12.4-26.5c3-3.8,24.1-12.4,15.2-17.5c-4.7-2.8-10.1-4-10.6-9.2c-0.1-1.1,0.1-2.3,0.5-3.8
		c0.6-2.5,3.2-4.4,4.4-6.7c1.8-3.5,0.2-5.6,0.6-9.2c0.9-9,10.3,0.8,13,3c5.7,4.9,10.4-2.4,14.2-5.8c0.5-0.6,1.1-1,1.7-1.4
		c8.7-7.1,19.1-13.4,23.2-24c1.2-3,1.2-6.5,2.4-9.5c1.1-2.7,3.7-4.7,6.2-6.3c2.3-1.6,4.3-3.7,5.9-6.1c1.4-2,1.9-5.4,3.4-7.2
		c2.9-3.5,9-0.4,12.5,1.9c4.5,2.9,5.7,7.2,9.5,10.4c1.6,1.5,4.2,2.7,5-0.3c0.7-2.7-1.9-2.6-3.1-4.4c-3.5-5,2.5-6.1,6.1-4.5
		c3.9,1.7,7.8,3.6,11.9,5.2c4,1.5,7.8,3.4,5.7,8.5c-2.6,6.5-12.1,6.3-16.9,10.3c-3.4,2.7-9.1,14.9-4,18.2c3.2,2.1,4.8-1.9,4.9-4.8
		c0.2-3.9-0.6-4.8,2.7-7.3c5-3.8,11.1-8.7,16.7-4.1c3,2.4,5.1,4.3,8.6,5.9c2.6,1.3,8.1,2.8,6.9,6.9c-0.8,3.1-2.7,2.3-2.3,6.3
		c0,0.4,0.1,0.7,0,1.1l-8-8l-7.9,10.2c0,0,11.4,8.7,13.3,10.4l7.8-2.3l0-0.2c1.3,0.2,2.8,0.1,4.2-0.2c0.6,4.6,1.1,9.1,2.7,13.5
		c0.9,2.4,2.1,4.8,3.2,7c1,1.8,1.6,4.8,3.6,5.7c2.5,1,5-1.4,6.6-3c2.2-2.3,4.2-4.6,6.7-6.6c5.1-4.3,10.4-8.5,15.8-12.4
		c1.8-1.3,3.7-3.1,5.8-3.6c2.6-0.7,3.9,0.5,6.2,1.5s4.5,2.1,6.9,2.8c1.8,0.6,3.5,2.1,5.4,1.6c2.2-0.4,2-2.2,2.6-4.2
		c0.6-2.5,1.4-2.5,3.2-0.4c3.4,3.7,4.8,8.5,8.5,11.9c0.8,0.7,1.7,1.7,2.7,2.4c-0.2,7,11.2,13.9,15.7,16.7c0.3,0.2,0.6,0.4,1,0.6V797
		c-1.3,1-3.2-1.2-3.5-1c-1.5,1.1-2.3,3.3-3.4,5h8.9V0H532.7z M798,187.7c-3.3-0.4-6.3-2.9-8.8-4.9c-2.4-1.9-5.7-4.4-4.7-8.1
		c0.9-3.1,5.1-3.5,7.5-5c2-1.2,4-3,5.9-4.6V187.7z M798,150c-2.2-2-4.1-4.3-3.3-8.2c0.4-2,1.6-3.5,3.3-4V150z"/>
	<path d="M69.5,800.4c0,0.2,0,0.4,0,0.6h17.2C80.9,798.6,70.9,791.3,69.5,800.4z"/>
	<path d="M8.5,773.2c1.5-2.1,3.7-3,2.9-6c-0.7-2.7-3-1.2-3-4.3c0-3.4,5.5-8.9,6.4-12.5c3.4-1.5,2.8,1.9,5,2.5
		c9.7,2.6,2-16.3,1.9-20.3c0.1-8.7,10.7-14.5,15.3-21.7c5.2-8.3,7.9-19,9.6-28.1c0.5-2.6,10.7-19.6,1.1-17.6
		c-1.8-3.5-1.5-7.3,0.6-10.3c2.3-3.4,8.3-3.1,9.8-6c2.6-4.8-5-4.8-5.6-7.8c-0.6-2.7,3-6.3,4.4-8.6c3.5-6.2,3.4-13.3,9.6-17.6
		c3.7-2.7,11.6-6.8,11.5-12.1c0-6.6-9.7-2.3-12.2-8.9c-2-5,1.8-10.8-0.4-15.9c-1.7-3.7-6.8-5.9-3.6-10.2c1.1-1.6,3.7-1,4.2-3.4
		c0.7-3.1-2.6-3.3-2.8-4.3c-1.3-6.1,7.6-14.9,11.2-19.3c5.1-6.2,11.8-7.9,12.7-16.8c1.1-10.9-4-21.3-1.9-31.8
		c2-9.9,5.4-19.6,11.8-27.5c5.3-6.5,8.7-10.4,16.2-14.3c1.6-0.8,3.2-1.6,4.8-2.3c5.5-2.8,10.7-5.5,14.2-10.9
		c4.8-7.4,9.7-16.3,5.5-25.1c-1.2-2.6-4.3-6.2-7-7.6c-4.1-2.1-8.6,0.4-12.9,1.7c-7,2-20.2,6-27,2.6c-7.1-3.8-5-14.6-4.6-21.2
		c0.5-7.9,6.2-14.4,6.2-22.2c0.1-3.3-0.7-5.3-0.1-8.5c0.6-3.8,1.8-7.1,1.9-11c0.1-6.6-1.6-14.8-4.6-20.5c-3.6-6.7-5.8-9.6-5.4-17.2
		c1.1-17.5,15.2-30.5,22.7-46.1c3.5-7.3,3.6-11.4,11.5-15.2c3-1.3,8.6-2.7,6.1-6.9c-1.5-2.6-8.3-4-10.8-5.2
		c-2.4-5.2,7.8-6.8,10.7-8.3c4.5-2.2,7.4-4.9,10.4-9.4c6.3-9.5,7.9-18.5,19.1-23.7c8.4-3.9,17-8,25.9-10.6c10.1-2.9,21-2.5,30.5-7
		c12.7-6,19.5-18.1,20.3-32c0.3-5.7,1.6-13.4-0.6-18.7c-2.8-6.5-8.7-11.3-13.1-16.6c-5.9-7.1-3.1-14.9,0.3-22.8
		c2.9-6.4,10.5-12.7,10.6-20.1s-5.6-11.4-8.1-17.5c-0.3-0.8-0.6-1.6-0.7-2.6c-0.8-4.1,0.9-6.2,1.1-10c0.2-3.8-1.6-7.5-1-11.2
		c3.7,1,7.8,10.1,10.3,13.2c4.8,6.2,10.1,10.1,18.7,10.2c8.1,0,17.7-0.7,22.1-7.8c2.4-3.9,3.8-8.9,4.6-13.9c0.7-4.7,1-9.5,1.2-13.8
		c0.2-4-0.7-8.1-0.9-12.1h-5c0,3.2,0,6.3,0.3,9.5c0.3,4.4,0.7,10.2,0,15.6c-0.7,5.5-2.7,10.3-7,12.8c-7.1,4-19.8,5.7-25.9-0.4
		c-3.3-3.3-5.3-7.3-7.9-11c-2.5-3.6-5.9-4.4-9-7c-4.1-3.4-6.1-12.9-5.6-19.6c0,0,0,0,0,0h-3.5c-0.8,8.2-3.9,16.1-3.3,24.9
		c0.6,8.6,4.8,16.2,8.2,23.8c3.1,6.9,5.4,14.1,3.8,22c-2,10.2-12.6,10.5-16,19.5c-5.6,14.6,13.8,28.4,19.6,39.3
		c3.5,6.4,0,16.8-1.8,23.2c-2.1,7.2-7.5,14.2-15.2,16.1c-18.1,4.4-37.9,2.7-54.3,11.3c-10.4,5.4-17.1,14.9-22.2,25.3
		c-4.9,9.8-9.1,10.6-18.9,14c-10.3,3.5-11.2,17.7-13.1,27c-1.6,7.8-4.6,17.2-7.9,24.5c-2.7,6.1-9.9,10.1-13,16.8
		c-4.7,10.4-5.1,21.2-1.9,32.3c2.7,9.5,10.3,15.3,10,26c-0.2,9.6-1,20.1-3.7,29.7c-1.4,5.1-3.6,9.9-5.3,14.8
		c-2.6,7.7-0.9,9.6,3.2,16.4c5.4,8.9,16.9,14.3,27.4,12.1c7.5-1.6,20.9-7.4,24.3,2.5c2.9,8.8-4,14.2-10.3,18.7
		c-1.7,1.2-3.3,2.2-5,3.1c-2.9,1.5-5.9,2.6-9.2,3.5c-10.7,3.1-18,6.2-24.6,15.5c-5.5,7.7-8.3,16.8-8.6,26.1
		c-0.2,5.6-0.5,11-0.1,16.5c0.4,5.2,2.1,10.4,1,15.6c-1,4.5-10,21-15.7,20.1c-4.1-0.8-5.7-5.9-10.5-3.9c-3.7,1.4-4.2,6.7-6,9.7
		c-6.2,10.4-11.9-0.9-15.6-6.3c-5.2-7.6-4.4-13.6-4.6-22.5c-0.2-8.2-2.6-16-1.8-23.9c0-0.6,0.1-1.2,0.3-1.7c1.3-7.6,4.5-17.5,0.8-25
		c-2.9-6-10.8-13.3-17.3-14.6c-1.3-0.3-2.8-0.4-4.3-0.4v9c4.4-0.6,8.9-0.3,12.5,2.3c6.1,4.5,6.8,17.9,6,24.8
		c-0.2,1.8-0.4,3.5-0.5,5.4c-0.8,9.5-0.7,19-2.1,28.3c-1.4,10.2-2.8,20.3-1.7,30.9c0.7,6.4,3,12.8,4.4,19c1.4,6.1,4.6,11.2,7,16.7
		c2.7,6.3,1.7,13.2,0,19.6c-1.5,6.6-1.6,13.8-4.6,20.2c-3.1,6.7-8.1,12.5-11.8,19.1C6.6,651.6,4,658.7,0,662.8v124.6
		c0.7-0.1,1.5-0.2,2.2-0.8C5.3,784.4,6.2,776.6,8.5,773.2z"/>
	<path d="M514.1,398.4c-0.5,0.5-1.1,0.9-1.6,1.3C513,399.2,513.6,398.8,514.1,398.4C514.1,398.4,514.1,398.4,514.1,398.4
		C514.1,398.4,514.1,398.4,514.1,398.4z"/>
	<path d="M498.5,408.1c2.4-0.6,5.2-3.3,7.2-4.4C503.6,404.8,501,407.5,498.5,408.1z"/>
	<path d="M554.5,399.1c1.5,0.6,3.1,1.3,4.6,2C557.6,400.4,556,399.7,554.5,399.1z"/>
	<path d="M514.1,398.4c1.8-1.6,3.7-3.1,5.7-4.3C517.8,395.3,515.9,396.7,514.1,398.4z"/>
	<path d="M534.8,391.3c-5.5-1.4-10.5,0-15,2.7C524.3,391.4,529.4,390.1,534.8,391.3z"/>
	<path d="M534.8,391.3c6.7,1.7,13.3,5.1,19.7,7.8C548.1,396.5,541.5,392.9,534.8,391.3z"/>
</g>
</svg>
